<?xml version="1.0" standalone="no"?><!DOCTYPE svg PUBLIC "-//W3C//DTD SVG 1.1//EN" "http://www.w3.org/Graphics/SVG/1.1/DTD/svg11.dtd"><svg t="1702985064709" class="icon" viewBox="0 0 1024 1024" version="1.1" xmlns="http://www.w3.org/2000/svg" p-id="9400" xmlns:xlink="http://www.w3.org/1999/xlink" width="200" height="200"><path d="M730.763636 316.043636a211.223273 211.223273 0 1 1 0 422.353455h-109.381818a28.858182 28.858182 0 0 1 0-57.716364h109.381818a153.460364 153.460364 0 1 0 0-306.920727h-109.381818a28.858182 28.858182 0 0 1 0-57.716364h109.381818z m-328.145454 0a28.858182 28.858182 0 0 1 0 57.716364H293.236364a153.460364 153.460364 0 0 0 0 306.920727h109.381818a28.858182 28.858182 0 0 1 0 57.716364H293.236364a211.223273 211.223273 0 1 1 0-422.4h109.381818z m255.255273 182.272a28.858182 28.858182 0 1 1 0 57.716364H366.126545a28.858182 28.858182 0 1 1 0-57.716364z" fill="#6d768d" p-id="9401"></path></svg>