<?xml version="1.0" standalone="no"?><!DOCTYPE svg PUBLIC "-//W3C//DTD SVG 1.1//EN" "http://www.w3.org/Graphics/SVG/1.1/DTD/svg11.dtd"><svg t="1703775939773" class="icon" viewBox="0 0 1024 1024" version="1.1" xmlns="http://www.w3.org/2000/svg" p-id="25660" xmlns:xlink="http://www.w3.org/1999/xlink" width="200" height="200"><path d="M515.48928 642.61632l-233.4976-256.096L123.22432 689.3376l0 83.42912 788.6208 0c-100.43776-89.30816-312.25344-280.36992-312.25344-280.36992L515.48928 642.61632zM789.66144 449.87392c43.81056 0 79.29984-36.56192 79.29984-81.73056 0-45.12-35.48928-81.75232-79.29984-81.75232-43.6928 0-79.20384 36.63232-79.20384 81.75232C710.4576 413.312 745.96992 449.87392 789.66144 449.87392zM0 89.6l0 862.31168 1024 0L1024 89.6 0 89.6zM972.58496 897.08416 54.92352 897.08416l-0.04352-749.19808 860.3328 0 0 0.04864 57.37088 0L972.58368 897.08416z" fill="#969696" p-id="25661"></path></svg>