<?xml version="1.0" standalone="no"?><!DOCTYPE svg PUBLIC "-//W3C//DTD SVG 1.1//EN" "http://www.w3.org/Graphics/SVG/1.1/DTD/svg11.dtd"><svg t="1703776730033" class="icon" viewBox="0 0 1024 1024" version="1.1" xmlns="http://www.w3.org/2000/svg" p-id="6049" xmlns:xlink="http://www.w3.org/1999/xlink" width="200" height="200"><path d="M192 672a16 16 0 0 1 16 16v128h604.992v-128a16 16 0 0 1 16-16h64a16 16 0 0 1 16 16v160a64 64 0 0 1-56.512 63.552l-7.488 0.448H176a64 64 0 0 1-64-64v-160A16 16 0 0 1 128 672h64z m268.032-505.664v2.56l-0.128 13.248V271.168l0.064 46.08v401.472a18.176 18.176 0 0 1-16.768 17.28h-62.08a18.176 18.176 0 0 1-17.216-16.768V334.464h-1.28l-130.432 129.28a16 16 0 0 1-22.592-0.128L209.28 463.36l-44.736-47.36a16 16 0 0 1 0.448-22.4l86.08-84.736a18.176 18.176 0 0 1 2.688-3.2l142.72-139.648c7.04-6.784 56.512-6.656 63.488 0.32z m184.832-5.312c9.152 0.448 16.512 7.68 17.216 16.768v384.704h1.344l130.368-129.216a16 16 0 0 1 22.592 0.128l0.256 0.256 44.736 47.36a16 16 0 0 1-0.448 22.4L774.848 588.16a18.176 18.176 0 0 1-2.624 3.2l-142.72 139.648c-7.104 6.784-56.512 6.656-63.488-0.32v-2.56l0.064-13.312V579.84l-0.064-17.28V178.304a18.176 18.176 0 0 1 16.768-17.216h62.08z" fill="#000000" p-id="6050"></path></svg>