<?xml version="1.0" standalone="no"?><!DOCTYPE svg PUBLIC "-//W3C//DTD SVG 1.1//EN" "http://www.w3.org/Graphics/SVG/1.1/DTD/svg11.dtd"><svg t="1703773391464" class="icon" viewBox="0 0 1316 1024" version="1.1" xmlns="http://www.w3.org/2000/svg" p-id="6251" xmlns:xlink="http://www.w3.org/1999/xlink" width="257.03125" height="200"><path d="M1185.133714 734.134857v46.738286c-42.934857 40.228571-79.433143 72.630857-109.494857 97.28-29.988571 24.649143-59.977143 46.811429-89.819428 66.413714a495.908571 495.908571 0 0 1-74.166858 42.057143c-19.748571 8.338286-36.571429 12.507429-50.468571 12.507429-33.499429 0-60.854857-12.434286-82.066286-37.302858-21.211429-24.868571-31.890286-56.905143-31.890285-96.256 0-45.129143 9.142857-89.965714 27.501714-134.217142a689.225143 689.225143 0 0 1 78.262857-137.216 2224.420571 2224.420571 0 0 1 127.414857-158.939429c38.034286-43.373714 56.978286-67.803429 56.978286-73.216a11.117714 11.117714 0 0 0-3.437714-8.118857 10.386286 10.386286 0 0 0-7.460572-3.437714c-8.557714 0-35.035429 19.017143-79.286857 56.978285-44.251429 37.961143-101.083429 93.769143-170.422857 167.424a4063.817143 4063.817143 0 0 0-224.768 262.948572c-4.461714 5.485714-18.870857 23.844571-43.008 55.296-24.137143 31.451429-41.252571 51.858286-51.2 61.293714-9.947429 9.508571-18.505143 14.262857-25.746286 14.262857-12.653714 0-23.625143-12.8-32.914286-38.326857a237.641143 237.641143 0 0 1-13.897142-81.627429c0-17.627429 5.851429-36.571429 17.334857-56.978285 11.483429-20.333714 36.571429-56.832 75.264-109.421715 38.619429-52.662857 70.582857-97.060571 95.817143-133.193142 25.380571-36.205714 53.174857-80.018286 83.382857-131.510858 21.284571-35.693714 37.010286-64.146286 47.177143-85.430857 10.166857-21.211429 15.213714-40.009143 15.213714-56.246857 0-14.043429-4.022857-20.992-12.214857-20.992-17.115429 0-49.444571 22.893714-96.914286 68.754286-47.396571 45.860571-106.057143 114.029714-175.908571 204.361143a4318.208 4318.208 0 0 0-218.550858 313.856c-24.868571 40.667429-42.422857 68.022857-52.882285 81.993143-10.386286 14.043429-21.942857 21.065143-34.596572 21.065142-15.798857 0-30.573714-16.822857-44.397714-50.468571-13.750857-33.718857-20.626286-60.928-20.626286-81.700571 0-6.802286 2.706286-14.262857 8.045715-22.381715a6636.251429 6636.251429 0 0 0 147.163428-202.678857 2855.497143 2855.497143 0 0 0 102.4-158.281143c29.769143-49.956571 51.492571-91.062857 65.024-123.392 13.531429-32.256 20.333714-57.709714 20.333714-76.214857 0-19.456-8.777143-29.184-26.477714-29.184-14.409143 0-50.468571 13.165714-73.874286 27.794286-23.405714 14.628571-20.187429 11.190857-39.936 26.697143-19.748571 15.433143-95.670857 56.612571-127.780571 73.508571-32.109714 16.969143-56.027429 25.453714-71.826286 25.453714-14.921143 0-22.381714-8.411429-22.381714-25.088 0-9.508571 3.145143-31.305143 9.508571-65.389714 6.290286-34.157714 12.873143-58.221714 19.602286-72.192 9.508571-18.139429 33.792-42.057143 72.850286-71.899428 39.131429-29.769143 60.708571-44.690286 64.731428-44.690286 3.657143 0 5.485714 1.536 5.485715 4.754286 0 1.755429-1.828571 4.461714-5.485715 8.045714-18.505143 14.994286-32.256 27.136-41.325714 36.644571a62.756571 62.756571 0 0 0-16.969143 31.158857c80.164571-40.667429 64.877714-38.253714 130.194286-64.219428C347.867429 65.097143 393.216 52.224 418.523429 52.224c12.653714 0 24.576 8.484571 35.84 25.380571 11.337143 16.969143 20.992 36.571429 28.891428 59.026286 7.899429 22.308571 11.849143 36.717714 11.849143 43.008 0 23.04-5.851429 50.249143-17.627429 81.700572-11.702857 31.451429-27.648 67.876571-47.762285 109.421714-20.114286 41.618286-45.129143 93.622857-74.898286 155.940571 23.405714-30.281143 45.860571-58.294857 67.072-84.114285 21.211429-25.673143 42.422857-50.761143 63.341714-75.190858 21.065143-24.429714 42.422857-49.005714 64.073143-73.874285 29.403429-33.865143 62.390857-66.340571 98.962286-97.28 36.571429-30.939429 70.875429-56.32 102.692571-75.922286 31.890286-19.675429 53.394286-29.476571 64.731429-29.476571 15.798857 0 29.988571 8.704 42.422857 26.112 12.434286 17.408 18.578286 36.059429 18.578286 55.881142 0 13.165714-8.557714 38.180571-25.746286 75.264a1995.702857 1995.702857 0 0 1-75.264 142.336c-32.914286 57.782857-76.580571 132.388571-130.779429 223.670858 51.492571-54.637714 105.033143-110.884571 160.621715-168.740572a6947.108571 6947.108571 0 0 1 124.050285-126.756571c27.062857-26.697143 49.737143-47.030857 67.803429-61.001143 24.868571-19.017143 49.737143-39.497143 74.898286-61.366857l59.245714-51.858286c14.482286-12.653714 27.355429-22.381714 38.692571-29.110857a61.586286 61.586286 0 0 1 31.158858-10.24c11.702857 0 26.550857 13.604571 44.397714 40.740571 17.846857 27.062857 26.770286 44.470857 26.770286 52.150857 0 9.508571-5.266286 20.772571-15.945143 33.938286-10.605714 13.092571-32.621714 37.449143-66.048 73.142857-61.44 65.974857-114.834286 132.534857-159.963429 199.68-45.202286 67.072-79.433143 128.292571-102.692571 183.661715-23.259429 55.369143-34.889143 99.108571-34.889143 131.145142 0 19.894857 3.657143 34.377143 11.190857 43.373715 7.460571 9.069714 19.017143 13.604571 34.889143 13.604571 14.482286 0 27.867429-2.706286 40.301714-8.192 12.434286-5.412571 26.258286-13.092571 41.398857-23.04 15.067429-9.947429 29.476571-19.382857 43.008-28.452571 19.017143-11.264 37.595429-23.405714 55.954286-36.278857 18.285714-12.873143 32.475429-23.04 42.642286-30.500572 10.24-7.460571 17.773714-12.726857 22.674285-15.872z" fill="#165DFF" p-id="6252"></path></svg>