<?xml version="1.0" standalone="no"?><!DOCTYPE svg PUBLIC "-//W3C//DTD SVG 1.1//EN" "http://www.w3.org/Graphics/SVG/1.1/DTD/svg11.dtd"><svg t="1703773448150" class="icon" viewBox="0 0 1024 1024" version="1.1" xmlns="http://www.w3.org/2000/svg" p-id="10331" xmlns:xlink="http://www.w3.org/1999/xlink" width="200" height="200"><path d="M876.8 234.1l-289-151.9c-47.5-24.9-104.2-24.9-151.6 0l-289 151.9a112.7 112.7 0 0 0-60.3 99.8V689c0 41.9 23.2 80.3 60.3 99.8l289 151.9c47.5 24.9 104.2 24.9 151.6 0l289-151.9a112.7 112.7 0 0 0 60.3-99.8V333.9c0-41.8-23.2-80.3-60.3-99.8z m35.2 455c0 32.6-18.1 62.5-46.9 77.6l-289 151.9c-40.2 21.1-88.1 21.1-128.3 0l-289-151.9C130 751.5 112 721.6 112 689.1V333.9c0-32.6 18.1-62.5 46.9-77.6l289-151.9c40.2-21.1 88.1-21.1 128.3 0l289 151.9c28.8 15.2 46.9 45.1 46.9 77.6v355.2z" fill="#515151" p-id="10332"></path><path d="M512 441c-47.9 0-96.4 15.3-100.8 44.5h-0.3V587.2c0 32.1 50.9 48.8 101.1 48.8s101.1-16.8 101.1-48.8v-50.3-51.4h-0.3C608.4 456.3 559.9 441 512 441z m76.1 146.2c0 7.1-25.9 23.8-76.1 23.8-50.2 0-76.1-16.7-76.1-23.8V569c19.5 10.3 47.9 15.6 76.1 15.6s56.6-5.3 76.1-15.6v18.2z m0-51.4c0 7.1-25.9 23.8-76.1 23.8-50.2 0-76.1-16.7-76.1-23.8V523c0.6 0.3 1.2 0.7 1.9 1 18.6 9.3 45.6 14.7 74.2 14.7s55.6-5.3 74.2-14.7c0.6-0.3 1.3-0.7 1.9-1v12.8z m-1.6-42.6c-2.2 2.8-6.3 5.8-11.5 8.4-15 7.5-38.6 12-63 12s-48-4.5-63-12c-5.3-2.6-9.4-5.6-11.6-8.4-0.7-0.9-1.5-2.2-1.5-3.4 0-7.1 25.9-23.8 76.1-23.8 50.2 0 76.1 16.7 76.1 23.8 0 1.2-0.9 2.5-1.6 3.4zM499.5 358.3v41c0 6.9 5.6 12.5 12.5 12.5s12.5-5.6 12.5-12.5v-41c26.6-5.8 46.5-29.4 46.5-57.7 0-32.6-26.5-59-59-59s-59 26.5-59 59c0 28.3 19.9 52 46.5 57.7z m12.5-91.7c18.8 0 34 15.3 34 34 0 18.8-15.3 34-34 34s-34-15.3-34-34c0-18.8 15.2-34 34-34zM756.8 627.2c-13.7-7.9-29.6-10-44.8-5.9-11.1 3-20.9 9-28.4 17.4L648 618.1c-6-3.5-13.6-1.4-17.1 4.6s-1.4 13.6 4.6 17.1l35.5 20.5c-3.5 10.7-3.8 22.2-0.8 33.3 4.1 15.2 13.9 28 27.5 35.9 9.3 5.4 19.4 7.9 29.4 7.9 20.4 0 40.3-10.6 51.2-29.5 16.3-28.3 6.6-64.5-21.5-80.7z m-0.1 68.1c-9.4 16.3-30.2 21.8-46.5 12.5-7.9-4.5-13.5-11.9-15.9-20.7-2.4-8.8-1.1-18 3.4-25.8s11.9-13.5 20.7-15.9c2.9-0.8 5.9-1.2 8.9-1.2 5.9 0 11.7 1.5 17 4.6 16.2 9.4 21.8 30.3 12.4 46.5zM371.8 615.7l-35.5 20.5c-7.5-8.3-17.3-14.4-28.4-17.4-15.2-4.1-31.1-2-44.8 5.9-28.2 16.3-37.9 52.5-21.6 80.7 10.9 18.9 30.8 29.5 51.2 29.5 10 0 20.1-2.5 29.4-7.9 13.7-7.9 23.4-20.6 27.5-35.9 3-11.1 2.7-22.6-0.8-33.3l35.5-20.5c6-3.5 8-11.1 4.6-17.1-3.5-5.9-11.1-8-17.1-4.5z m-46.4 69c-2.4 8.8-8 16.1-15.9 20.7-16.3 9.4-37.1 3.8-46.5-12.5-9.4-16.3-3.8-37.1 12.5-46.5 5.2-3 11.1-4.6 17-4.6 3 0 5.9 0.4 8.9 1.2 8.8 2.4 16.1 8 20.7 15.9 4.5 7.8 5.7 17 3.3 25.8z" fill="#515151" p-id="10333"></path></svg>