<?xml version="1.0" standalone="no"?><!DOCTYPE svg PUBLIC "-//W3C//DTD SVG 1.1//EN" "http://www.w3.org/Graphics/SVG/1.1/DTD/svg11.dtd"><svg t="1703776181669" class="icon" viewBox="0 0 1024 1024" version="1.1" xmlns="http://www.w3.org/2000/svg" p-id="37108" xmlns:xlink="http://www.w3.org/1999/xlink" width="200" height="200"><path d="M934.971374 88.792106c-4.582364-4.582364-11.74965-7.167287-18.916937-7.167286C640.290148 87.746387 529.608443 6.203815 529.138457 5.733829c-9.282224-7.637273-24.086783-7.637273-33.25151 0-1.527455 0-103.984404 75.785244-357.659351 75.785244-9.75221 0-19.974405 0-30.784083-0.469986-7.637273 0-13.864587 2.584923-18.446951 7.167286a26.648207 26.648207 0 0 0-8.224755 18.916937v372.581407c0 4.112378-5.169846 405.832916 422.752413 543.186326a22.042344 22.042344 0 0 0 8.224755 1.057469 39.443576 39.443576 0 0 0 8.224755-1.057469c413.470189-129.128655 422.634916-538.016481 423.222399-542.598844V107.250807c-0.587483-6.70905-3.172406-13.864587-8.224755-18.458701z m-45.588643 45.00116v346.379687c0 3.642392-10.222196 370.466469-377.633756 490.430398C129.415359 843.624881 133.527736 495.576744 133.527736 480.772185v-346.967169h4.112378c217.838514 0 331.575127-51.698461 373.521378-76.842712 42.533734 25.144251 155.800361 76.842712 373.521379 76.842712z" fill="#2c2c2c" p-id="37109"></path><path d="M656.387168 454.206226h-28.904139v-57.808279c0-63.565607-52.05095-115.499061-115.499061-115.499061s-115.499061 51.933454-115.499061 115.499061v57.808279H367.463271a29.033386 29.033386 0 0 0-28.904139 28.90414v231.115618a29.033386 29.033386 0 0 0 28.904139 28.90414h288.806401a29.033386 29.033386 0 0 0 28.904139-28.90414V483.122115a28.786643 28.786643 0 0 0-28.786643-28.915889z m-216.663549-57.808279c0-40.418797 31.724055-72.260348 72.260349-72.260348s72.260348 31.724055 72.260348 72.260348v57.808279h-144.520697z m202.21148 303.258471H381.915341V497.456688h260.019758z" fill="#2c2c2c" p-id="37110"></path><path d="M511.983968 526.384327c-24.556769 0-43.356209 18.79944-43.356209 43.356209a43.403208 43.403208 0 0 0 21.619356 37.598881v41.828754a21.619356 21.619356 0 1 0 43.238713 0v-41.828754c13.042112-7.167287 21.619356-21.619356 21.619356-37.598881 0.117497-24.556769-18.681944-43.356209-43.121216-43.356209z" fill="#2c2c2c" p-id="37111"></path></svg>