<svg t="1703817290584" class="icon" viewBox="0 0 1024 1024" version="1.1" xmlns="http://www.w3.org/2000/svg" p-id="4262" width="200" height="200"><path d="M938.6 694.6H514.2c-11.7 0-21.3-10-21.3-22.1s9.6-22.1 21.3-22.1h403V141.7H106.5v508.6h331.7c11.7 0 21.3 10 21.3 22.1s-9.6 22.1-21.3 22.1h-353c-11.7 0-21.3-10-21.3-22.1V119.6c0-12.2 9.6-22.1 21.3-22.1h853.4c11.7 0 21.3 10 21.3 22.1v552.9c0 12.3-9.6 22.1-21.3 22.1z m0 0" fill="#000333" p-id="4263"></path><path d="M511.9 892.3c-11.7 0-21.3-10-21.3-22.1v-199c0-12.2 9.6-22.1 21.3-22.1 11.7 0 21.3 10 21.3 22.1v199c0 12.3-9.6 22.1-21.3 22.1z m0 0" fill="#000333" p-id="4264"></path><path d="M727.4 894h-431c-11.7 0-21.3-10-21.3-22.1 0-12.2 9.6-22.1 21.3-22.1h431c11.7 0 21.3 10 21.3 22.1 0 12.1-9.6 22.1-21.3 22.1zM189.3 297.1c-5.4 0-10.9-2.2-15-6.5-8.3-8.6-8.3-22.7 0-31.3l81.1-84a20.9 20.9 0 0 1 30.2 0c8.3 8.6 8.3 22.7 0 31.3l-81.1 84c-4.3 4.4-9.8 6.5-15.2 6.5z m1.6 133.2c-5.4 0-10.9-2.2-15-6.5-8.3-8.6-8.3-22.7 0-31.3L372.1 189a20.9 20.9 0 0 1 30.2 0c8.3 8.6 8.3 22.7 0 31.3L206 423.8c-4.2 4.4-9.7 6.5-15.1 6.5z m0 0" fill="#000333" p-id="4265"></path></svg>