<?xml version="1.0" standalone="no"?><!DOCTYPE svg PUBLIC "-//W3C//DTD SVG 1.1//EN" "http://www.w3.org/Graphics/SVG/1.1/DTD/svg11.dtd"><svg t="1703776147751" class="icon" viewBox="0 0 1024 1024" version="1.1" xmlns="http://www.w3.org/2000/svg" p-id="35150" xmlns:xlink="http://www.w3.org/1999/xlink" width="200" height="200"><path d="M704 960l-9.6-3.2c-9.6-3.2-214.4-76.8-214.4-211.2v-227.2l41.6-9.6c48-12.8 96-32 137.6-60.8l44.8-28.8 41.6 28.8c41.6 28.8 89.6 48 137.6 60.8l41.6 9.6v227.2c0 134.4-204.8 208-214.4 211.2l-6.4 3.2z m-169.6-400v185.6c0 76.8 115.2 137.6 169.6 156.8 54.4-19.2 169.6-80 169.6-156.8v-185.6h-3.2c-54.4-12.8-105.6-35.2-153.6-67.2l-12.8-9.6-16 9.6c-44.8 32-99.2 54.4-153.6 67.2z m272-377.6c0-32-25.6-57.6-57.6-57.6H214.4c-32 0-57.6 25.6-60.8 57.6V832c0 32 25.6 57.6 60.8 60.8h208v57.6H214.4C147.2 950.4 96 896 96 832V182.4C96 115.2 147.2 64 214.4 64h534.4c32 0 60.8 12.8 83.2 35.2 19.2 22.4 32 51.2 32 83.2v176h-60.8V182.4zM544 300.8H272V246.4H544v54.4z m-147.2 118.4H272v-54.4h124.8v54.4z m0 0" fill="#2c2c2c" p-id="35151"></path></svg>