<svg id="图层_1" data-name="图层 1" xmlns="http://www.w3.org/2000/svg" viewBox="0 0 924.69 924.69"><defs><style>.cls-1{fill:#e5cab0;}.cls-2{fill:#182449;}</style></defs><path class="cls-1" d="M164.79,0h594A165.91,165.91,0,0,1,924.69,165.91V759.23A165.46,165.46,0,0,1,759.23,924.69H163.45A163.45,163.45,0,0,1,0,761.25V164.79A164.79,164.79,0,0,1,164.79,0Z"/><polygon class="cls-2" points="334.23 216.99 516.26 492.79 516.26 708.6 619.5 708.6 619.5 493.59 807.88 216.99 685.9 216.99 568.28 407.9 436.97 216.99 334.23 216.99"/><polygon class="cls-2" points="113.57 216.99 113.57 708 219.64 708 219.64 505.29 407.67 505.29 407.67 708.6 510.17 708.6 510.17 216.99 407.67 216.99 407.67 417.42 219.64 417.42 219.64 216.99 113.57 216.99"/></svg>