<?xml version="1.0" standalone="no"?><!DOCTYPE svg PUBLIC "-//W3C//DTD SVG 1.1//EN" "http://www.w3.org/Graphics/SVG/1.1/DTD/svg11.dtd"><svg t="1703601931167" class="icon" viewBox="0 0 1024 1024" version="1.1" xmlns="http://www.w3.org/2000/svg" p-id="34659" xmlns:xlink="http://www.w3.org/1999/xlink" width="200" height="200"><path d="M930.133333 520.533333c-12.8-17.066667-38.4-21.333333-59.733333-8.533333-115.2 85.333333-273.066667 59.733333-358.4-55.466667-34.133333-42.666667-51.2-98.133333-51.2-149.333333 0-55.466667 17.066667-106.666667 46.933333-153.6 12.8-21.333333 8.533333-46.933333-8.533333-59.733333-8.533333-8.533333-17.066667-8.533333-29.866667-8.533334-234.666667 21.333333-405.333333 230.4-384 465.066667s230.4 405.333333 465.066667 384c200.533333-21.333333 358.4-174.933333 384-375.466667 4.266667-12.8 4.266667-29.866667-4.266667-38.4z" p-id="34660" fill="#515151"></path></svg>