<?xml version="1.0" standalone="no"?><!DOCTYPE svg PUBLIC "-//W3C//DTD SVG 1.1//EN" "http://www.w3.org/Graphics/SVG/1.1/DTD/svg11.dtd"><svg t="1642436880317" class="icon" viewBox="0 0 1024 1024" version="1.1" xmlns="http://www.w3.org/2000/svg" p-id="3978" xmlns:xlink="http://www.w3.org/1999/xlink" width="200" height="200"><defs><style type="text/css"></style></defs><path d="M935.7312 653.02528L653.02528 935.7312a91.60704 91.60704 0 0 1-129.57696 0L101.6832 513.96608A137.4208 137.4208 0 0 1 61.44 416.768V130.1504A68.7104 68.7104 0 0 1 130.1504 61.44h286.63808a137.4208 137.4208 0 0 1 97.1776 40.2432L935.7312 523.4688a91.60704 91.60704 0 0 1 0 129.57696zM225.28 286.72a61.44 61.44 0 1 0 0-122.88 61.44 61.44 0 0 0 0 122.88z m483.04128 257.76128l-163.84 163.84a40.96 40.96 0 0 0 57.91744 57.91744l163.84-163.84a40.96 40.96 0 0 0-57.91744-57.91744z m-122.88-122.88l-163.84 163.84a40.96 40.96 0 0 0 57.91744 57.91744l163.84-163.84a40.96 40.96 0 0 0-57.91744-57.91744z" p-id="3979"></path></svg>