<?xml version="1.0" standalone="no"?><!DOCTYPE svg PUBLIC "-//W3C//DTD SVG 1.1//EN" "http://www.w3.org/Graphics/SVG/1.1/DTD/svg11.dtd"><svg t="1693739312505" class="icon" viewBox="0 0 1024 1024" version="1.1" xmlns="http://www.w3.org/2000/svg" p-id="5715" xmlns:xlink="http://www.w3.org/1999/xlink" width="200" height="200"><path d="M672 384a160 160 0 1 1-320 0 160 160 0 0 1 320 0z m-64 0a96 96 0 1 0-192 0 96 96 0 0 0 192 0z" fill="#FFFFFF" fill-opacity=".9" p-id="5716"></path><path d="M535.168 925.952a28.032 28.032 0 0 1-46.336 0L246.784 570.368a320.896 320.896 0 1 1 530.496 0l-242.112 355.584z m189.184-391.616a256.896 256.896 0 1 0-424.704 0L512 846.272l212.352-311.936z" fill="#FFFFFF" fill-opacity=".9" p-id="5717"></path></svg>