<?xml version="1.0" standalone="no"?><!DOCTYPE svg PUBLIC "-//W3C//DTD SVG 1.1//EN" "http://www.w3.org/Graphics/SVG/1.1/DTD/svg11.dtd"><svg t="1703752820035" class="icon" viewBox="0 0 1024 1024" version="1.1" xmlns="http://www.w3.org/2000/svg" p-id="5280" xmlns:xlink="http://www.w3.org/1999/xlink" width="200" height="200"><path d="M928 128H96c-17.6 0-32 14.4-32 32s14.4 32 32 32h832c17.6 0 32-14.4 32-32s-14.4-32-32-32zM96 544h512c17.6 0 32-14.4 32-32s-14.4-32-32-32H96c-17.6 0-32 14.4-32 32s14.4 32 32 32zM928 832H96c-17.6 0-32 14.4-32 32s14.4 32 32 32h832c17.6 0 32-14.4 32-32s-14.4-32-32-32zM950.626 489.176L758.824 297.374c-6.262-6.262-14.522-9.386-22.777-9.373l-0.048-0.001c-0.437 0-0.869 0.016-1.302 0.033l-0.149 0.004a31.669 31.669 0 0 0-6.026 0.86l-0.121 0.028c-0.391 0.096-0.777 0.202-1.162 0.312-0.15 0.043-0.301 0.084-0.451 0.129-0.265 0.08-0.527 0.167-0.79 0.253-0.281 0.092-0.562 0.186-0.841 0.286-0.12 0.044-0.24 0.09-0.359 0.135a31.833 31.833 0 0 0-11.425 7.334 31.823 31.823 0 0 0-7.334 11.426c-0.045 0.12-0.091 0.239-0.135 0.359-0.1 0.279-0.194 0.559-0.286 0.841-0.087 0.262-0.173 0.525-0.253 0.79-0.045 0.15-0.086 0.301-0.129 0.451-0.11 0.385-0.216 0.772-0.312 1.162l-0.028 0.121a31.76 31.76 0 0 0-0.86 6.026l-0.004 0.149c-0.016 0.431-0.032 0.864-0.032 1.301v384c0 0.425 0.016 0.847 0.032 1.268 0.003 0.061 0.002 0.122 0.005 0.184 0.093 2.063 0.388 4.075 0.859 6.021 0.01 0.042 0.019 0.085 0.03 0.127 0.096 0.389 0.201 0.774 0.311 1.157 0.043 0.152 0.085 0.305 0.13 0.456 0.08 0.264 0.166 0.526 0.253 0.787 0.092 0.281 0.186 0.562 0.286 0.842 0.044 0.12 0.09 0.239 0.135 0.359a31.845 31.845 0 0 0 7.334 11.426 31.822 31.822 0 0 0 11.423 7.333l0.364 0.137c0.278 0.1 0.557 0.193 0.837 0.285 0.263 0.087 0.526 0.174 0.792 0.254 0.15 0.045 0.3 0.086 0.451 0.129 0.385 0.11 0.772 0.216 1.162 0.312l0.121 0.028a31.76 31.76 0 0 0 6.026 0.86l0.149 0.004c0.43 0.015 0.863 0.031 1.3 0.031l0.048-0.001c8.255 0.013 16.514-3.11 22.777-9.373l191.801-191.801c6.275-6.275 9.397-14.554 9.372-22.824 0.025-8.272-3.098-16.551-9.372-22.825zM882.55 512L768 626.55v-229.1L882.55 512z" p-id="5281"></path></svg>