<?xml version="1.0" standalone="no"?><!DOCTYPE svg PUBLIC "-//W3C//DTD SVG 1.1//EN" "http://www.w3.org/Graphics/SVG/1.1/DTD/svg11.dtd"><svg t="1686843427165" class="icon" viewBox="0 0 1024 1024" version="1.1" xmlns="http://www.w3.org/2000/svg" p-id="15353" xmlns:xlink="http://www.w3.org/1999/xlink" width="200" height="200"><path d="M293.248 380.864c22.741333 0 41.152-17.194667 41.152-38.357333 0-21.226667-18.410667-38.4-41.152-38.4-22.698667 0-41.088 17.173333-41.088 38.4 0 21.162667 18.389333 38.357333 41.088 38.357333z m203.733333-76.757333c-22.72 0-41.088 17.173333-41.088 38.4 0 21.162667 18.346667 38.357333 41.066667 38.357333s41.088-17.194667 41.088-38.357333c0-21.226667-18.368-38.4-41.088-38.4z m175.146667 83.306666c-147.242667 0-266.645333 96.469333-266.645333 215.488 0 19.498667 3.306667 38.378667 9.301333 56.32a357.824 357.824 0 0 1-112.298667-11.456l-4.970666-1.386666-105.813334 51.968 28.288-85.44-2.688-1.621334c-69.866667-43.093333-114.901333-111.082667-114.901333-187.52C102.4 293.44 233.450667 187.733333 395.093333 187.733333c146.432 0 267.776 86.698667 289.322667 199.957334-4.053333-0.213333-8.149333-0.277333-12.288-0.277334z m-118.592 148.202667c0 17.92 15.552 32.426667 34.709333 32.426667 19.221333 0 34.773333-14.506667 34.773334-32.426667 0-17.877333-15.552-32.384-34.773334-32.384-19.157333 0-34.709333 14.506667-34.709333 32.384z m172.117333 0c0 17.92 15.509333 32.426667 34.688 32.426667 19.2 0 34.752-14.506667 34.752-32.426667 0-17.877333-15.552-32.384-34.773333-32.384-19.157333 0-34.666667 14.506667-34.666667 32.384z m-298.645333 68.693333c0-110.144 110.741333-199.402667 247.338667-199.402666 136.533333 0 247.253333 89.258667 247.253333 199.402666 0 64.597333-38.08 121.984-97.066667 158.4l-2.282666 1.386667 23.893333 72.170667-89.365333-43.925334s-2.773333 0.810667-4.181334 1.173334c-24.597333 6.613333-50.922667 10.218667-78.250666 10.218666-136.597333 0-247.338667-89.301333-247.338667-199.424z" fill="#FFFFFF" p-id="15354"></path></svg>