<svg xml:space="preserve" style="enable-background:new 0 0 1024 1024;" viewBox="0 0 1024 1024" y="0px" x="0px" xmlns:xlink="http://www.w3.org/1999/xlink" xmlns="http://www.w3.org/2000/svg" id="图层_1" version="1.1">
<style type="text/css">
	.st0{fill:#DFFDFF;}
	.st1{fill:#00575A;}
	.st2{fill:#FFD1D0;}
	.st3{fill:#FCC3C4;}
	.st4{fill:#009DB1;}
	.st5{fill:#008F9A;}
	.st6{fill:#0A0A0A;}
	.st7{fill:#FFA634;}
	.st8{fill:#F49724;}
	.st9{fill:#0095A1;}
	.st10{fill:#005E85;}
</style>
<g>
	<g>
		<path d="M89.1,343.4c34.9-75.3,155.8-127,199.8-142.8S425,318.7,536.6,354.3s248.9-27.6,264.2-35.9
			c15.3-8.3,121.7,142.7,122.6,200S801.3,759.7,700.1,769.8s-528.8,1.3-515.1-86.6c13.7-87.9,9.2-124.7-85.9-160.7
			S89.1,343.4,89.1,343.4z" class="st0"></path>
		<circle r="41.4" cy="270.6" cx="896.3" class="st0"></circle>
		<circle r="19.9" cy="362.5" cx="968" class="st0"></circle>
	</g>
	<g>
		<path d="M333.7,553.3c0,0,2.1,5.2,6.2,7c2.5,1.1,24.9,11.3,46.7,16.3c14.5,3.3,28.7,6.4,34.9,6.8
			c6.7,0.4,14.3,1.2,15.9-2.5c0.5-1.2,0.4-4.1,1-6.2c1.4-4.8-0.1-11.2-28.7-22.4C368.5,536.3,340.9,541.7,333.7,553.3z" class="st1"></path>
		<path d="M344.1,546.6c0,0-0.1,2.5,0,23.8s10.6,65.6,2.1,74.6s-22.5,7.3-31.1,9.7c-8.5,2.4-38.5,15.6-46.6,23
			c-8.2,7.4-33.8,20.2-51.3,29.1s-40,14.8-40,14.8l33.8,35c0,0,29.1-22.1,49.3-26c20.2-3.9,77.4-16.7,89.2-23.3
			c11.8-6.6,41.4-20.6,48.3-23.7s13.6-26.4,17.8-47s25.2-82.7,25.2-82.7l-56.6-13.5L344.1,546.6z" class="st2"></path>
		<path d="M349.3,624.4c0,0,11.6,19.9,9.2,24c-2.3,4-31.2,4.4-31.2,4.4s15.1-1.3,19.2-8.3
			C351.3,636.5,349.3,624.4,349.3,624.4z" class="st3"></path>
		<path d="M344,560.1c0,0,3.2-9.8,13.3-9.2s34.7,0.6,40.8,2.8c6.1,2.2,29.8,14.5,29.9,19.9c0.1,5.4,1.5,15.1,1.5,15.1
			l5.9-18.1c0,0-11.9-16.9-23.8-19.8c-11.9-2.9-42.2-7.2-54.8-8.5c-12.6-1.4-12.7,3.2-12.7,3.2V560.1z" class="st3"></path>
		<path d="M336.7,480.5c0,0-0.3,11.9,3.6,20c3.9,8.2,7.4,15.9,3.5,24.9s-6.2,22.1-9.3,26.4c-3.1,4.3,3.5-7,17.1-5.8
			c13.6,1.2,43.5,1.2,53.2,6.8c9.7,5.6,32,15.5,32.6,21.2c0.5,4.7,0.1,6.5,0.1,6.5c0,0,4.6-20.5,8.5-27.1c3.9-6.6,2.8-19.6,2.8-19.6
			L336.7,480.5z" class="st4"></path>
		<path d="M417.2,524.6c-10.4-9.7-65.1-61.2-80.5-44.1c0,0.2,0.1,0.4,0.1,0.6l0-0.1c0,0,0.1,4.9,0.4,7
			c0.3,2.1,0.8,4.9,0.8,4.9s-0.7-5.6,0-5.1c0.7,0.5,1.8,2.5,1.8,2.5l0,0c3.8,8.8,10.3,20.1,14.1,26.8c5.4,9.7,7.5,12.3,11.1,15.2
			c4.9,3.8,17,6.4,39.9,10c12,1.9,24.2,8,24.7,8.7c0,0,10.6,11.6,10.3,16.4c-0.2,2.3-2.3,13.1-2.3,13.1s6.2-21,8.3-26.3
			c1.9-4.9,6-26,6-26L417.2,524.6z" class="st5"></path>
		<path d="M707.8,305.4c-29.1,12.8-50.1,15.1-47.8,80.4s26.8,73.4,39.6,64.1c12.8-9.3,41.6-23.6,46-32.4
			c8.6-17.1,32-37.5,16.9-76S707.8,305.4,707.8,305.4z" class="st2"></path>
		<path d="M652.9,346.1c0,0-13.3,15.8-18,7.5c-4.7-8.3-13.5-20.8-26.2-25.8c-2.1-0.8-3.5,2.4-9.6-1
			c-8.6-4.7-2.8-14.1-18.1-18.6c-20.7-6.2-30.5-15.6-49.7-25c-41.1-20.1-87.5-40.7-99.5-38.5c-26.4,4.7-120.7,75.1-127.4,77.2
			c-6.7,2.1-30,20.2-40.4,32.6c-10.4,12.4-21.2,24.9-17.6,26.9c3.6,2.1,13.5-8.3,19.7-12.9c6.2-4.7-16.4,24.2-17.7,27.4
			c-1.4,3.4-6.3,8.8-3.9,11.3c4.8,4.8,23.7-20.7,23.7-20.7s-22.9,24.7-19.5,28.1c5.2,5.1,14-5.7,22-16.3s10.9-15.3,12.4-15
			c1.6,0.3-17,33.4-17.9,35.2c-3.2,6.6,5.7,7.8,11.4-1.3c5.7-9.1,14.2-24.3,14.2-24.3s0,8.8,3.1,9.8s2.3-5.7,4.9-8.5
			c2.6-2.8,17.9-18.6,19.4-20.7c1.6-2.1,1.8-17.6,6.5-23.6c4.7-6,47.4-29,65-35c17.6-6,43.8-16.8,48.9-15.3
			c5.2,1.6,24.6,31.1,37,33.7c12.4,2.6-70.4,17.6-88,20.7c-17.6,3.1-71.5,47.1-74.6,68.1c-3.1,21,125.4,27.8,131.6,30.4
			c6.2,2.6,133.6,23.8,139.3,31c-6.1,23.8-3.2,70.9-2.7,102c0.5,31.1-1.5,50.1,0.6,71.4c2.6,26.9,15.5,70.6,13.4,80.4
			c-2.1,9.8,1,29.5,2.6,35.7c1.6,6.2,4.1,15-3.6,21.8c-7.8,6.7-15.2,19.3-12.9,19.7c7.9,1.2,6.3-6.6,14-11.3
			c7.8-4.7,9.8-7.3,14.7-11c-2.3,5.1-13,15.4-13.2,22.3c-0.3,10.6,25.1-28,25.4-22.5c0.2,4-1.3,10.7-1.8,14.2
			c-0.7,5,2.4,17.7,5.5,6.8c2.4-8.3,6.8-17.1,6.8-17.1s6,18.9,13.2,17.7c7.2-1.2,2.3-7.8,1.4-11.1s0.6-23.7-1.6-28
			c-2.1-4.3-17.3-19.4-18.5-26.4c-3.7-21.9,0-86.4,3.9-107c3.9-20.6-6.6-48.9-5.3-55.6c2.7-13.5,4.7-51.9,12-69.8
			c7.4-17.9,14.7-26.8,11.6-40.8c-3.1-14-4.8-46.3,1.8-48.2c6.6-1.9,23.2-5.3,23.2-5.3L652.9,346.1z" class="st2"></path>
		<path d="M764.5,386.7c4.8-7.5,32.9-40.4,2.1-63.7s-21.5-40.4-44-38.8s-38.8,5.4-52.1,10.1
			c-13.2,4.7-27.6,52.4-33,56.3s11.8,49.4,22.8,40.8c11-8.6,23.4-24.9,34.3-24.1c10.9,0.8,39.6,6,44.3,11.9
			C743.5,385.2,764.5,386.7,764.5,386.7z" class="st6"></path>
		<path d="M583.2,488.3c0,0-1.5,5.8-1.8,7.7c-0.5,3.2-0.8,12.9-0.8,12.9l21.3-22.8L583.2,488.3z" class="st3"></path>
		<path d="M580,421.2c0,0-10,28.8-3.4,33.8c6.5,5,21.4,2.4,21.4,2.4s-9.9,16.3-23.6,5.8
			C560.6,452.7,574.7,429.5,580,421.2z" class="st3"></path>
		<polygon points="660.3,390.8 654.4,425.7 665.1,423.2" class="st3"></polygon>
		<path d="M475.6,335l45.4,22.1c0,0-32.1-5.6-40.5-3c-8.4,2.7-12.6,9.7-12.6,9.7s-5-3.2-3.4-10.6
			C465.6,348.6,466.1,337.1,475.6,335z" class="st3"></path>
		<polygon points="633.6,351.3 630.3,347.6 570.4,434.4 576.6,433.1 583.2,420.2 610.3,386.8" class="st3"></polygon>
		<path d="M610.9,328.7c0,0,6.1,2.7,13.6,9.6c7.5,6.9,8,10.8,6.9,12.9s-28.5,42.5-40.6,55.2
			c-12.2,12.7-23,37.5-19.7,51.1c3.4,13.6,17.9,5.5,26.9,0c9.1-5.5,27.6-12.5,35.6-14.8c8-2.3,14.7-10.5,14.7-10.5s2.7,8.1-9.4,22.6
			c-12.1,14.5-26.4,28.2-38.3,32.9c-11.9,4.7-0.7,4.4-30.1-2.6c-29.4-7-30.5-6.7-43.9-10c-54.8-13.7-218-52.1-218-52.1
			s9.5-31.4,36.9-51.7c14.5-10.7,26.8-18.6,37.2-18.6c10.4,0,20.8-4.1,36.6-7c15.8-2.8,50-8.6,56.4-10.7c-5.4,4-19,7.6-0.1,31.7
			s30.6,41.4,45.1,41.4c14.5,0,57-7.8,68.1-22c11.1-14.2,19.4-21,22.3-32.9C613.8,341.3,617.1,332.6,610.9,328.7z" class="st7"></path>
		<path d="M471.5,337.6c0,0-78.9,29.1-61.3,40.8c17.6,11.7,86.2,45.1,103.3,58.2c18.8,14.4,29.8,34.5,40.1,38.1
			c10.4,3.6,16.7,10.3,16.7,10.3l-37.3-8.5l-224.6-54.2c0,0,18.4-41.2,41.6-54.6c23.2-13.4,5.4-11.9,48.1-17.5
			S471.5,337.6,471.5,337.6z" class="st8"></path>
		<path d="M504.2,451.6c0,0,55.5,48.2,61.8,53.6s14,12.8,8.9,26.4c-5,13.6-53.2,77.3-73,98.7
			c-19.8,21.4-50.9,54-56.7,76.5c-2.9,11.1-3.9,29.8-14.8,38.5c-11.3,8.9-32.5,7.5-40.8,0.8c-16.3-13.2-16.7-26.8-16.7-26.8
			s52.1-68,62.1-93.2c10.1-25.2,43.9-72.6,52.8-79.6c8.9-7-45.4-12.8-62.9-16.7c-17.5-3.9-36.9-15.5-36.9-15.5s67.5-67.3,91.4-69.2
			C503.5,443,504.2,451.6,504.2,451.6z" class="st2"></path>
		<path d="M388.1,514.2c0,0-7.4,7.5-7.9,11.9c-0.6,4.4-1.1,6.1,1.4,6.4s10.9-1.8,16.8-4.3c6-2.5,9.5-4.2,9.5-4.2
			L388.1,514.2z" class="st1"></path>
		<path d="M480.3,540.3h30.2l-37.4,23.5c0,0,4.3-5.2,8.2-10.4C485.2,548.1,496.6,543.6,480.3,540.3z" class="st3"></path>
		<path d="M388.1,514.2c0,0,16.5,8.7,24.8,11.8c-2.4-4.7-9.1-13.4,2.6-18.3c11.6-4.9,30.8-22.5,34.9-27.2
			c4.1-4.7,13.7-16.4,17.1-17.6c3.4-1.3,37.9-10.3,37.9-10.3l-2.4-4c0,0-34.5,5-38.6,8.9s-10.7,13.4-24.9,19.6
			c-14.2,6.2-49.6,25.7-51.3,29.8C386.4,511,388.1,514.2,388.1,514.2z" class="st3"></path>
		<path d="M308.5,422.4c0,0,60.6,0,84.7-13.2s38.8-6.2,60.6,6.6s50.5,33.8,50.5,33.8s-30.3,4.7-38.6,11.5
			c-8.4,6.8-13,15.1-22.5,19.8c-9.5,4.7-32,11.9-48.7,27.1c-16.7,15.2-15.3,22.8-14.2,23.6c1.2,0.8-27.8-42.7-45.6-52.4
			C316.6,469.4,310.8,441.5,308.5,422.4z" class="st4"></path>
		<path d="M311,438c1.1,4.8,35.1-3.9,61.9-10.1c26.8-6.2,85.1,6.9,80,25.2c-5,18.3,3.6,10.3,0.3,20.2
			c5.5-3.3,8.5-11.6,16.3-14.6c7.8-3,34.7-9,34.7-9s-56.7-50.5-85.5-49.7c-28.7,0.8-110.3,22.5-110.3,22.5L311,438z" class="st9"></path>
		<path d="M382.3,706.8l3.1-4.2c0,0-4.3,16,2.1,21.7c6.4,5.6,6.8,13.4,26.2,9.3c19.4-4.1,26.1-3.4,26.1-3.4v4.5
			c0,0-32.3,9.5-44,6.4s-20.1-10.9-17.9-19s1.9-12.3,1.9-12.3L382.3,706.8z" class="st3"></path>
		<path d="M382.3,706.8c0,0-4.9,11.9-0.8,18.1s9.8,12.2,20.5,13.5s26.4-5.4,33.4-5.4s4.7-2.6,5.6,18.4
			c0.9,21,6.9,49.7,11.3,52.8c4.4,3.1,10.6,6.3,17.1,10.6c6.6,4.4,14,10.2,13.2,14.4c-0.8,4.1-5.9,13.3-20.2,14.3
			c-29.3,2-54,5.1-73.5-26.6c-26.5-42.9-9.8-24.3-31.3-45.3c-25.1-24.6-12.9-35.5-7.5-42.2C355.3,722.6,382.3,706.8,382.3,706.8z" class="st10"></path>
		<path d="M184.7,719.4l6.1-1.9c0,0,0.7,5.6,4.8,9.8c4.1,4.1,17.4,14,22.8,14.5c5.4,0.5,9.2,3.5,9.2,3.5l-4.8,4.3
			c0,0-36.8-11.4-37.3-18.9S184.7,719.4,184.7,719.4z" class="st3"></path>
		<path d="M181.3,717.8c0,0-3.3-0.8-5.8,0.2c-2.5,0.9-10,3.5-21.8,12.8c-11.8,9.3-20.8,9.5-16.1,22.7
			c4.7,13.2,20.7,21.8,25.6,32.1c4.9,10.4,12.9,32.9,28.5,36.8c15.5,3.9,34.4,2.8,44.3,1.6s8.5-7.5,2.3-15.3
			c-6.2-7.8-6.5-4.1-12.2-9.1c-5.7-4.9-9.6-32.4-5.7-37.3c3.9-4.9,14.2-12.7,8.3-14.2c-6-1.6-29-8.5-36.5-19.7
			C184.7,717.1,181.3,717.8,181.3,717.8z" class="st10"></path>
		<path d="M443.7,303.8l-6.8-17.5l-9.3,15.2c0,0,5.9-3.1,9.5-1.8C440.8,301,443.7,303.8,443.7,303.8z" class="st3"></path>
	</g>
</g>
</svg>
