<?xml version="1.0" standalone="no"?><!DOCTYPE svg PUBLIC "-//W3C//DTD SVG 1.1//EN" "http://www.w3.org/Graphics/SVG/1.1/DTD/svg11.dtd"><svg height="1024" node-id="1" sillyvg="true" template-height="1024" template-width="1024" version="1.1" viewBox="0 0 1024 1024" width="1024" xmlns="http://www.w3.org/2000/svg" xmlns:xlink="http://www.w3.org/1999/xlink"><defs node-id="54"></defs><g node-id="163"><g node-id="165"><g node-id="167"><g node-id="169"><g node-id="170"><g node-id="171"><g node-id="172"><path d="M 101.30 323.20 C 134.50 251.60 249.40 202.40 291.40 187.40 C 333.30 172.40 420.80 299.70 526.90 333.60 C 633.00 367.50 763.70 307.40 778.20 299.50 C 792.80 291.60 893.90 435.20 894.80 489.70 C 895.70 544.20 778.70 719.20 682.40 728.70 C 586.10 738.20 179.50 730.00 192.60 646.40 C 205.60 562.80 201.40 527.80 110.90 493.60 C 20.30 459.30 101.30 323.20 101.30 323.20 Z" fill="#dffdff" fill-rule="nonzero" group-id="1,3,5,7,8,9,10" node-id="72" stroke="none" target-height="565.80005" target-width="875.4" target-x="20.3" target-y="172.4"></path><path d="M 908.30 253.90 C 908.30 275.66 890.66 293.30 868.90 293.30 C 847.14 293.30 829.50 275.66 829.50 253.90 C 829.50 232.14 847.14 214.50 868.90 214.50 C 890.66 214.50 908.30 232.14 908.30 253.90 Z" fill="#dffdff" fill-rule="nonzero" group-id="1,3,5,7,8,9,10" node-id="74" stroke="none" target-height="78.79999" target-width="78.79999" target-x="829.5" target-y="214.5"></path><path d="M 956.10 341.40 C 956.10 351.89 947.59 360.40 937.10 360.40 C 926.61 360.40 918.10 351.89 918.10 341.40 C 918.10 330.91 926.61 322.40 937.10 322.40 C 947.59 322.40 956.10 330.91 956.10 341.40 Z" fill="#dffdff" fill-rule="nonzero" group-id="1,3,5,7,8,9,10" node-id="76" stroke="none" target-height="38" target-width="38" target-x="918.1" target-y="322.4"></path></g></g></g></g></g></g></g><g node-id="164"><path d="M 750.60 142.70 L 754.40 135.70 L 759.20 142.70 Z" fill="#f26751" fill-rule="nonzero" group-id="2" node-id="87" stroke="none" target-height="7" target-width="8.600037" target-x="750.6" target-y="135.7"></path><path d="M 465.70 929.50 C 465.70 929.50 466.50 964.40 483.70 972.00 C 501.00 979.50 529.90 983.30 535.90 970.50 C 541.90 957.70 512.20 911.90 512.20 911.90 L 465.70 929.50 Z" fill="#f5dc7e" fill-rule="nonzero" group-id="2" node-id="89" stroke="none" target-height="71.39996" target-width="76.20001" target-x="465.7" target-y="911.9"></path><path d="M 426.10 656.70 C 426.10 656.70 429.50 702.90 432.30 714.20 C 435.10 725.50 435.70 745.20 435.10 755.30 C 434.50 765.50 419.90 895.10 426.10 908.60 C 432.30 922.10 443.80 944.10 447.60 945.80 C 451.40 947.50 458.80 954.30 477.90 945.80 C 497.10 937.30 527.50 931.10 534.30 911.40 C 541.10 891.70 503.30 769.40 504.40 755.30 C 505.50 741.20 516.80 651.10 516.80 651.10 L 424.50 639.30 L 426.10 656.70 Z" fill="#fa7253" fill-rule="nonzero" group-id="2" node-id="91" stroke="none" target-height="315" target-width="121.19998" target-x="419.9" target-y="639.3"></path><path d="M 360.50 363.60 L 347.30 348.00 C 347.30 348.00 362.70 351.20 368.30 345.40 C 373.90 339.60 374.30 329.20 374.30 329.20 L 385.20 346.70 C 385.20 346.70 387.20 370.40 360.50 363.60 Z" fill="#fcc3c4" fill-rule="nonzero" group-id="2" node-id="93" stroke="none" target-height="41.19998" target-width="39.900024" target-x="347.3" target-y="329.2"></path><path d="M 425.60 651.60 L 427.00 669.10 C 427.00 669.10 430.50 707.90 431.80 712.30 C 433.10 716.60 434.60 730.50 434.60 730.50 C 434.60 730.50 436.70 716.10 442.30 708.50 C 449.30 698.90 461.30 687.60 471.60 686.00 C 471.60 686.00 471.60 686.00 471.60 686.00 C 488.00 684.50 500.10 687.30 504.30 684.10 C 511.00 679.00 512.60 685.30 512.60 685.30 L 513.40 674.40 L 425.60 651.60 Z" fill="#f26751" fill-rule="nonzero" group-id="2" node-id="95" stroke="none" target-height="78.900024" target-width="87.80002" target-x="425.6" target-y="651.6"></path><path d="M 416.30 336.40 C 416.30 336.40 412.90 317.80 398.50 325.40 C 384.10 333.00 383.30 347.40 374.00 353.30 C 364.70 359.20 347.00 364.30 342.70 377.00 C 338.50 389.70 341.90 413.30 342.70 426.00 C 343.50 438.70 355.40 448.00 355.40 448.00 L 416.30 336.40 Z" fill="#fa7253" fill-rule="nonzero" group-id="2" node-id="97" stroke="none" target-height="130.20001" target-width="77.79999" target-x="338.5" target-y="317.8"></path><path d="M 286.00 309.10 C 284.30 300.20 289.40 281.50 308.50 280.90 C 327.70 280.30 340.60 292.70 350.80 301.20 C 360.90 309.70 380.10 319.20 378.40 330.50 C 376.70 341.80 374.00 347.60 365.00 351.50 C 356.00 355.40 343.00 354.10 332.30 341.70 C 321.50 329.40 291.00 336.10 286.00 309.10 Z" fill="#f5dc7e" fill-rule="nonzero" group-id="2" node-id="99" stroke="none" target-height="75.100006" target-width="95.80002" target-x="284.3" target-y="280.3"></path><path d="M 343.00 429.00 L 342.40 421.40 C 342.40 421.40 377.90 376.80 387.90 367.70 C 397.90 358.70 416.30 336.30 416.30 336.30 L 423.50 347.60 L 343.00 429.00 Z" fill="#f26751" fill-rule="nonzero" group-id="2" node-id="101" stroke="none" target-height="92.70001" target-width="81.100006" target-x="342.4" target-y="336.3"></path><path d="M 722.10 126.90 L 730.30 116.20 C 730.30 116.20 710.40 96.70 708.50 96.30 C 706.60 95.90 680.80 85.60 680.80 80.70 C 683.40 77.90 687.40 79.60 687.40 79.60 C 687.40 79.60 679.60 70.80 682.60 69.60 C 685.60 68.50 708.10 77.90 708.10 77.90 C 708.10 77.90 713.00 70.60 717.90 69.50 C 722.80 68.50 724.30 62.80 727.30 62.80 C 730.30 62.80 734.80 61.30 740.80 62.80 C 746.80 64.30 752.80 68.80 749.10 68.80 C 745.30 68.80 738.20 68.40 740.10 71.40 C 742.00 74.40 770.40 99.20 765.30 110.10 C 760.60 120.20 751.60 148.00 743.30 149.50 C 735.00 151.00 722.10 126.90 722.10 126.90 Z" fill="#ffd1d0" fill-rule="nonzero" group-id="2" node-id="103" stroke="none" target-height="89.7" target-width="90.80005" target-x="679.6" target-y="61.3"></path><path d="M 616.30 332.10 C 616.30 332.10 634.20 547.90 630.60 556.20 C 623.80 520.50 588.50 580.60 588.50 580.60 C 588.50 580.60 595.30 330.80 597.90 332.00 C 600.40 333.40 616.30 332.10 616.30 332.10 Z" fill="#0a0a0a" fill-rule="nonzero" group-id="2" node-id="105" stroke="none" target-height="249.79999" target-width="45.700012" target-x="588.5" target-y="330.8"></path><path d="M 189.10 569.20 C 189.10 569.20 176.30 568.40 169.90 573.30 C 163.50 578.20 141.30 589.10 139.10 591.70 C 136.90 594.30 141.40 598.50 143.60 598.80 C 145.90 599.20 131.90 610.80 138.50 615.30 C 145.10 619.80 145.10 619.80 145.10 619.80 C 145.10 619.80 142.80 624.70 147.40 625.80 C 151.90 626.90 169.90 623.20 171.10 625.80 C 172.20 628.40 175.20 619.00 182.00 615.70 C 188.80 612.30 199.30 604.40 204.20 604.10 C 209.10 603.70 211.00 597.70 211.00 597.70 L 189.10 569.20 Z" fill="#ffd1d0" fill-rule="nonzero" group-id="2" node-id="107" stroke="none" target-height="60" target-width="79.100006" target-x="131.9" target-y="568.4"></path><path d="M 728.30 118.70 C 728.30 118.70 728.70 123.50 730.00 126.60 C 731.40 129.70 737.30 141.90 741.20 142.60 C 745.10 143.30 752.10 140.10 752.10 140.10 L 750.60 142.60 C 750.60 142.60 746.60 146.00 742.10 145.20 C 737.60 144.40 732.40 139.20 730.40 135.80 C 728.40 132.40 726.70 120.70 726.70 120.70 L 728.30 118.70 Z" fill="#fcc3c4" fill-rule="nonzero" group-id="2" node-id="109" stroke="none" target-height="27.300003" target-width="25.399963" target-x="726.7" target-y="118.7"></path><path d="M 514.90 347.10 C 514.90 347.10 478.50 327.20 439.00 340.10 C 399.60 353.10 351.30 419.00 345.70 425.80 C 340.10 432.60 270.20 516.50 255.50 518.80 C 240.80 521.10 244.80 532.30 237.50 536.80 C 230.20 541.30 213.30 540.20 208.20 539.60 C 203.10 539.00 212.10 554.30 205.40 559.30 C 198.60 564.40 187.40 567.80 187.40 567.80 L 204.90 606.70 L 223.50 590.90 C 223.50 590.90 222.40 617.40 226.90 621.30 C 231.40 625.20 241.60 632.60 254.50 621.30 C 267.40 610.00 291.10 624.70 305.20 611.20 C 319.30 597.70 408.60 491.70 412.50 493.40 C 416.40 495.10 397.00 594.30 396.50 606.70 C 396.00 619.10 406.60 616.30 419.60 637.70 C 432.60 659.10 441.00 681.10 475.40 679.40 C 509.80 677.70 528.90 679.40 533.40 683.90 C 537.90 688.40 545.80 608.90 549.70 601.60 C 553.60 594.30 566.00 596.00 577.30 619.60 C 588.60 643.20 597.00 663.60 597.00 663.60 C 597.00 663.60 611.10 626.40 605.50 550.90 C 599.90 475.40 602.50 437.10 606.80 404.90 C 611.10 372.80 594.80 347.40 629.10 325.20 C 629.10 325.20 697.30 290.00 717.00 252.20 C 736.70 214.40 739.50 204.30 746.30 190.20 C 753.10 176.10 739.00 162.00 746.30 160.30 C 753.60 158.60 762.10 160.90 760.40 146.80 C 758.70 132.70 746.30 150.20 737.90 142.30 C 729.40 134.40 726.10 118.10 726.10 118.10 L 712.60 129.40 C 712.60 129.40 685.60 119.30 678.80 139.00 C 672.00 158.70 670.90 172.20 670.90 172.20 C 670.90 172.20 648.90 181.80 636.00 192.50 C 623.00 203.20 621.30 220.70 621.30 220.70 L 546.30 259.00 L 530.00 273.10 L 514.90 347.10 Z" fill="#fa7253" fill-rule="nonzero" group-id="2" node-id="111" stroke="none" target-height="570.30005" target-width="574.69995" target-x="187.4" target-y="118.1"></path><path d="M 536.30 250.60 C 536.30 250.60 546.90 256.90 552.20 255.10 C 559.60 252.60 564.10 249.90 564.10 249.90 L 559.20 297.60 L 536.30 250.60 Z" fill="#0a0a0a" fill-rule="nonzero" group-id="2" node-id="113" stroke="none" target-height="47.700012" target-width="27.799988" target-x="536.3" target-y="249.9"></path><g node-id="166"><path d="M 147.80 542.30 L 147.80 123.90 L 158.80 99.10 L 167.90 123.00 L 167.90 542.30 Z" fill="#d7d7d7" fill-rule="nonzero" group-id="2,4" node-id="117" stroke="none" target-height="443.19998" target-width="20.09999" target-x="147.8" target-y="99.1"></path><g node-id="168"><path d="M 136.70 543.30 L 149.20 567.60 L 168.00 567.60 L 180.20 542.90 C 180.20 542.90 165.40 538.30 165.40 537.20 C 165.40 536.10 161.60 540.20 161.60 540.20 L 156.90 537.00 L 151.50 540.60 L 145.10 539.80 C 145.10 539.80 141.40 542.10 136.70 543.30 Z" fill="#ffc75b" fill-rule="nonzero" group-id="2,4,6" node-id="121" stroke="none" target-height="31.5" target-width="43.5" target-x="136.7" target-y="536.1"></path><path d="M 167.90 639.20 L 149.30 639.20 C 149.30 639.20 147.80 612.30 147.80 603.40 C 147.80 594.50 149.30 567.60 149.30 567.60 L 167.90 567.60 C 167.90 567.60 170.00 594.50 170.00 603.40 C 170.00 612.30 167.90 639.20 167.90 639.20 Z" fill="#353535" fill-rule="nonzero" group-id="2,4,6" node-id="123" stroke="none" target-height="71.60004" target-width="22.199997" target-x="147.8" target-y="567.6"></path><path d="M 149.30 639.20 L 158.80 655.80 L 167.90 639.20 Z" fill="#ffc75b" fill-rule="nonzero" group-id="2,4,6" node-id="125" stroke="none" target-height="16.599976" target-width="18.59999" target-x="149.3" target-y="639.2"></path></g></g><path d="M 175.30 579.90 C 175.30 579.90 156.50 604.30 152.80 608.10 C 149.00 611.90 148.30 616.40 148.30 616.40 C 148.30 616.40 154.70 618.70 165.60 608.90 C 176.50 599.10 184.40 600.30 184.40 600.30 C 184.40 600.30 197.90 597.70 199.40 595.40 C 200.80 593.10 182.80 575.00 175.30 579.90 Z" fill="#ffd1d0" fill-rule="nonzero" group-id="2" node-id="129" stroke="none" target-height="43.700012" target-width="52.5" target-x="148.3" target-y="575"></path><path d="M 428.40 312.50 L 399.20 366.00 C 399.20 366.00 421.80 348.20 426.40 345.80 C 431.00 343.40 439.00 340.10 439.00 340.10 L 428.40 312.50 Z" fill="#0a0a0a" fill-rule="nonzero" group-id="2" node-id="131" stroke="none" target-height="53.5" target-width="39.799988" target-x="399.2" target-y="312.5"></path><path d="M 479.80 340.30 L 522.60 357.20 L 522.60 295.90 Z" fill="#fcc3c4" fill-rule="nonzero" group-id="2" node-id="133" stroke="none" target-height="61.30002" target-width="42.799988" target-x="479.8" target-y="295.9"></path><path d="M 207.90 554.00 C 207.90 554.00 218.80 563.00 219.60 567.50 C 218.10 559.60 207.30 546.80 207.30 546.80 L 207.90 554.00 Z" fill="#f26751" fill-rule="nonzero" group-id="2" node-id="135" stroke="none" target-height="20.700012" target-width="12.300003" target-x="207.3" target-y="546.8"></path><path d="M 220.80 593.10 C 220.80 593.10 222.50 583.50 222.00 579.00 C 223.10 584.00 223.40 590.90 223.40 590.90 L 220.80 593.10 Z" fill="#f26751" fill-rule="nonzero" group-id="2" node-id="137" stroke="none" target-height="14.099976" target-width="2.5999908" target-x="220.8" target-y="579"></path><path d="M 187.90 569.20 C 187.90 569.20 186.90 569.20 186.60 569.20 C 186.20 569.20 185.00 569.20 185.00 569.20 L 200.70 605.10 C 200.70 605.10 201.90 604.60 202.30 604.50 C 202.60 604.40 203.60 604.20 203.60 604.20 L 187.90 569.20 Z" fill="#fcc3c4" fill-rule="nonzero" group-id="2" node-id="139" stroke="none" target-height="35.899963" target-width="18.600006" target-x="185" target-y="569.2"></path><path d="M 169.80 608.30 L 170.20 605.20 C 170.20 605.20 175.90 601.70 178.40 601.10 C 175.20 603.40 169.80 608.30 169.80 608.30 Z" fill="#fcc3c4" fill-rule="nonzero" group-id="2" node-id="141" stroke="none" target-height="7.200012" target-width="8.599991" target-x="169.8" target-y="601.1"></path><path d="M 406.90 497.90 L 420.60 477.10 L 412.50 503.10 C 412.50 503.10 413.60 495.60 411.60 494.80 C 409.80 494.90 406.90 497.90 406.90 497.90 Z" fill="#f26751" fill-rule="nonzero" group-id="2" node-id="143" stroke="none" target-height="26" target-width="13.700012" target-x="406.9" target-y="477.1"></path><path d="M 429.30 344.40 C 429.30 344.40 442.60 360.70 453.60 358.80 C 464.60 356.80 522.70 357.20 522.70 357.20 C 522.70 357.20 466.90 334.50 461.40 333.90 C 455.90 333.30 436.90 340.20 429.30 344.40 Z" fill="#f26751" fill-rule="nonzero" group-id="2" node-id="145" stroke="none" target-height="27.400024" target-width="93.400024" target-x="429.3" target-y="333.3"></path><path d="M 426.00 241.30 C 426.00 241.30 420.70 278.50 425.60 299.30 C 431.00 322.40 433.90 351.10 458.70 346.60 C 483.50 342.10 508.90 330.30 510.50 306.60 C 512.20 283.00 493.00 178.70 426.00 241.30 Z" fill="#ffd1d0" fill-rule="nonzero" group-id="2" node-id="147" stroke="none" target-height="172.40001" target-width="91.5" target-x="420.7" target-y="178.7"></path><path d="M 424.00 258.70 C 424.00 258.70 418.00 226.80 456.70 209.10 C 495.40 191.40 514.90 196.30 530.00 222.20 C 545.00 248.10 534.90 242.50 537.90 242.50 C 540.90 242.50 545.00 241.00 542.80 248.50 C 540.50 256.00 549.60 260.10 550.30 263.90 C 551.10 267.70 550.30 275.50 550.30 275.50 C 550.30 275.50 564.20 274.70 558.90 299.50 C 553.60 324.30 548.80 335.60 551.40 347.60 C 554.00 359.60 590.50 489.60 593.10 516.70 C 595.70 543.70 589.30 572.70 589.30 572.70 C 589.30 572.70 573.90 495.30 561.10 459.60 C 548.30 423.90 538.90 357.80 540.10 351.00 C 541.30 344.20 525.80 317.90 525.80 317.90 C 525.80 317.90 501.40 305.90 498.80 297.60 C 496.20 289.30 485.30 279.20 475.90 273.60 C 466.50 268.00 428.90 256.50 424.00 258.70 Z" fill="#0a0a0a" fill-rule="nonzero" group-id="2" node-id="149" stroke="none" target-height="381.30002" target-width="177.70001" target-x="418" target-y="191.4"></path><path d="M 508.20 286.50 C 508.20 286.50 518.00 279.40 520.20 284.60 C 522.40 289.80 524.30 302.30 520.20 306.80 C 516.10 311.30 504.40 312.40 504.40 312.40 L 499.50 312.40 C 499.50 312.50 494.30 295.90 508.20 286.50 Z" fill="#ffd1d0" fill-rule="nonzero" group-id="2" node-id="151" stroke="none" target-height="33.100006" target-width="30" target-x="494.3" target-y="279.4"></path><path d="M 714.70 127.60 C 714.70 127.60 719.50 141.50 721.10 143.70 C 716.90 141.10 711.20 128.90 711.20 128.90 L 712.60 129.40 L 714.70 127.60 Z" fill="#f26751" fill-rule="nonzero" group-id="2" node-id="153" stroke="none" target-height="16.099998" target-width="9.899963" target-x="711.2" target-y="127.6"></path><path d="M 746.40 160.40 C 746.40 160.40 739.10 161.70 733.70 157.70 C 736.40 163.80 744.80 166.40 744.80 166.40 C 744.80 166.40 744.10 163.20 744.40 162.30 C 744.60 161.20 746.40 160.40 746.40 160.40 Z" fill="#f26751" fill-rule="nonzero" group-id="2" node-id="155" stroke="none" target-height="8.699997" target-width="12.700012" target-x="733.7" target-y="157.7"></path><path d="M 621.80 217.50 L 626.00 224.10 L 616.60 223.10 L 621.30 220.70 Z" fill="#f26751" fill-rule="nonzero" group-id="2" node-id="157" stroke="none" target-height="6.600006" target-width="9.400024" target-x="616.6" target-y="217.5"></path><path d="M 726.10 118.10 L 728.30 118.70 L 726.70 120.80 Z" fill="#f26751" fill-rule="nonzero" group-id="2" node-id="159" stroke="none" target-height="2.7000046" target-width="2.2000122" target-x="726.1" target-y="118.1"></path><path d="M 741.20 79.00 C 741.20 79.00 729.40 80.80 727.10 84.70 C 724.90 88.60 724.90 93.60 724.90 93.60 L 741.20 79.00 Z" fill="#fcc3c4" fill-rule="nonzero" group-id="2" node-id="161" stroke="none" target-height="14.599998" target-width="16.299988" target-x="724.9" target-y="79"></path></g></svg>