<?xml version="1.0" standalone="no"?><!DOCTYPE svg PUBLIC "-//W3C//DTD SVG 1.1//EN" "http://www.w3.org/Graphics/SVG/1.1/DTD/svg11.dtd"><svg height="1024" node-id="1" sillyvg="true" template-height="1024" template-width="1024" version="1.1" viewBox="0 0 1024 1024" width="1024" xmlns="http://www.w3.org/2000/svg" xmlns:xlink="http://www.w3.org/1999/xlink"><defs node-id="55"></defs><g node-id="166"><g node-id="168"><g node-id="170"><g node-id="172"><g node-id="173"><path d="M 93.30 315.20 C 127.00 242.60 243.50 192.70 286.00 177.50 C 328.50 162.30 417.20 291.40 524.80 325.70 C 632.40 360.00 764.90 299.10 779.60 291.10 C 794.40 283.10 896.90 428.70 897.80 484.00 C 898.70 539.30 780.10 716.70 682.50 726.40 C 584.90 736.10 172.60 727.70 185.80 642.90 C 199.00 558.10 194.70 522.60 102.90 488.00 C 11.10 453.40 93.30 315.20 93.30 315.20 Z" fill="#dffdff" fill-rule="nonzero" group-id="1,3,5,7,8" node-id="69" stroke="none" target-height="573.8" target-width="887.60004" target-x="11.1" target-y="162.3"></path><path d="M 911.60 245.00 C 911.60 267.04 893.74 284.90 871.70 284.90 C 849.66 284.90 831.80 267.04 831.80 245.00 C 831.80 222.96 849.66 205.10 871.70 205.10 C 893.74 205.10 911.60 222.96 911.60 245.00 Z" fill="#dffdff" fill-rule="nonzero" group-id="1,3,5,7,8" node-id="71" stroke="none" target-height="79.79999" target-width="79.79999" target-x="831.8" target-y="205.1"></path><path d="M 960.00 333.70 C 960.00 344.30 951.40 352.90 940.80 352.90 C 930.20 352.90 921.60 344.30 921.60 333.70 C 921.60 323.10 930.20 314.50 940.80 314.50 C 951.40 314.50 960.00 323.10 960.00 333.70 Z" fill="#dffdff" fill-rule="nonzero" group-id="1,3,5,7,8" node-id="73" stroke="none" target-height="38.399994" target-width="38.400024" target-x="921.6" target-y="314.5"></path></g></g></g></g></g><g node-id="167"><path d="M 599.10 531.50 C 599.10 531.50 601.10 531.40 602.60 531.40 C 604.10 531.40 606.30 531.50 606.30 531.50 C 606.30 531.50 604.30 536.40 602.50 536.50 C 600.70 536.60 599.10 531.50 599.10 531.50 Z" fill="#008ca5" fill-rule="nonzero" group-id="2" node-id="82" stroke="none" target-height="5.199951" target-width="7.200012" target-x="599.1" target-y="531.4"></path><path d="M 599.10 531.50 C 599.10 531.50 622.70 565.10 639.60 603.30 C 657.70 644.20 659.20 647.50 633.80 673.60 C 608.40 699.70 557.20 760.90 556.00 779.50 C 556.00 779.50 537.60 781.20 534.10 779.20 C 518.10 770.00 512.80 777.30 512.80 777.30 C 512.80 777.30 541.80 726.50 544.40 715.70 C 547.00 705.00 560.60 681.70 567.60 674.00 C 579.80 660.60 591.20 656.70 587.60 643.60 C 584.50 632.10 553.40 598.00 546.00 591.50 C 538.60 585.10 512.80 554.80 512.80 554.80 C 512.80 554.80 565.30 527.40 574.00 525.10 C 582.70 522.90 599.10 531.50 599.10 531.50 Z" fill="#ffd1d0" fill-rule="nonzero" group-id="2" node-id="84" stroke="none" target-height="258.3" target-width="146.40002" target-x="512.8" target-y="522.9"></path><path d="M 519.20 765.80 L 520.90 762.80 C 520.90 762.80 527.80 770.70 535.50 770.90 C 543.20 771.10 560.50 766.80 560.50 766.80 L 558.90 770.40 C 558.90 770.40 543.30 776.30 532.60 773.70 C 522.00 771.10 519.20 765.80 519.20 765.80 Z" fill="#fcc3c4" fill-rule="nonzero" group-id="2" node-id="86" stroke="none" target-height="13.5" target-width="41.299988" target-x="519.2" target-y="762.8"></path><path d="M 515.30 762.80 C 515.30 762.80 527.20 773.30 539.60 773.00 C 552.00 772.70 562.50 768.30 562.50 768.30 C 562.50 768.30 558.60 790.40 562.50 798.70 C 566.40 807.00 604.40 838.10 610.20 844.50 C 624.60 860.20 611.60 880.10 610.20 882.60 C 608.80 885.10 594.70 892.00 566.90 873.50 C 539.00 855.00 537.90 837.90 525.80 835.10 C 513.70 832.30 490.50 827.90 493.00 811.10 C 495.40 794.30 515.30 762.80 515.30 762.80 Z" fill="#007990" fill-rule="nonzero" group-id="2" node-id="88" stroke="none" target-height="129.20001" target-width="134.09998" target-x="490.5" target-y="762.8"></path><path d="M 524.10 568.00 L 528.80 573.40 C 528.80 573.40 543.80 559.60 549.90 555.90 C 556.10 552.20 579.80 540.10 589.10 539.20 C 598.30 538.30 602.40 536.50 602.40 536.50 L 599.00 531.50 C 599.00 531.50 574.30 530.20 563.20 536.50 C 552.10 542.80 527.30 556.30 524.10 568.00 Z" fill="#fcc3c4" fill-rule="nonzero" group-id="2" node-id="90" stroke="none" target-height="43.200012" target-width="78.30005" target-x="524.1" target-y="530.2"></path><path d="M 511.30 574.30 C 511.30 574.30 518.40 577.70 523.40 575.30 C 528.40 572.90 528.90 573.40 528.90 573.40 L 524.20 568.00 L 511.30 574.30 Z" fill="#008ca5" fill-rule="nonzero" group-id="2" node-id="92" stroke="none" target-height="9.700012" target-width="17.600037" target-x="511.3" target-y="568"></path><path d="M 638.70 318.70 C 638.70 318.70 642.00 320.20 645.70 318.70 C 649.40 317.20 650.80 314.80 650.80 314.80 L 640.80 308.30 L 638.70 318.70 Z" fill="#5fc4df" fill-rule="nonzero" group-id="2" node-id="94" stroke="none" target-height="11.900024" target-width="12.099976" target-x="638.7" target-y="308.3"></path><path d="M 685.50 280.30 C 685.50 280.30 685.60 283.90 685.20 285.20 C 684.70 286.50 684.40 287.80 684.40 287.80 L 680.30 283.60 L 685.50 280.30 Z" fill="#5fc4df" fill-rule="nonzero" group-id="2" node-id="96" stroke="none" target-height="7.5" target-width="5.299988" target-x="680.3" target-y="280.3"></path><path d="M 318.30 304.50 C 318.30 304.50 317.20 307.90 319.00 310.20 C 320.50 312.10 320.90 313.10 321.40 313.80 C 323.00 313.10 325.50 307.00 325.50 307.00 C 325.50 307.00 320.00 304.50 318.30 304.50 Z" fill="#5fc4df" fill-rule="nonzero" group-id="2" node-id="98" stroke="none" target-height="9.299988" target-width="8.299988" target-x="317.2" target-y="304.5"></path><g node-id="169"><path d="M 158.00 434.50 C 158.80 433.50 173.00 410.10 181.40 400.20 C 176.30 388.90 172.00 379.60 167.40 367.80 C 165.50 367.70 135.40 361.20 123.40 360.80 C 159.00 372.20 158.00 434.50 158.00 434.50 Z" fill="#504a4a" fill-rule="nonzero" group-id="2,4" node-id="102" stroke="none" target-height="73.70001" target-width="57.999992" target-x="123.4" target-y="360.8"></path><g node-id="171"><path d="M 165.51 391.24 L 166.87 395.95 L 167.70 400.61 L 168.01 405.26 L 167.80 409.92 L 167.11 414.55 L 165.97 419.06 L 164.37 423.47 L 162.31 427.79 L 159.86 431.89 L 157.02 435.75 L 153.78 439.40 L 150.12 442.85 L 146.18 445.92 L 141.91 448.66 L 137.29 451.06 L 132.28 453.11 L 127.09 454.67 L 121.99 455.73 L 116.95 456.29 L 111.96 456.38 L 106.94 456.02 L 102.13 455.22 L 97.49 454.01 L 93.00 452.37 L 88.68 450.32 L 84.66 447.90 L 80.94 445.12 L 77.48 441.96 L 74.38 438.47 L 71.69 434.66 L 69.39 430.52 L 67.49 426.01 L 66.13 421.31 L 65.30 416.64 L 64.99 411.99 L 65.20 407.33 L 65.89 402.70 L 67.03 398.19 L 68.62 393.78 L 70.69 389.46 L 73.14 385.37 L 75.98 381.50 L 79.22 377.85 L 82.88 374.40 L 86.82 371.33 L 91.08 368.59 L 95.71 366.20 L 100.72 364.14 L 105.91 362.58 L 111.01 361.53 L 116.04 360.96 L 121.04 360.87 L 126.05 361.24 L 130.87 362.03 L 135.51 363.24 L 140.00 364.88 L 144.32 366.93 L 148.34 369.35 L 152.06 372.13 L 155.52 375.29 L 158.62 378.78 L 161.31 382.59 L 163.60 386.73 L 165.51 391.24 Z" fill="#413735" fill-rule="nonzero" group-id="2,4,6" node-id="106" stroke="none" target-height="95.51001" target-width="103.02" target-x="64.99" target-y="360.87"></path></g><path d="M 211.90 367.20 L 213.60 371.50 C 214.90 374.80 213.30 378.60 209.90 379.90 L 175.70 393.30 C 172.40 394.60 168.60 393.00 167.30 389.60 L 165.60 385.30 C 164.30 382.00 165.90 378.20 169.30 376.90 L 203.50 363.50 C 206.80 362.30 210.60 363.90 211.90 367.20 Z" fill="#504a4a" fill-rule="nonzero" group-id="2,4" node-id="109" stroke="none" target-height="32.30002" target-width="50.59999" target-x="164.3" target-y="362.3"></path></g><path d="M 330.10 295.80 C 330.10 295.80 324.50 315.70 313.00 321.60 C 301.40 327.40 235.00 352.50 224.90 355.00 C 214.80 357.50 170.20 349.00 162.40 350.40 C 158.30 351.10 144.70 360.60 151.70 366.10 C 158.70 371.70 184.80 382.90 185.90 388.90 C 187.00 394.90 173.00 396.00 180.00 402.00 C 195.00 415.00 226.50 380.60 233.70 380.00 C 240.90 379.40 313.30 372.10 328.20 365.40 C 343.10 358.70 367.60 330.90 367.60 330.90 C 367.60 330.90 354.30 291.60 330.10 295.80 Z" fill="#ffd1d0" fill-rule="nonzero" group-id="2" node-id="112" stroke="none" target-height="123.399994" target-width="222.90001" target-x="144.7" target-y="291.6"></path><path d="M 325.60 307.00 L 324.10 309.70 C 324.10 309.70 339.90 317.00 344.10 322.20 C 348.30 327.40 358.10 341.00 358.10 341.00 L 359.70 339.30 C 359.70 339.30 356.40 328.60 346.40 319.60 C 336.40 310.60 326.10 307.20 325.60 307.00 Z" fill="#fcc3c4" fill-rule="nonzero" group-id="2" node-id="114" stroke="none" target-height="34" target-width="35.600006" target-x="324.1" target-y="307"></path><path d="M 561.60 148.60 C 561.60 148.60 555.10 168.50 556.20 175.60 C 557.10 181.20 561.60 192.00 561.60 192.00 C 561.60 192.00 542.00 222.10 500.40 215.50 C 469.80 210.70 468.20 180.40 468.20 180.40 C 468.20 180.40 489.10 160.60 483.60 148.60" fill="#ffd1d0" fill-rule="nonzero" group-id="2" node-id="116" stroke="none" target-height="73.5" target-width="93.39996" target-x="468.2" target-y="148.6"></path><path d="M 484.50 150.60 C 484.50 150.60 483.30 191.50 525.10 188.00 C 541.60 186.60 561.70 148.70 561.70 148.70 L 484.50 150.60 Z" fill="#fcc3c4" fill-rule="nonzero" group-id="2" node-id="118" stroke="none" target-height="42.800003" target-width="78.400024" target-x="483.3" target-y="148.7"></path><path d="M 481.30 110.90 C 475.10 128.50 486.00 179.90 514.50 180.40 C 553.90 181.10 564.90 144.60 569.50 123.70 C 578.40 83.80 501.80 52.90 481.30 110.90 Z" fill="#ffd1d0" fill-rule="nonzero" group-id="2" node-id="120" stroke="none" target-height="128.20001" target-width="103.30002" target-x="475.1" target-y="52.9"></path><path d="M 567.70 124.10 C 567.70 124.10 572.10 119.00 575.00 122.40 C 577.90 125.80 577.20 134.30 572.80 138.00 C 568.40 141.70 568.90 143.10 567.70 146.00 C 566.50 148.80 561.40 150.00 561.70 146.00 C 561.90 142.00 567.70 124.10 567.70 124.10 Z" fill="#ffd1d0" fill-rule="nonzero" group-id="2" node-id="122" stroke="none" target-height="31" target-width="16.5" target-x="561.4" target-y="119"></path><path d="M 475.30 122.80 C 475.30 122.80 468.80 123.40 470.80 131.20 C 472.70 139.00 476.80 140.00 477.80 144.40 C 478.80 148.80 484.90 149.00 484.50 147.40 C 484.10 145.90 480.60 128.30 481.10 125.70 C 481.50 123.10 475.30 122.80 475.30 122.80 Z" fill="#ffd1d0" fill-rule="nonzero" group-id="2" node-id="124" stroke="none" target-height="26.199997" target-width="16.100006" target-x="468.8" target-y="122.8"></path><path d="M 471.90 97.60 C 471.90 97.60 468.20 95.40 475.80 78.90 C 480.70 68.10 484.20 74.10 489.30 67.30 C 494.50 60.50 512.80 61.00 514.40 62.00 C 516.00 63.00 532.50 59.70 535.70 58.10 C 538.90 56.50 550.50 62.00 552.10 62.00 C 553.70 62.00 563.00 65.10 566.10 68.50 C 568.80 71.50 572.00 79.90 572.90 81.80 C 576.30 89.30 577.10 90.70 580.60 94.60 C 584.10 98.50 577.00 106.60 577.00 108.60 C 576.80 115.10 576.80 114.90 576.10 118.90 C 574.80 125.90 571.00 121.20 570.10 124.80 C 569.30 128.40 568.20 131.80 564.40 141.40 C 562.20 135.00 570.10 115.60 561.40 107.80 C 552.70 100.00 551.70 98.10 539.10 97.50 C 526.50 96.90 518.40 95.70 518.40 95.70 C 518.40 95.70 514.10 99.50 505.30 99.50 C 502.10 99.50 494.20 101.50 488.50 106.80 C 473.70 120.60 483.50 148.50 483.50 148.50 C 483.50 148.50 466.60 113.30 468.20 109.70 C 470.00 106.30 471.90 97.60 471.90 97.60 Z" fill="#191919" fill-rule="nonzero" group-id="2" node-id="126" stroke="none" target-height="92" target-width="117.49997" target-x="466.6" target-y="56.5"></path><path d="M 680.50 283.90 C 680.50 283.90 713.70 317.60 712.20 334.70 C 709.50 365.20 651.80 398.30 653.70 404.10 C 655.60 409.90 661.70 419.20 658.30 429.20 C 654.90 439.20 649.30 450.30 649.30 450.30 C 649.30 450.30 640.10 457.60 632.40 454.80 C 628.70 453.50 634.30 440.60 630.80 441.60 C 627.30 442.60 613.70 453.50 611.10 449.00 C 608.50 444.50 634.60 423.40 630.80 415.50 C 623.10 399.50 612.00 420.00 610.90 417.80 C 609.80 415.50 619.60 398.80 630.60 394.90 C 641.60 391.00 660.10 353.00 669.20 341.10 C 678.20 329.20 639.50 307.90 639.50 307.90 C 639.50 307.90 666.20 278.20 674.60 280.50 C 683.10 282.60 680.50 283.90 680.50 283.90 Z" fill="#ffd1d0" fill-rule="nonzero" group-id="2" node-id="128" stroke="none" target-height="179.4" target-width="105.20001" target-x="608.5" target-y="278.2"></path><path d="M 330.60 566.50 C 330.60 566.50 307.40 690.30 300.20 701.90 C 292.90 713.50 269.70 730.20 262.50 741.80 C 255.20 753.40 240.70 791.80 224.10 814.30 C 207.50 836.80 195.10 853.50 194.40 857.80 C 193.70 862.20 235.00 865.10 235.00 865.10 C 235.00 865.10 259.70 823.80 293.00 789.70 C 326.30 755.60 346.70 726.60 351.70 720.10 C 356.70 713.60 421.30 582.30 422.00 577.20 C 422.80 572.10 330.60 566.50 330.60 566.50 Z" fill="#ffd1d0" fill-rule="nonzero" group-id="2" node-id="130" stroke="none" target-height="298.59998" target-width="229.09999" target-x="193.7" target-y="566.5"></path><path d="M 384.80 397.60 C 384.80 397.60 362.60 422.70 352.40 466.20 C 342.20 509.70 327.70 554.00 324.10 556.10 C 320.50 558.30 324.10 564.80 324.10 564.80 C 324.10 564.80 398.80 583.70 409.70 585.80 C 420.60 588.00 437.30 586.50 435.80 575.60 C 434.30 564.70 467.00 531.40 471.30 531.40 C 475.70 531.40 506.80 568.40 511.20 574.20 C 515.60 580.00 547.50 543.00 571.40 536.50 C 595.30 530.00 606.20 531.40 606.20 531.40 C 606.20 531.40 556.80 451.80 556.80 430.70 C 542.30 419.40 408.30 408.20 384.80 397.60 Z" fill="#0095bd" fill-rule="nonzero" group-id="2" node-id="132" stroke="none" target-height="190.4" target-width="285.7" target-x="320.5" target-y="397.6"></path><path d="M 471.90 176.60 L 474.60 173.40 C 474.60 173.40 480.20 202.80 498.90 206.70 C 517.60 210.70 531.90 206.30 542.90 194.60 C 547.90 189.40 556.10 174.60 556.10 174.60 L 556.80 178.20 C 556.80 178.20 557.70 193.10 541.80 204.10 C 525.90 215.10 516.50 216.40 499.80 214.00 C 483.10 211.60 469.80 185.80 471.90 176.60 Z" fill="#fcc3c4" fill-rule="nonzero" group-id="2" node-id="134" stroke="none" target-height="43" target-width="87.900024" target-x="469.8" target-y="173.4"></path><path d="M 643.60 310.00 C 643.60 310.00 654.40 296.00 660.70 292.50 C 667.00 289.00 680.00 283.30 680.00 283.30 L 684.30 287.70 C 684.30 287.70 667.60 295.70 665.20 297.70 C 662.80 299.70 650.80 314.60 650.80 314.60 L 643.60 310.00 Z" fill="#fcc3c4" fill-rule="nonzero" group-id="2" node-id="136" stroke="none" target-height="31.300018" target-width="40.700012" target-x="643.6" target-y="283.3"></path><path d="M 468.50 533.00 L 473.00 509.90 L 477.00 535.60 C 477.00 535.60 473.90 531.80 471.40 531.50 C 468.80 531.20 468.50 533.00 468.50 533.00 Z" fill="#008fb0" fill-rule="nonzero" group-id="2" node-id="138" stroke="none" target-height="25.699982" target-width="8.5" target-x="468.5" target-y="509.9"></path><path d="M 361.90 344.80 C 361.90 344.80 360.60 345.60 358.60 345.60 C 356.60 345.60 354.70 344.70 354.70 344.70 L 359.90 339.40 C 359.80 339.40 362.10 343.40 361.90 344.80 Z" fill="#5fc4df" fill-rule="nonzero" group-id="2" node-id="140" stroke="none" target-height="6.200012" target-width="7.399994" target-x="354.7" target-y="339.4"></path><path d="M 378.10 406.20 L 371.00 418.10 C 371.00 418.10 414.50 429.90 439.90 435.10 C 465.30 440.30 536.60 445.30 544.50 443.30 C 552.40 441.30 558.40 439.20 558.40 439.20 L 557.30 434.90 C 557.30 434.90 500.00 430.10 462.30 422.20 C 424.60 414.30 378.10 406.20 378.10 406.20 Z" fill="#008fb0" fill-rule="nonzero" group-id="2" node-id="142" stroke="none" target-height="39.099976" target-width="187.40002" target-x="371" target-y="406.2"></path><path d="M 557.70 175.60 C 557.70 175.60 613.60 203.30 620.10 208.20 C 626.50 213.00 685.20 277.20 685.50 280.40 C 685.80 283.60 663.60 288.80 654.90 298.50 C 646.20 308.20 638.10 317.80 638.80 318.80 C 639.40 319.80 622.70 298.50 610.80 301.10 C 598.90 303.70 585.00 335.90 576.80 342.60 C 568.60 349.30 568.70 364.10 566.40 372.80 C 564.10 381.50 569.70 395.20 565.10 408.80 C 560.50 422.30 559.20 435.00 559.20 435.00 C 559.20 435.00 482.60 437.10 444.60 428.70 C 406.60 420.30 371.40 406.50 371.40 406.50 C 371.40 406.50 391.10 383.60 392.00 373.60 C 393.00 363.60 379.40 348.10 383.00 341.00 C 386.50 333.90 386.90 315.50 386.90 315.50 L 362.10 344.80 C 362.10 344.80 356.60 326.10 342.80 316.40 C 329.00 306.70 318.60 304.50 318.60 304.50 C 318.60 304.50 345.70 256.80 357.30 243.00 C 368.90 229.20 389.20 205.30 405.60 196.90 C 422.00 188.50 472.00 175.60 472.00 175.60 C 472.00 175.60 474.20 206.20 506.40 211.40 C 538.50 216.50 554.60 187.20 557.70 175.60 Z" fill="#7dd4fa" fill-rule="nonzero" group-id="2" node-id="144" stroke="none" target-height="261.5" target-width="367.19998" target-x="318.6" target-y="175.6"></path><path d="M 607.90 301.90 C 607.90 301.90 612.60 279.90 610.60 275.30 C 608.60 270.70 623.20 304.50 623.20 304.50 C 623.20 304.50 616.30 301.20 613.50 301.10 C 610.70 301.00 607.90 301.90 607.90 301.90 Z" fill="#6ccef0" fill-rule="nonzero" group-id="2" node-id="146" stroke="none" target-height="33.799988" target-width="15.299988" target-x="607.9" target-y="270.7"></path><path d="M 381.80 318.20 L 396.90 288.80 L 386.30 323.20 L 386.30 316.90 L 381.80 321.20 Z" fill="#6ccef0" fill-rule="nonzero" group-id="2" node-id="148" stroke="none" target-height="34.400024" target-width="15.100006" target-x="381.8" target-y="288.8"></path><path d="M 324.10 564.80 C 324.10 564.80 326.40 569.30 327.30 570.30 C 328.30 571.30 329.60 571.50 329.60 571.50 L 330.60 566.40 L 324.10 564.80 Z" fill="#008ca5" fill-rule="nonzero" group-id="2" node-id="150" stroke="none" target-height="6.700012" target-width="6.5" target-x="324.1" target-y="564.8"></path><path d="M 330.60 566.50 L 329.60 571.60 L 415.60 591.90 L 418.00 586.70 C 418.00 586.70 353.90 567.80 346.40 567.30 C 338.80 566.80 330.60 566.50 330.60 566.50 Z" fill="#fcc3c4" fill-rule="nonzero" group-id="2" node-id="152" stroke="none" target-height="25.400024" target-width="88.399994" target-x="329.6" target-y="566.5"></path><path d="M 668.80 331.30 L 675.20 336.10 L 669.20 340.90 C 669.20 340.90 670.50 338.30 670.50 336.10 C 670.60 333.90 668.80 331.30 668.80 331.30 Z" fill="#fcc3c4" fill-rule="nonzero" group-id="2" node-id="154" stroke="none" target-height="9.600006" target-width="6.4000244" target-x="668.8" target-y="331.3"></path><path d="M 371.20 406.30 C 371.20 406.30 370.90 409.60 371.80 411.30 C 372.70 413.00 373.60 413.40 373.60 413.40 L 376.80 408.40 L 371.20 406.30 Z" fill="#5fc4df" fill-rule="nonzero" group-id="2" node-id="156" stroke="none" target-height="7.100006" target-width="5.899994" target-x="370.9" target-y="406.3"></path><path d="M 201.80 844.90 L 204.30 841.30 C 204.30 841.30 219.10 839.40 225.20 841.30 C 231.30 843.20 244.70 849.90 244.70 849.90 L 242.90 852.60 C 242.90 852.60 230.60 846.60 224.50 846.20 C 218.30 845.80 201.80 844.90 201.80 844.90 Z" fill="#fcc3c4" fill-rule="nonzero" group-id="2" node-id="158" stroke="none" target-height="13.199951" target-width="42.899994" target-x="201.8" target-y="839.4"></path><path d="M 195.90 846.90 C 189.50 851.20 187.20 865.00 187.50 876.60 C 187.80 888.20 179.10 927.80 175.90 935.60 C 172.70 943.40 177.50 967.50 202.70 964.00 C 227.80 960.50 230.10 945.60 231.10 917.60 C 232.10 889.60 234.90 871.40 243.30 858.90 C 251.70 846.30 205.40 840.50 195.90 846.90 Z" fill="#007990" fill-rule="nonzero" group-id="2" node-id="160" stroke="none" target-height="127" target-width="79" target-x="172.7" target-y="840.5"></path><path d="M 586.10 639.90 L 594.50 643.00 L 585.40 657.10 C 585.40 657.10 587.40 653.40 588.20 648.50 C 588.40 646.40 586.10 639.90 586.10 639.90 Z" fill="#fcc3c4" fill-rule="nonzero" group-id="2" node-id="162" stroke="none" target-height="17.199951" target-width="9.099976" target-x="585.4" target-y="639.9"></path><path d="M 329.90 425.00 C 329.90 436.98 320.18 446.70 308.20 446.70 C 296.22 446.70 286.50 436.98 286.50 425.00 C 286.50 413.02 296.22 403.30 308.20 403.30 C 320.18 403.30 329.90 413.02 329.90 425.00 Z" fill="#ffe89f" fill-rule="nonzero" group-id="2" node-id="164" stroke="none" target-height="43.400024" target-width="43.399994" target-x="286.5" target-y="403.3"></path></g></svg>