<?xml version="1.0" standalone="no"?><!DOCTYPE svg PUBLIC "-//W3C//DTD SVG 1.1//EN" "http://www.w3.org/Graphics/SVG/1.1/DTD/svg11.dtd"><svg height="1024" node-id="1" sillyvg="true" template-height="1024" template-width="1024" version="1.1" viewBox="0 0 1024 1024" width="1024" xmlns="http://www.w3.org/2000/svg" xmlns:xlink="http://www.w3.org/1999/xlink"><defs node-id="41"></defs><g node-id="122"><g node-id="124"><g node-id="126"><g node-id="127"><g node-id="128"><g node-id="129"><path d="M 133.30 332.40 C 166.40 261.00 281.10 211.90 322.90 196.90 C 364.70 181.90 452.00 308.90 557.80 342.70 C 663.60 376.50 793.90 316.50 808.50 308.70 C 823.00 300.80 923.90 444.10 924.80 498.40 C 925.70 552.70 808.90 727.40 712.90 736.90 C 616.90 746.40 211.30 738.20 224.30 654.80 C 237.30 571.40 233.00 536.50 142.80 502.40 C 52.60 468.30 133.30 332.40 133.30 332.40 Z" fill="#dffdff" fill-rule="nonzero" group-id="1,3,5,6,7,8" node-id="57" stroke="none" target-height="564.5" target-width="873.10004" target-x="52.6" target-y="181.9"></path><path d="M 938.30 263.40 C 938.30 285.10 920.70 302.70 899.00 302.70 C 877.30 302.70 859.70 285.10 859.70 263.40 C 859.70 241.70 877.30 224.10 899.00 224.10 C 920.70 224.10 938.30 241.70 938.30 263.40 Z" fill="#dffdff" fill-rule="nonzero" group-id="1,3,5,6,7,8" node-id="59" stroke="none" target-height="78.600006" target-width="78.599976" target-x="859.7" target-y="224.1"></path><path d="M 985.90 350.60 C 985.90 361.04 977.44 369.50 967.00 369.50 C 956.56 369.50 948.10 361.04 948.10 350.60 C 948.10 340.16 956.56 331.70 967.00 331.70 C 977.44 331.70 985.90 340.16 985.90 350.60 Z" fill="#dffdff" fill-rule="nonzero" group-id="1,3,5,6,7,8" node-id="61" stroke="none" target-height="37.799988" target-width="37.80005" target-x="948.1" target-y="331.7"></path></g></g></g></g></g></g><g node-id="123"><path d="M 557.70 755.40 C 557.70 755.40 551.30 778.10 542.30 782.90 C 533.30 787.70 513.40 797.30 509.40 798.00 C 505.40 798.60 499.60 816.40 515.70 820.20 C 531.80 824.00 575.30 822.30 581.20 818.10 C 587.10 813.90 605.90 798.80 608.40 797.00 C 610.90 795.10 605.50 739.00 605.50 739.00 L 554.60 744.90 L 557.70 755.40 Z" fill="#cf73b0" fill-rule="nonzero" group-id="2" node-id="71" stroke="none" target-height="85" target-width="111.30002" target-x="499.6" target-y="739"></path><path d="M 487.90 604.70 C 487.90 604.70 458.70 562.10 408.60 590.80 C 358.50 619.50 403.70 671.60 418.00 684.90 C 432.40 698.20 518.20 781.40 527.40 784.90 C 536.60 788.40 580.20 785.70 582.50 779.20 C 584.80 772.70 602.30 792.80 608.40 773.40 C 614.50 754.00 580.80 653.60 487.90 604.70 Z" fill="#ffb6df" fill-rule="nonzero" group-id="2" node-id="73" stroke="none" target-height="230.70001" target-width="256" target-x="358.5" target-y="562.1"></path><path d="M 390.40 646.90 C 390.40 646.90 407.00 588.60 443.60 599.30 C 480.30 610.00 562.00 674.10 564.20 716.40 C 566.40 758.70 505.10 766.70 505.10 766.70 L 527.40 784.90 C 527.40 784.90 530.50 787.40 542.80 786.70 C 555.10 786.00 576.80 785.70 578.90 783.30 C 581.00 780.90 582.20 776.50 587.10 778.50 C 592.00 780.50 595.70 788.50 604.10 780.60 C 612.50 772.70 600.20 725.30 588.10 705.20 C 576.00 685.20 566.30 664.60 548.70 647.20 C 531.20 629.80 488.80 605.30 488.80 605.30 C 488.80 605.30 472.40 580.90 445.80 581.10 C 419.20 581.30 394.40 594.00 389.30 609.80 C 384.10 625.40 382.90 631.10 390.40 646.90 Z" fill="#f9b2dd" fill-rule="nonzero" group-id="2" node-id="75" stroke="none" target-height="207.59998" target-width="229.6" target-x="382.9" target-y="580.9"></path><path d="M 729.90 811.60 L 741.40 827.30 L 744.10 837.80 C 744.10 837.80 711.00 825.80 706.60 822.30 C 702.20 818.80 701.00 821.50 701.00 821.50 L 729.90 811.60 Z" fill="#ffd1d0" fill-rule="nonzero" group-id="2" node-id="77" stroke="none" target-height="26.200012" target-width="43.099976" target-x="701" target-y="811.6"></path><path d="M 658.30 826.00 C 658.30 826.00 638.50 851.40 630.70 856.10 C 622.90 860.80 612.80 867.10 611.60 874.90 C 610.30 882.70 625.40 886.50 628.90 887.80 C 632.40 889.10 690.40 886.90 701.40 883.40 C 712.40 879.90 731.80 874.90 742.80 874.00 C 753.80 873.10 754.40 857.10 753.20 847.30 C 751.90 837.60 740.30 826.00 740.30 826.00 C 740.30 826.00 745.30 838.60 735.00 834.50 C 724.70 830.40 708.30 821.00 702.40 818.80 C 696.30 816.60 658.30 826.00 658.30 826.00 Z" fill="#cf73b0" fill-rule="nonzero" group-id="2" node-id="79" stroke="none" target-height="72.5" target-width="144.10004" target-x="610.3" target-y="816.6"></path><path d="M 89.80 374.90 C 89.80 374.90 88.80 348.10 89.80 340.00 C 90.80 331.90 78.50 335.00 77.20 337.90 C 75.90 340.80 73.20 346.70 73.60 350.70 C 74.00 354.70 73.60 360.30 73.60 360.30 C 73.60 360.30 58.80 360.50 57.80 345.10 C 56.90 329.70 55.80 305.40 55.80 304.10 C 55.80 302.80 55.50 287.90 53.40 287.20 C 51.30 286.50 47.90 288.20 47.90 288.20 C 47.90 288.20 45.50 286.10 42.40 286.80 C 39.20 287.60 38.00 293.60 38.30 297.70 C 38.60 301.80 39.60 313.40 39.60 313.40 C 39.60 313.40 32.10 306.50 30.80 308.40 C 28.00 312.40 33.60 320.10 36.40 328.30 C 39.90 338.30 41.30 360.40 42.40 366.90 C 43.40 373.40 56.90 408.40 56.90 408.40 C 56.90 408.40 82.60 376.60 89.80 374.90 Z" fill="#ffd1d0" fill-rule="nonzero" group-id="2" node-id="81" stroke="none" target-height="122.29999" target-width="62.800003" target-x="28" target-y="286.1"></path><path d="M 105.60 385.10 L 89.80 374.80 C 89.80 374.80 67.10 376.20 59.90 390.90 C 52.70 405.70 61.40 419.10 61.40 419.10 L 81.50 435.90 L 105.60 385.10 Z" fill="#ffc3e8" fill-rule="nonzero" group-id="2" node-id="83" stroke="none" target-height="61.100006" target-width="52.899998" target-x="52.7" target-y="374.8"></path><path d="M 660.60 555.40 C 660.60 555.40 560.80 573.30 555.10 603.40 C 549.50 633.50 595.60 780.40 598.40 788.90 C 601.20 797.40 621.40 834.50 621.40 834.50 L 642.00 834.50 C 642.00 834.50 740.50 813.20 741.30 814.40 C 742.10 815.60 731.60 788.50 731.20 777.60 C 730.80 766.70 718.60 752.50 712.80 743.70 C 707.00 734.90 682.20 676.70 682.20 676.70 C 682.20 676.70 729.20 672.90 741.30 660.40 C 753.40 647.80 775.10 630.30 770.50 604.70 C 765.90 579.30 740.70 531.10 660.60 555.40 Z" fill="#ffb6df" fill-rule="nonzero" group-id="2" node-id="85" stroke="none" target-height="303.40002" target-width="225.59998" target-x="549.5" target-y="531.1"></path><path d="M 562.30 384.30 C 562.30 384.30 575.70 375.10 589.10 377.60 C 602.50 380.10 615.00 384.70 621.70 380.70 C 628.40 376.70 731.30 314.00 741.40 305.60 C 751.40 297.20 773.20 290.10 779.50 279.70 C 785.80 269.30 792.70 260.00 792.70 260.00 C 792.70 260.00 823.90 272.30 826.80 273.70 C 829.70 275.10 849.00 307.30 845.20 311.90 C 841.40 316.50 833.10 337.90 832.60 345.20 C 832.20 352.50 836.80 373.50 818.00 390.40 C 799.20 407.30 785.80 428.70 776.60 435.80 C 767.40 442.90 746.90 446.70 744.00 451.70 C 741.10 456.70 727.30 465.90 724.70 467.20 C 722.10 468.50 705.90 472.70 704.00 473.70 C 702.10 474.70 687.90 492.70 687.90 492.70 L 562.30 384.30 Z" fill="#ffb6df" fill-rule="nonzero" group-id="2" node-id="87" stroke="none" target-height="232.70001" target-width="286.7" target-x="562.3" target-y="260"></path><path d="M 118.10 384.60 C 118.10 384.60 125.10 397.00 127.60 403.50 C 128.80 394.00 121.80 386.50 121.80 386.50 L 118.10 384.60 Z" fill="#f9b2dd" fill-rule="nonzero" group-id="2" node-id="89" stroke="none" target-height="18.899994" target-width="10.700005" target-x="118.1" target-y="384.6"></path><path d="M 806.70 265.60 C 806.70 265.60 808.00 244.10 814.90 245.40 C 821.80 246.70 820.20 259.30 823.10 260.00 C 825.90 260.70 836.30 258.50 841.60 253.50 C 846.90 248.50 860.00 231.10 863.10 223.80 C 866.90 215.00 869.20 209.90 872.00 210.10 C 878.40 210.60 876.10 215.40 876.10 215.40 C 876.10 215.40 882.40 213.50 884.60 216.70 C 886.80 219.80 883.90 223.70 883.90 223.70 C 883.90 223.70 888.30 226.70 887.90 228.50 C 886.40 234.10 862.70 257.30 860.50 259.90 C 858.30 262.50 855.80 272.20 850.80 277.00 C 845.80 281.80 836.00 287.00 836.00 287.00 L 806.70 265.60 Z" fill="#ffd1d0" fill-rule="nonzero" group-id="2" node-id="91" stroke="none" target-height="77.100006" target-width="81.599976" target-x="806.7" target-y="209.9"></path><path d="M 760.20 578.80 C 760.20 578.80 659.60 573.10 620.00 584.40 C 580.50 595.70 557.00 632.00 557.00 632.00 L 587.00 688.20 L 565.40 674.10 L 568.90 691.60 L 595.90 704.80 C 595.90 704.80 605.40 657.90 608.50 645.80 C 612.40 630.20 624.80 592.40 624.80 592.40 C 624.80 592.40 667.90 580.10 681.00 585.50 C 689.20 588.90 700.60 604.30 708.80 616.90 C 708.90 617.10 722.70 639.90 714.50 652.40 C 706.30 665.00 682.20 676.70 682.20 676.70 C 682.20 676.70 729.40 673.30 736.30 663.90 L 736.30 663.90 C 740.30 661.20 749.70 654.00 759.50 641.00 C 769.20 628.20 769.50 622.90 769.50 622.90 C 774.40 598.80 760.20 578.80 760.20 578.80 Z" fill="#f9b2dd" fill-rule="nonzero" group-id="2" node-id="93" stroke="none" target-height="131.70001" target-width="217.40002" target-x="557" target-y="573.1"></path><path d="M 390.00 397.00 C 390.00 397.00 361.10 400.90 345.20 403.80 C 329.30 406.70 279.10 402.10 271.10 403.80 C 263.10 405.50 235.90 401.40 228.80 400.90 C 221.70 400.40 205.40 396.90 198.20 397.00 C 191.10 397.10 179.40 395.40 176.90 393.80 C 174.40 392.10 167.70 390.50 160.20 389.90 C 152.70 389.20 143.50 387.10 138.00 388.00 C 132.60 388.80 131.70 388.00 125.90 387.80 C 120.00 387.60 114.20 380.90 110.00 382.10 C 105.80 383.40 97.40 387.10 97.40 387.10 C 97.40 387.10 77.70 418.10 79.80 428.50 C 81.90 439.00 81.50 446.90 89.40 453.60 C 97.40 460.30 96.10 469.10 101.50 482.10 C 106.90 495.10 119.50 501.80 122.40 511.40 C 125.30 521.00 231.20 541.50 300.30 540.30 C 369.40 539.00 393.60 525.70 400.70 527.30 C 407.80 529.00 453.40 583.00 453.40 583.00 C 453.40 583.00 514.50 647.90 534.20 660.00 C 553.90 672.10 590.70 696.40 590.70 696.40 C 590.70 696.40 606.20 561.20 638.00 563.70 C 669.80 566.20 695.30 582.10 705.80 598.40 C 716.30 614.70 723.00 619.70 723.00 619.70 L 754.00 589.10 C 754.00 589.10 779.50 604.20 781.60 610.90 C 783.70 617.60 792.50 635.20 792.50 635.20 C 792.50 635.20 783.30 577.90 763.20 556.90 C 743.10 535.90 731.40 527.60 729.30 521.30 C 727.20 515.00 723.40 505.40 716.30 501.60 C 709.20 497.80 694.10 493.20 694.10 493.20 C 694.10 493.20 573.00 384.20 559.10 379.60 C 545.30 375.00 535.70 374.90 535.70 374.90 L 390.00 397.00 Z" fill="#ffb6df" fill-rule="nonzero" group-id="2" node-id="95" stroke="none" target-height="321.50003" target-width="714.8" target-x="77.7" target-y="374.9"></path><path d="M 397.10 527.50 L 413.80 495.30 L 408.70 533.40 C 408.70 533.40 402.10 527.40 401.00 527.40 C 398.10 527.50 397.10 527.50 397.10 527.50 Z" fill="#f9b2dd" fill-rule="nonzero" group-id="2" node-id="97" stroke="none" target-height="38.100037" target-width="16.699982" target-x="397.1" target-y="495.3"></path><path d="M 696.80 479.20 C 696.80 479.20 636.80 479.50 630.40 488.40 C 624.10 497.20 616.60 513.30 616.60 513.30 C 616.60 513.30 630.00 487.90 639.80 486.90 C 649.60 485.90 692.00 486.40 692.00 486.40 L 696.80 479.20 Z" fill="#f9b2dd" fill-rule="nonzero" group-id="2" node-id="99" stroke="none" target-height="34.099976" target-width="80.20001" target-x="616.6" target-y="479.2"></path><path d="M 334.40 403.80 C 334.40 403.80 399.80 424.40 402.90 443.80 C 406.00 463.20 484.70 473.70 484.70 473.70 C 484.70 473.70 414.50 389.40 408.10 388.80 C 401.70 388.10 343.50 404.80 334.40 403.80 Z" fill="#f9b2dd" fill-rule="nonzero" group-id="2" node-id="101" stroke="none" target-height="85.600006" target-width="150.30002" target-x="334.4" target-y="388.1"></path><path d="M 437.60 423.70 C 437.60 423.70 450.50 447.90 464.90 459.50 C 479.30 471.10 484.70 472.10 484.70 472.10 L 513.60 441.40 L 437.60 423.70 Z" fill="#d980b8" fill-rule="nonzero" group-id="2" node-id="103" stroke="none" target-height="48.399994" target-width="75.99997" target-x="437.6" target-y="423.7"></path><g node-id="125"><path d="M 439.60 422.40 C 439.60 422.40 443.30 428.20 444.60 434.10 C 445.90 440.00 479.40 465.10 484.80 462.60 C 490.20 460.10 502.80 442.60 502.80 442.60 C 502.80 442.60 450.50 416.20 439.60 422.40 Z" fill="#fcc3c4" fill-rule="nonzero" group-id="2,4" node-id="107" stroke="none" target-height="48.899994" target-width="63.19998" target-x="439.6" target-y="416.2"></path><path d="M 464.50 341.60 C 451.60 360.00 424.30 391.50 442.00 419.80 C 459.70 448.00 505.70 451.60 520.50 445.00 C 535.70 438.20 541.50 403.10 532.90 361.10 C 524.60 320.30 475.90 325.40 464.50 341.60 Z" fill="#ffd1d0" fill-rule="nonzero" group-id="2,4" node-id="109" stroke="none" target-height="131.30002" target-width="117.20001" target-x="424.3" target-y="320.3"></path><path d="M 408.10 405.60 C 408.10 405.60 414.10 415.60 418.70 418.60 C 423.30 421.60 437.40 423.30 443.50 422.00 C 449.60 420.70 427.50 394.80 420.80 395.20 C 414.10 395.60 408.10 405.60 408.10 405.60 Z" fill="#ffd1d0" fill-rule="nonzero" group-id="2,4" node-id="111" stroke="none" target-height="28.5" target-width="41.5" target-x="408.1" target-y="394.8"></path><path d="M 439.20 393.10 L 441.70 415.10 C 441.70 415.10 428.50 401.30 412.80 404.10 C 397.10 406.90 372.60 389.30 370.70 354.20 C 368.80 319.00 393.30 288.30 411.50 278.20 C 429.70 268.10 468.60 269.40 494.40 288.90 C 520.10 308.40 528.00 340.30 528.00 347.80 C 516.10 338.50 507.60 347.20 505.10 347.90 C 502.60 348.50 493.50 356.40 494.40 360.50 C 495.30 364.60 486.90 365.80 480.30 364.90 C 473.70 364.00 468.70 365.50 467.70 368.00 C 466.80 370.50 460.80 375.50 460.20 377.40 C 459.60 379.30 459.90 383.70 457.70 384.30 C 455.50 384.90 443.30 389.00 440.80 390.30 C 438.30 391.50 439.20 393.10 439.20 393.10 Z" fill="#0a0a0a" fill-rule="nonzero" group-id="2,4" node-id="113" stroke="none" target-height="147" target-width="159.20001" target-x="368.8" target-y="268.1"></path></g><path d="M 92.70 455.90 C 92.70 455.90 99.00 447.50 99.80 439.50 C 100.30 449.40 95.30 460.80 95.30 460.80 L 92.70 455.90 Z" fill="#f9b2dd" fill-rule="nonzero" group-id="2" node-id="116" stroke="none" target-height="21.299988" target-width="7.600006" target-x="92.7" target-y="439.5"></path><path d="M 122.10 508.90 C 122.10 508.90 153.30 498.00 157.10 492.40 C 151.70 500.20 128.10 514.70 126.00 513.40 C 123.90 512.00 122.70 511.80 122.10 508.90 Z" fill="#f9b2dd" fill-rule="nonzero" group-id="2" node-id="118" stroke="none" target-height="22.300018" target-width="35.000008" target-x="122.1" target-y="492.4"></path><path d="M 624.80 378.90 C 624.80 378.90 615.00 395.60 614.20 401.10 C 613.40 406.50 610.90 382.10 610.90 382.10 C 610.90 382.10 614.00 383.50 617.90 382.10 C 621.80 380.70 624.80 378.90 624.80 378.90 Z" fill="#f9b2dd" fill-rule="nonzero" group-id="2" node-id="120" stroke="none" target-height="27.600006" target-width="13.899963" target-x="610.9" target-y="378.9"></path></g></svg>