<?xml version="1.0" standalone="no"?><!DOCTYPE svg PUBLIC "-//W3C//DTD SVG 1.1//EN" "http://www.w3.org/Graphics/SVG/1.1/DTD/svg11.dtd"><svg height="1024" node-id="1" sillyvg="true" template-height="1024" template-width="1024" version="1.1" viewBox="0 0 1024 1024" width="1024" xmlns="http://www.w3.org/2000/svg" xmlns:xlink="http://www.w3.org/1999/xlink"><defs node-id="58"></defs><g node-id="172"><g node-id="174"><g node-id="178"><g node-id="180"><path d="M 108.70 379.70 C 142.40 307.00 259.00 257.10 301.60 241.80 C 344.10 226.60 432.90 355.80 540.60 390.20 C 648.30 424.60 780.90 363.60 795.70 355.60 C 810.50 347.60 913.10 493.30 914.00 548.70 C 914.90 604.00 796.20 781.60 698.50 791.30 C 600.80 801.00 188.10 792.60 201.40 707.70 C 214.70 622.80 210.30 587.30 118.40 552.60 C 26.50 517.90 108.70 379.70 108.70 379.70 Z" fill="#dffdff" fill-rule="nonzero" group-id="1,3,7,9" node-id="70" stroke="none" target-height="574.4" target-width="888.4" target-x="26.5" target-y="226.6"></path><path d="M 927.80 309.40 C 927.80 331.49 909.89 349.40 887.80 349.40 C 865.71 349.40 847.80 331.49 847.80 309.40 C 847.80 287.31 865.71 269.40 887.80 269.40 C 909.89 269.40 927.80 287.31 927.80 309.40 Z" fill="#dffdff" fill-rule="nonzero" group-id="1,3,7,9" node-id="72" stroke="none" target-height="80" target-width="80" target-x="847.8" target-y="269.4"></path><path d="M 976.30 398.20 C 976.30 408.80 967.70 417.40 957.10 417.40 C 946.50 417.40 937.90 408.80 937.90 398.20 C 937.90 387.60 946.50 379.00 957.10 379.00 C 967.70 379.00 976.30 387.60 976.30 398.20 Z" fill="#dffdff" fill-rule="nonzero" group-id="1,3,7,9" node-id="74" stroke="none" target-height="38.399994" target-width="38.399963" target-x="937.9" target-y="379"></path></g></g></g></g><g node-id="173"><path d="M 631.50 317.90 L 630.30 320.00 L 629.30 324.50 L 634.00 325.30 Z" fill="#76cf7e" fill-rule="nonzero" group-id="2" node-id="82" stroke="none" target-height="7.399994" target-width="4.700012" target-x="629.3" target-y="317.9"></path><path d="M 570.80 655.20 C 570.80 655.20 568.30 661.60 564.70 660.40 C 561.10 659.20 566.30 638.40 566.30 638.40 C 566.30 638.40 571.20 644.70 570.80 655.20 Z" fill="#3d3d3d" fill-rule="nonzero" group-id="2" node-id="84" stroke="none" target-height="23.199951" target-width="10.100037" target-x="561.1" target-y="638.4"></path><path d="M 598.30 776.90 C 598.30 776.90 612.40 771.60 616.90 774.80 C 621.40 778.00 630.80 787.50 637.90 800.80 C 645.00 814.10 676.00 835.30 679.50 838.70 C 683.10 842.10 694.70 858.00 696.00 864.80 C 697.30 871.50 701.60 883.90 690.00 890.70 C 678.40 897.40 659.40 885.60 656.40 881.10 C 653.40 876.60 642.90 858.20 635.90 853.00 C 628.90 847.80 614.80 833.30 609.20 829.00 C 603.60 824.70 599.00 814.80 600.00 810.30 C 600.90 805.70 598.30 776.90 598.30 776.90 Z" fill="#5b6287" fill-rule="nonzero" group-id="2" node-id="86" stroke="none" target-height="125.80005" target-width="103.29999" target-x="598.3" target-y="771.6"></path><path d="M 597.90 771.40 C 597.90 771.40 606.50 783.80 608.80 784.50 C 611.00 785.20 624.10 792.40 630.10 800.20 C 636.20 808.10 638.40 817.90 632.00 824.70 C 625.60 831.40 614.70 833.20 606.90 824.20 C 602.90 819.50 594.70 806.50 592.50 798.10 C 590.40 790.30 594.00 787.10 594.90 784.40 C 596.80 778.90 597.90 771.40 597.90 771.40 Z" fill="#ffd1d0" fill-rule="nonzero" group-id="2" node-id="88" stroke="none" target-height="61.799988" target-width="48" target-x="590.4" target-y="771.4"></path><path d="M 374.70 240.40 C 374.70 240.40 383.30 239.30 385.60 239.80 C 387.80 240.30 394.20 240.00 394.20 240.00 C 394.20 240.00 458.90 237.10 460.70 236.90 C 462.50 236.70 469.10 238.40 469.10 238.40 C 469.10 238.40 455.00 246.40 449.20 249.20 C 443.40 252.00 390.50 257.80 385.10 255.90 C 379.70 254.00 374.70 240.40 374.70 240.40 Z" fill="#76cf7e" fill-rule="nonzero" group-id="2" node-id="90" stroke="none" target-height="21.09999" target-width="94.399994" target-x="374.7" target-y="236.7"></path><path d="M 630.10 324.50 C 630.10 324.50 645.20 326.70 660.20 337.20 C 675.20 347.70 714.60 389.30 717.20 394.60 C 719.80 399.80 729.20 404.70 730.70 407.30 C 732.20 409.90 736.10 419.50 741.10 427.30 C 746.10 435.10 758.60 452.00 759.80 453.50 C 761.00 455.00 770.00 475.60 770.90 479.70 C 771.80 483.80 776.80 494.30 772.10 495.30 C 767.50 496.30 764.00 479.40 763.10 478.20 C 762.20 477.00 762.90 491.60 761.70 496.10 C 760.60 500.60 760.80 510.10 757.20 510.50 C 753.60 510.90 751.50 501.80 751.50 501.80 C 751.50 501.80 750.10 517.90 745.80 515.30 C 741.40 512.70 744.10 500.80 743.20 495.10 C 742.30 489.40 738.60 475.60 730.20 467.90 C 721.80 460.20 720.00 459.80 720.00 459.80 C 720.00 459.80 720.70 473.70 715.60 474.70 C 710.50 475.70 710.60 468.80 710.90 463.60 C 711.20 458.40 705.90 449.90 708.40 444.40 C 710.90 438.90 711.80 430.80 710.80 429.80 C 709.80 428.80 671.90 400.60 666.90 397.90 C 661.90 395.30 642.80 384.30 638.30 380.80 C 633.80 377.30 612.80 361.40 609.90 359.80 C 606.70 358.10 603.70 354.10 603.70 354.10 L 630.10 324.50 Z" fill="#ffd1d0" fill-rule="nonzero" group-id="2" node-id="92" stroke="none" target-height="193.40002" target-width="173.09998" target-x="603.7" target-y="324.5"></path><path d="M 609.80 359.60 C 609.80 359.60 608.70 358.90 608.40 358.70 C 608.00 358.40 607.30 357.70 607.30 357.70 C 607.30 357.70 624.10 336.50 625.00 334.90 C 625.90 333.40 630.10 325.10 630.10 324.50 C 630.10 323.90 630.40 324.50 630.40 324.60 C 631.00 324.70 633.10 325.20 633.10 325.20 C 633.10 325.20 631.20 330.30 626.60 336.80 C 622.00 343.30 611.70 358.40 609.80 359.60 Z" fill="#fcc3c4" fill-rule="nonzero" group-id="2" node-id="94" stroke="none" target-height="35.700012" target-width="25.799988" target-x="607.3" target-y="323.9"></path><path d="M 281.50 255.90 C 281.50 255.90 249.30 258.90 235.90 249.70 C 222.60 240.50 225.20 240.50 210.60 234.30 C 196.00 228.10 152.10 208.60 150.00 206.60 C 147.90 204.50 145.10 203.00 145.10 203.00 C 145.10 203.00 146.80 193.60 145.10 191.20 C 143.40 188.80 124.10 181.50 124.10 181.50 L 102.40 190.50 C 102.40 190.50 68.80 198.60 65.70 201.60 C 62.60 204.60 62.30 210.00 72.30 208.70 C 82.20 207.40 101.20 204.00 101.70 204.00 C 102.20 204.00 73.80 215.40 76.80 220.30 C 79.80 225.20 107.50 213.20 107.50 213.20 C 107.50 213.20 95.30 228.00 97.00 230.80 C 98.70 233.60 118.40 220.50 118.40 220.50 C 118.40 220.50 120.30 234.90 122.90 237.40 C 125.50 239.80 131.00 227.80 131.90 228.60 C 132.80 229.30 163.40 256.70 176.10 263.70 C 188.80 270.60 229.50 298.60 242.30 302.70 C 255.00 306.80 278.50 318.70 278.50 318.70 C 278.50 318.70 300.60 315.50 298.70 282.30 C 297.10 253.50 281.50 255.90 281.50 255.90 Z" fill="#ffd1d0" fill-rule="nonzero" group-id="2" node-id="96" stroke="none" target-height="137.20001" target-width="238.3" target-x="62.3" target-y="181.5"></path><g node-id="175"><path d="M 449.80 139.80 C 449.80 139.80 460.80 149.00 460.00 162.20 C 459.60 168.70 462.70 190.00 460.00 195.60 C 457.30 201.20 452.00 210.70 452.00 210.70 L 452.90 152.50 L 449.80 139.80 Z" fill="#050505" fill-rule="nonzero" group-id="2,4" node-id="100" stroke="none" target-height="70.899994" target-width="12.900024" target-x="449.8" target-y="139.8"></path><path d="M 453.70 190.10 C 453.70 190.10 450.40 242.00 451.10 244.20 C 451.80 246.40 467.20 255.00 474.80 257.20 C 482.40 259.40 488.40 273.60 465.30 276.30 C 442.20 279.00 390.00 267.80 389.10 257.80 C 392.00 248.30 392.30 240.80 392.30 240.80 L 392.80 216.60 L 454.40 184.10 L 453.70 190.10 Z" fill="#ffd1d0" fill-rule="nonzero" group-id="2,4" node-id="102" stroke="none" target-height="94.899994" target-width="99.29999" target-x="389.1" target-y="184.1"></path><path d="M 453.70 190.10 L 392.70 224.10 C 392.70 224.10 407.20 241.80 428.50 237.50 C 433.20 236.50 439.30 235.30 449.70 231.10 C 449.00 242.90 442.60 251.60 425.60 259.10 C 416.40 263.10 390.90 251.00 390.90 251.00 L 389.80 255.80 C 389.80 255.80 409.40 274.50 426.20 269.80 C 442.90 265.10 453.10 246.00 453.10 246.00 L 451.70 244.80 L 453.30 202.50 L 453.30 202.50 C 453.80 195.40 453.70 190.10 453.70 190.10 Z" fill="#fcc3c4" fill-rule="nonzero" group-id="2,4" node-id="104" stroke="none" target-height="84.399994" target-width="64" target-x="389.8" target-y="190.1"></path><path d="M 389.60 126.30 C 389.60 126.30 363.40 128.20 368.10 170.70 C 371.70 202.90 389.60 233.30 413.50 231.00 C 437.40 228.60 459.70 204.00 453.10 168.40 C 446.50 132.80 423.50 115.20 389.60 126.30 Z" fill="#ffd1d0" fill-rule="nonzero" group-id="2,4" node-id="106" stroke="none" target-height="118.100006" target-width="96.30002" target-x="363.4" target-y="115.2"></path><path d="M 445.80 167.50 C 445.80 167.50 454.90 155.10 460.90 159.40 C 466.90 163.70 469.00 174.20 466.70 178.90 C 464.50 183.60 461.10 197.10 456.70 195.40 C 452.30 193.70 447.40 189.80 447.40 189.80 L 445.80 167.50 Z" fill="#ffd1d0" fill-rule="nonzero" group-id="2,4" node-id="108" stroke="none" target-height="42" target-width="23.200012" target-x="445.8" target-y="155.1"></path><path d="M 455.50 158.70 C 455.50 158.70 451.40 138.80 445.20 135.60 C 439.00 132.40 398.60 114.60 384.30 122.90 C 364.70 134.30 368.20 156.20 363.90 164.30 C 359.60 172.40 354.00 177.00 354.00 177.00 C 354.00 177.00 364.10 173.70 366.40 169.40 C 368.60 165.10 368.30 191.20 372.40 199.20 C 374.60 185.00 372.60 177.40 379.50 169.40 C 386.40 161.30 391.90 143.00 402.40 144.50 C 416.50 146.50 439.40 169.60 440.90 172.40 C 441.90 167.50 444.60 162.20 441.50 156.80 C 445.30 162.40 447.00 165.80 445.50 175.00 C 444.00 184.20 438.80 196.50 437.50 199.30 C 445.30 195.70 461.30 185.70 455.50 158.70 Z" fill="#050505" fill-rule="nonzero" group-id="2,4" node-id="110" stroke="none" target-height="84.700005" target-width="107.29999" target-x="354" target-y="114.6"></path><g node-id="179"><path d="M 412.10 102.10 C 412.10 102.10 388.10 104.80 380.90 108.80 C 373.70 112.80 366.30 115.70 366.30 115.70 C 366.30 115.70 376.60 115.90 379.30 116.60 C 394.30 120.90 436.70 135.40 442.60 139.60 C 449.60 144.60 458.00 151.30 458.00 151.30 C 458.00 151.30 469.10 146.40 465.80 135.90 C 456.90 113.40 433.90 104.10 412.10 102.10 Z" fill="#404750" fill-rule="nonzero" group-id="2,4,8" node-id="114" stroke="none" target-height="49.200005" target-width="102.80002" target-x="366.3" target-y="102.1"></path><path d="M 366.30 115.80 C 366.30 115.80 350.40 128.10 351.90 139.80 C 353.40 151.50 356.90 152.80 360.40 155.10 C 363.90 157.50 365.70 158.40 365.70 158.40 C 365.70 158.40 368.10 137.40 378.50 130.30 C 386.40 124.90 404.60 125.40 409.20 126.90 C 413.90 128.40 376.60 113.00 366.30 115.80 Z" fill="#1d2329" fill-rule="nonzero" group-id="2,4,8" node-id="116" stroke="none" target-height="45.399994" target-width="63.5" target-x="350.4" target-y="113"></path><path d="M 366.30 115.80 C 366.30 115.80 375.70 114.80 387.30 122.10 C 398.90 129.40 412.40 137.90 420.90 137.90 C 429.30 137.90 442.70 139.80 442.70 139.80 C 442.70 139.80 409.30 115.80 395.10 114.30 C 380.70 112.80 366.30 115.80 366.30 115.80 Z" fill="#2a333b" fill-rule="nonzero" group-id="2,4,8" node-id="118" stroke="none" target-height="27" target-width="76.400024" target-x="366.3" target-y="112.8"></path></g></g><path d="M 280.50 256.00 L 282.70 255.90 C 282.70 255.90 286.10 257.30 287.80 263.90 C 289.50 270.50 292.50 278.60 292.10 293.10 C 291.70 307.60 288.70 311.90 284.20 314.90 C 279.70 317.90 277.20 317.90 277.20 317.90 L 275.50 317.10 C 275.50 317.10 279.20 317.20 283.40 310.60 C 287.60 304.00 289.80 284.20 287.90 276.20 C 286.00 268.10 284.00 257.70 280.50 256.00 Z" fill="#fcc3c4" fill-rule="nonzero" group-id="2" node-id="122" stroke="none" target-height="62" target-width="17" target-x="275.5" target-y="255.9"></path><path d="M 456.70 241.70 C 456.70 241.70 461.30 237.10 469.00 238.40 C 476.70 239.70 500.70 247.90 516.20 251.40 C 531.70 254.90 557.90 273.10 566.70 278.90 C 575.40 284.60 601.70 301.60 606.20 302.90 C 610.70 304.10 629.20 313.90 631.40 317.90 C 628.40 324.50 633.10 324.40 626.40 333.90 C 619.70 343.40 606.90 359.10 606.90 359.10 C 606.90 359.10 571.70 339.90 562.90 340.40 C 554.20 340.90 543.70 345.90 544.70 361.60 C 545.70 377.30 539.20 434.30 539.50 438.10 C 539.70 441.80 546.00 439.30 550.20 446.10 C 554.40 452.80 565.90 476.60 569.40 491.10 C 572.90 505.60 576.40 513.60 576.40 513.60 C 576.40 513.60 567.70 501.10 557.20 503.10 C 546.70 505.10 544.20 511.30 534.00 513.60 C 523.80 515.80 516.30 519.30 510.80 527.60 C 505.30 535.80 491.10 545.30 487.80 558.60 C 484.60 571.80 481.30 577.80 466.10 583.30 C 450.90 588.80 433.10 590.50 417.40 587.80 C 401.70 585.10 391.20 573.30 379.40 570.30 C 367.70 567.30 374.20 496.60 358.40 451.80 C 342.70 407.10 336.70 374.60 334.20 367.60 C 331.70 360.60 294.40 327.00 287.00 323.60 C 279.20 320.00 277.00 317.90 277.00 317.90 C 277.00 317.90 292.00 315.80 291.70 295.10 C 291.50 274.40 286.80 258.10 281.60 255.90 C 286.70 252.50 309.50 254.90 319.20 248.40 C 328.90 241.90 353.40 250.00 364.90 244.10 C 376.40 238.20 375.60 241.20 375.60 241.20 C 375.60 241.20 397.30 263.40 415.10 265.90 C 432.80 268.40 456.70 241.70 456.70 241.70 Z" fill="#7bdc85" fill-rule="nonzero" group-id="2" node-id="124" stroke="none" target-height="353.4" target-width="356.09998" target-x="277" target-y="237.1"></path><path d="M 376.10 567.10 C 376.10 567.10 383.30 594.80 416.30 622.30 C 449.30 649.80 466.80 693.80 474.30 706.30 C 481.80 718.80 504.30 733.30 512.30 749.30 C 520.30 765.30 541.80 781.80 541.80 781.80 L 537.80 661.30 L 482.30 572.70 C 482.30 572.70 471.80 584.50 441.80 588.70 C 411.80 592.80 376.10 567.10 376.10 567.10 Z" fill="#494949" fill-rule="nonzero" group-id="2" node-id="126" stroke="none" target-height="214.70001" target-width="165.69998" target-x="376.1" target-y="567.1"></path><path d="M 382.40 581.80 C 382.40 581.80 414.30 595.80 430.80 596.30 C 447.30 596.80 470.80 579.80 475.30 586.80 C 479.80 593.80 479.80 659.10 483.80 674.40 C 487.80 689.70 496.80 712.70 502.30 719.70 C 507.80 726.70 474.30 706.20 474.30 706.20 C 474.30 706.20 481.00 716.10 487.60 721.20 C 494.20 726.20 500.60 733.70 501.90 735.20 C 503.20 736.60 510.00 743.60 513.10 750.90 C 516.30 758.20 528.60 770.20 528.60 770.20 C 528.60 770.20 523.50 724.70 519.10 718.60 C 514.70 712.50 499.90 691.00 498.10 671.50 C 496.40 652.00 495.00 621.80 496.00 616.30 C 497.00 610.80 483.80 571.20 483.80 571.20 C 483.80 571.20 476.60 578.10 464.40 581.60 C 452.30 585.10 376.10 567.30 376.10 567.30 C 376.10 567.30 380.50 578.30 382.40 581.80 Z" fill="#3d3d3d" fill-rule="nonzero" group-id="2" node-id="128" stroke="none" target-height="202.90002" target-width="152.49997" target-x="376.1" target-y="567.3"></path><path d="M 491.40 639.40 C 491.40 639.40 493.10 634.70 494.90 634.60 C 496.60 634.50 494.50 642.50 494.50 642.50 C 494.50 642.50 492.00 641.10 491.40 639.40 Z" fill="#303030" fill-rule="nonzero" group-id="2" node-id="130" stroke="none" target-height="8" target-width="5.200012" target-x="491.4" target-y="634.5"></path><path d="M 615.60 829.90 C 615.60 829.90 610.60 826.40 608.90 823.20 C 607.30 820.30 602.70 804.30 601.80 801.30 C 601.70 798.30 601.60 795.70 601.70 794.10 C 601.90 788.50 600.70 775.30 600.70 775.30 L 597.90 771.40 C 597.90 771.40 598.40 781.00 599.20 785.60 C 599.90 790.30 599.10 812.90 599.10 812.90 L 602.50 818.20 C 602.60 818.30 603.90 821.20 607.90 825.30 C 612.00 829.40 615.60 829.90 615.60 829.90 Z" fill="#fcc3c4" fill-rule="nonzero" group-id="2" node-id="132" stroke="none" target-height="58.5" target-width="17.699951" target-x="597.9" target-y="771.4"></path><path d="M 237.40 171.40 C 237.40 172.20 237.40 174.20 237.40 175.50 C 233.50 187.60 199.70 195.40 159.20 195.40 C 119.70 195.40 86.20 186.90 81.00 175.20 C 81.00 173.70 81.00 172.50 81.00 171.30 C 81.00 158.00 116.00 147.30 159.20 147.30 C 202.40 147.30 237.40 158.20 237.40 171.40 Z" fill="#d3d75c" fill-rule="nonzero" group-id="2,5" node-id="136" stroke="none" target-height="48.09999" target-width="156.4" target-x="81" target-y="147.3"></path><path d="M 237.30 175.30 C 237.30 186.46 202.29 195.50 159.10 195.50 C 115.91 195.50 80.90 186.46 80.90 175.30 C 80.90 164.14 115.91 155.10 159.10 155.10 C 202.29 155.10 237.30 164.14 237.30 175.30 Z" fill="#a8af20" fill-rule="nonzero" group-id="2,5" node-id="138" stroke="none" target-height="40.399994" target-width="156.4" target-x="80.9" target-y="155.1"></path><path d="M 568.10 341.20 C 568.10 341.20 546.30 331.40 537.80 333.40 C 529.30 335.40 544.70 347.00 544.80 358.40 C 545.00 355.50 546.40 347.90 550.70 345.00 C 559.20 339.00 568.10 341.20 568.10 341.20 Z" fill="#76d47f" fill-rule="nonzero" group-id="2" node-id="141" stroke="none" target-height="27" target-width="38.799988" target-x="529.3" target-y="331.4"></path><path d="M 539.60 438.10 C 539.60 438.10 504.20 450.80 499.70 458.00 C 495.20 465.10 484.30 482.00 484.30 482.00 C 484.30 482.00 503.00 456.90 518.00 451.30 C 533.00 445.70 546.80 442.60 546.80 442.60 C 546.80 442.60 543.30 440.70 540.90 440.10 C 540.50 439.90 539.60 438.10 539.60 438.10 Z" fill="#76d47f" fill-rule="nonzero" group-id="2" node-id="143" stroke="none" target-height="43.899994" target-width="62.5" target-x="484.3" target-y="438.1"></path><path d="M 323.50 354.50 C 323.50 354.50 353.40 346.30 354.80 345.70 C 357.80 344.30 331.60 363.20 331.60 363.20 L 323.50 354.50 Z" fill="#76d47f" fill-rule="nonzero" group-id="2" node-id="145" stroke="none" target-height="18.900024" target-width="34.299988" target-x="323.5" target-y="344.3"></path><path d="M 482.80 543.20 L 470.00 579.50 C 470.00 579.50 480.00 574.50 482.50 572.20 C 482.70 562.40 482.80 543.20 482.80 543.20 Z" fill="#76d47f" fill-rule="nonzero" group-id="2" node-id="147" stroke="none" target-height="36.299988" target-width="12.799988" target-x="470" target-y="543.2"></path><path d="M 494.10 628.80 C 494.10 628.80 494.60 674.80 501.10 691.80 C 507.60 708.80 521.10 719.80 523.60 740.80 C 526.10 761.80 537.10 807.30 545.60 823.30 C 554.10 839.30 557.60 879.50 556.60 882.00 C 555.60 884.50 563.20 883.00 573.00 890.80 C 582.70 898.50 600.20 911.10 600.20 911.10 C 600.20 911.10 595.40 887.40 596.20 873.60 C 597.10 858.00 600.80 789.00 598.80 774.70 C 596.80 760.50 580.30 704.50 573.60 693.50 C 566.90 682.50 564.90 670.50 565.60 660.30 C 566.30 650.10 566.30 626.60 566.30 626.60 C 566.30 626.60 553.10 608.60 531.10 608.90 C 509.10 609.10 499.80 617.30 494.10 628.80 Z" fill="#ffd1d0" fill-rule="nonzero" group-id="2,6" node-id="151" stroke="none" target-height="302.5" target-width="106.69998" target-x="494.1" target-y="608.6"></path><path d="M 494.50 642.50 C 494.50 642.50 494.90 638.70 498.70 635.40 C 502.50 632.10 511.90 622.60 524.00 621.60 C 536.10 620.60 552.10 629.10 555.50 632.00 C 558.90 635.00 566.00 646.30 566.00 646.30 L 566.20 640.20 C 566.20 640.20 561.50 630.70 552.90 625.40 C 544.30 620.10 531.10 618.10 523.60 617.70 C 516.10 617.30 506.00 622.50 500.60 625.90 C 495.30 629.30 494.20 633.40 494.20 633.40 L 494.50 642.50 Z" fill="#fcc3c4" fill-rule="nonzero" group-id="2,6" node-id="153" stroke="none" target-height="29" target-width="72" target-x="494.2" target-y="617.3"></path><path d="M 556.70 883.90 C 556.70 883.90 556.80 880.20 556.70 878.40 C 556.60 876.60 582.40 885.40 588.30 889.00 C 594.20 892.60 598.00 898.60 598.00 898.60 C 598.00 898.60 598.50 902.40 598.70 903.60 C 598.90 904.80 599.40 908.10 599.40 908.10 C 599.40 908.10 583.00 891.80 577.60 890.20 C 572.20 888.50 556.70 883.90 556.70 883.90 Z" fill="#fcc3c4" fill-rule="nonzero" group-id="2,6" node-id="155" stroke="none" target-height="31.5" target-width="42.80005" target-x="556.6" target-y="876.6"></path><path d="M 531.80 889.50 C 531.80 889.50 540.60 880.10 556.70 883.90 C 572.80 887.60 587.40 891.60 596.80 903.80 C 602.80 911.60 607.10 931.90 608.70 933.80 C 610.30 935.70 612.30 951.80 611.00 955.00 C 608.20 962.20 586.90 968.20 581.10 959.20 C 575.30 950.20 570.60 946.30 567.50 937.50 C 564.50 929.00 549.10 939.00 535.30 917.30 C 521.40 895.50 531.80 889.50 531.80 889.50 Z" fill="#5b6287" fill-rule="nonzero" group-id="2,6" node-id="157" stroke="none" target-height="88.10004" target-width="90.89996" target-x="521.4" target-y="880.1"></path><path d="M 576.40 511.70 C 576.40 511.70 574.20 491.70 545.30 495.10 C 516.40 498.50 483.80 533.30 482.70 543.80 C 481.60 554.30 482.70 577.50 482.70 577.50 C 482.70 577.50 489.80 618.40 489.10 624.70 C 488.40 631.10 491.50 639.30 491.50 639.30 C 491.50 639.30 503.40 616.40 527.40 617.60 C 551.40 618.70 561.10 632.20 564.50 637.50 C 567.90 642.70 569.00 644.30 569.70 646.90 C 570.30 648.90 570.80 655.10 570.80 655.10 C 570.80 655.10 582.40 585.70 580.90 563.60 C 579.40 541.50 576.40 511.70 576.40 511.70 Z" fill="#494949" fill-rule="nonzero" group-id="2,6" node-id="159" stroke="none" target-height="163.39996" target-width="100.80002" target-x="481.6" target-y="491.7"></path><path d="M 719.90 459.70 L 718.40 450.10 L 721.60 460.70 Z" fill="#fcc3c4" fill-rule="nonzero" group-id="2" node-id="162" stroke="none" target-height="10.600006" target-width="3.1999512" target-x="718.4" target-y="450.1"></path><path d="M 751.50 501.80 C 751.50 501.80 752.00 484.10 749.80 478.30 C 750.70 487.00 751.50 501.80 751.50 501.80 Z" fill="#fcc3c4" fill-rule="nonzero" group-id="2" node-id="164" stroke="none" target-height="23.5" target-width="2.2000122" target-x="749.8" target-y="478.3"></path><path d="M 112.80 198.90 C 112.80 198.90 116.40 207.10 118.80 210.10 C 121.20 213.10 128.00 213.80 128.00 213.80 L 112.80 198.90 Z" fill="#fcc3c4" fill-rule="nonzero" group-id="2" node-id="166" stroke="none" target-height="14.900009" target-width="15.199997" target-x="112.8" target-y="198.9"></path><path d="M 565.30 934.70 L 582.00 921.80 L 567.60 937.50 Z" fill="#555e7f" fill-rule="nonzero" group-id="2" node-id="168" stroke="none" target-height="15.700012" target-width="16.700012" target-x="565.3" target-y="921.8"></path><path d="M 574.20 505.60 C 573.30 503.70 569.80 498.70 562.10 496.20 C 554.40 493.70 545.70 493.90 534.60 497.70 C 523.50 501.40 512.10 508.80 502.00 518.30 C 491.90 527.80 485.40 536.00 483.80 540.50 C 483.60 541.00 483.50 541.50 483.30 542.00 C 483.10 542.40 483.00 542.70 482.80 543.20 C 481.80 549.90 482.30 573.70 482.60 575.10 C 482.90 569.90 488.70 540.20 488.70 540.10 C 494.60 527.20 512.60 515.20 517.50 510.30 C 524.00 503.70 543.10 497.30 555.50 498.20 C 567.90 499.10 576.00 509.80 576.00 509.80 C 576.00 509.80 575.10 507.40 574.20 505.60 Z" fill="#3d3d3d" fill-rule="nonzero" group-id="2" node-id="170" stroke="none" target-height="81.39996" target-width="94.20001" target-x="481.8" target-y="493.7"></path></g></svg>