<?xml version="1.0" standalone="no"?><!DOCTYPE svg PUBLIC "-//W3C//DTD SVG 1.1//EN" "http://www.w3.org/Graphics/SVG/1.1/DTD/svg11.dtd"><svg height="1024" node-id="1" sillyvg="true" template-height="1024" template-width="1024" version="1.1" viewBox="0 0 1024 1024" width="1024" xmlns="http://www.w3.org/2000/svg" xmlns:xlink="http://www.w3.org/1999/xlink"><defs node-id="66"></defs><g node-id="208"><g node-id="210"><g node-id="217"><path d="M 96.40 383.90 C 130.60 310.10 249.00 259.50 292.20 244.00 C 335.40 228.50 425.50 359.70 534.80 394.60 C 644.10 429.50 778.70 367.60 793.60 359.50 C 808.50 351.40 912.80 499.30 913.70 555.40 C 914.60 611.50 794.10 791.80 695.00 801.60 C 595.90 811.40 177.00 802.90 190.50 716.80 C 203.90 630.70 199.50 594.60 106.30 559.40 C 13.10 524.20 96.40 383.90 96.40 383.90 Z" fill="#dffdff" fill-rule="nonzero" group-id="1,3,10" node-id="76" stroke="none" target-height="582.9" target-width="901.5" target-x="13.1" target-y="228.5"></path><path d="M 927.50 312.60 C 927.50 334.97 909.37 353.10 887.00 353.10 C 864.63 353.10 846.50 334.97 846.50 312.60 C 846.50 290.23 864.63 272.10 887.00 272.10 C 909.37 272.10 927.50 290.23 927.50 312.60 Z" fill="#dffdff" fill-rule="nonzero" group-id="1,3,10" node-id="78" stroke="none" target-height="81" target-width="81" target-x="846.5" target-y="272.1"></path><path d="M 976.80 402.60 C 976.80 413.37 968.07 422.10 957.30 422.10 C 946.53 422.10 937.80 413.37 937.80 402.60 C 937.80 391.83 946.53 383.10 957.30 383.10 C 968.07 383.10 976.80 391.83 976.80 402.60 Z" fill="#dffdff" fill-rule="nonzero" group-id="1,3,10" node-id="80" stroke="none" target-height="39" target-width="39" target-x="937.8" target-y="383.1"></path></g></g></g><g node-id="209"><path d="M 652.80 492.50 C 652.80 492.50 652.30 499.20 649.40 500.30 C 647.80 500.90 642.90 494.00 642.90 494.00 L 652.80 492.50 Z" fill="#004b3d" fill-rule="nonzero" group-id="2" node-id="87" stroke="none" target-height="8.399994" target-width="9.899963" target-x="642.9" target-y="492.5"></path><g node-id="211"><path d="M 610.40 506.00 C 610.40 506.00 626.80 520.90 632.20 526.60 C 637.50 532.30 643.30 544.90 642.90 548.10 C 642.50 551.30 651.90 552.60 656.50 540.00 C 661.00 527.40 666.00 516.00 666.00 516.00 L 644.20 495.30 C 644.20 495.30 626.50 494.10 618.30 497.30 C 610.00 500.60 610.40 506.00 610.40 506.00 Z" fill="#ffd1d0" fill-rule="nonzero" group-id="2,4" node-id="91" stroke="none" target-height="58.49997" target-width="56" target-x="610" target-y="494.1"></path><path d="M 662.10 512.40 C 662.10 512.40 663.10 519.00 655.90 529.00 C 650.30 536.80 638.90 536.60 638.90 536.60 C 638.90 536.60 640.10 538.30 640.60 540.40 C 641.20 542.50 641.20 542.50 641.20 542.50 C 641.20 542.50 651.60 544.00 656.50 537.10 C 661.40 530.20 665.30 522.90 662.10 512.40 Z" fill="#fcc3c4" fill-rule="nonzero" group-id="2,4" node-id="93" stroke="none" target-height="31.599976" target-width="26.399963" target-x="638.9" target-y="512.4"></path><g node-id="218"><path d="M 661.90 511.40 C 661.90 511.40 664.60 523.90 659.30 530.90 C 654.00 537.90 644.30 545.00 640.10 541.00 C 640.40 552.10 643.70 548.90 643.30 552.80 C 642.90 556.80 644.20 557.20 649.50 566.10 C 654.80 574.90 652.80 573.30 665.60 567.50 C 678.40 561.70 720.10 531.80 728.90 528.40 C 737.70 525.00 739.00 530.40 739.00 530.40 C 739.00 530.40 743.40 517.30 731.50 516.80 C 719.60 516.30 714.00 520.60 707.80 518.60 C 701.60 516.60 687.00 518.80 686.80 513.70 C 686.60 508.60 684.50 507.20 684.50 507.20 C 684.50 507.20 681.60 507.50 677.10 508.30 C 672.60 509.10 671.00 510.30 661.90 511.40 Z" fill="#00362b" fill-rule="nonzero" group-id="2,4,11" node-id="97" stroke="none" target-height="67.70001" target-width="103.30005" target-x="640.1" target-y="507.2"></path><path d="M 719.20 533.20 C 719.20 533.20 730.60 525.00 737.50 527.80 C 743.20 530.10 733.10 539.90 700.80 552.90 C 668.50 566.00 660.60 569.80 660.60 569.80 L 719.20 533.20 Z" fill="#00120e" fill-rule="nonzero" group-id="2,4,11" node-id="99" stroke="none" target-height="44.799988" target-width="82.60004" target-x="660.6" target-y="525"></path></g><path d="M 614.80 510.00 C 614.80 510.00 611.40 504.40 621.60 502.60 C 631.80 500.80 643.00 500.40 644.70 499.50 C 646.40 498.60 647.20 498.10 647.20 498.10 L 645.80 496.70 C 645.80 496.70 623.70 497.60 616.40 501.00 C 609.10 504.30 611.30 506.50 611.30 506.50 L 614.80 510.00 Z" fill="#fcc3c4" fill-rule="nonzero" group-id="2,4" node-id="102" stroke="none" target-height="13.299988" target-width="38.100037" target-x="609.1" target-y="496.7"></path></g><g node-id="212"><path d="M 472.30 678.00 C 472.30 678.00 475.80 685.60 486.00 687.20 C 496.20 688.80 500.20 687.20 501.20 690.30 C 502.20 693.40 501.00 700.40 494.40 708.50 C 487.80 716.60 490.00 724.60 490.00 724.60 C 490.00 724.60 473.90 716.70 470.30 716.10 C 466.60 715.60 459.50 707.50 458.10 703.80 C 456.50 699.80 449.90 692.10 449.90 692.10 L 469.80 676.20 L 472.30 678.00 Z" fill="#ffd1d0" fill-rule="nonzero" group-id="2,5" node-id="107" stroke="none" target-height="48.399963" target-width="52.30002" target-x="449.9" target-y="676.2"></path><path d="M 491.70 687.90 C 491.70 687.90 499.10 688.40 499.20 690.40 C 499.30 692.40 490.60 701.00 488.20 703.80 C 485.90 706.60 485.30 710.90 484.70 712.80 C 484.10 714.70 482.10 720.90 482.10 720.90 L 485.70 722.60 C 485.70 722.60 487.80 706.80 494.20 701.30 C 500.60 695.80 503.80 692.60 501.70 689.70 C 499.60 686.80 491.70 687.90 491.70 687.90 Z" fill="#fcc3c4" fill-rule="nonzero" group-id="2,5" node-id="109" stroke="none" target-height="35.799988" target-width="21.699982" target-x="482.1" target-y="686.8"></path><path d="M 503.60 687.60 C 503.60 687.60 517.80 686.40 523.00 694.30 C 525.50 698.10 522.40 700.80 533.70 700.30 C 544.90 699.80 548.20 708.70 548.20 721.20 C 548.20 733.70 547.90 745.60 543.80 748.00 C 539.70 750.40 529.50 753.00 525.20 749.70 C 531.50 746.90 534.80 748.20 534.00 734.40 C 533.20 720.60 531.00 708.90 521.10 699.70 C 511.20 690.50 503.60 687.60 503.60 687.60 Z" fill="#00362b" fill-rule="nonzero" group-id="2,5" node-id="111" stroke="none" target-height="66.599976" target-width="44.600006" target-x="503.6" target-y="686.4"></path><path d="M 491.70 687.90 C 491.70 687.90 503.60 687.50 500.30 692.10 C 497.00 696.70 488.00 704.30 487.20 709.40 C 486.40 714.50 480.90 722.90 482.50 728.10 C 484.10 733.30 493.20 727.30 497.30 731.90 C 501.40 736.50 505.80 732.20 513.70 738.40 C 521.60 744.60 523.00 751.70 529.00 749.80 C 535.00 747.90 540.50 746.30 536.90 728.10 C 533.30 709.90 532.00 706.20 519.60 697.80 C 507.40 689.40 504.60 684.70 491.70 687.90 Z" fill="#00362b" fill-rule="nonzero" group-id="2,5" node-id="113" stroke="none" target-height="67" target-width="59.600006" target-x="480.9" target-y="684.7"></path><path d="M 478.80 684.70 C 478.80 684.70 474.80 689.40 473.60 692.30 C 472.40 695.20 467.50 702.30 465.30 704.60 C 463.10 706.90 460.70 708.00 460.70 708.00 L 458.70 705.30 C 458.70 705.30 465.30 698.40 468.20 694.60 C 471.10 690.80 475.60 685.00 476.10 684.10 C 476.60 683.20 477.30 683.40 477.30 683.40 L 478.80 684.70 Z" fill="#fcc3c4" fill-rule="nonzero" group-id="2,5" node-id="115" stroke="none" target-height="24.799988" target-width="20.099976" target-x="458.7" target-y="683.2"></path></g><g node-id="213"><path d="M 799.60 319.90 C 795.30 319.30 780.50 314.80 780.50 314.80 C 780.50 314.80 788.70 314.10 790.60 314.30 C 792.50 314.50 790.10 316.10 792.40 316.60 C 794.70 317.10 796.30 314.10 796.70 313.40 C 797.10 312.70 797.00 310.00 794.70 308.70 C 792.40 307.50 789.90 307.50 789.90 307.50 C 789.90 307.50 791.40 304.80 789.40 302.80 C 787.50 300.90 782.00 300.70 782.00 300.70 C 782.00 300.70 782.80 298.00 775.40 295.40 C 775.40 295.40 761.90 294.80 759.00 295.20 C 756.20 295.60 747.40 297.60 747.40 297.60 C 747.40 297.60 743.10 298.60 740.00 298.90 C 736.90 299.30 729.60 296.50 729.60 296.50 L 716.00 321.40 C 716.00 321.40 720.70 320.50 728.90 321.20 C 737.10 322.00 740.00 323.60 740.00 323.60 C 740.00 323.60 749.00 329.20 753.20 330.10 C 757.40 330.90 772.80 332.40 776.70 335.10 C 780.60 337.80 780.90 337.40 780.90 337.40 C 780.90 337.40 781.90 332.80 777.70 329.80 C 773.50 326.80 765.90 324.30 765.90 324.30 C 765.90 324.30 772.10 320.70 775.00 320.90 C 777.90 321.10 790.80 323.40 794.70 323.90 C 799.10 324.50 804.00 326.30 808.90 325.30 C 813.90 324.50 803.90 320.50 799.60 319.90 Z" fill="#ffd1d0" fill-rule="nonzero" group-id="2,6" node-id="120" stroke="none" target-height="43" target-width="97.900024" target-x="716" target-y="294.8"></path><path d="M 729.80 296.60 C 729.80 296.60 731.20 297.10 733.10 297.70 C 734.80 300.20 735.50 305.70 734.20 310.20 C 733.00 314.50 731.90 319.10 729.60 321.40 C 727.60 321.20 725.50 320.90 725.50 320.90 L 729.80 296.60 Z" fill="#fcc3c4" fill-rule="nonzero" group-id="2,6" node-id="122" stroke="none" target-height="24.799988" target-width="10" target-x="725.5" target-y="296.6"></path><path d="M 770.40 326.20 C 770.40 326.20 765.20 325.70 763.30 325.70 C 763.10 325.10 766.10 324.50 766.10 324.50 L 770.40 326.20 Z" fill="#fcc3c4" fill-rule="nonzero" group-id="2,6" node-id="124" stroke="none" target-height="1.7000122" target-width="7.300049" target-x="763.1" target-y="324.5"></path></g><path d="M 611.10 506.60 C 611.10 506.60 608.30 509.20 610.00 512.70 C 611.60 516.10 613.60 521.30 618.90 521.10 C 624.20 520.90 625.40 520.10 625.40 520.10 C 625.40 520.10 614.20 508.20 611.10 506.60 Z" fill="#004b3d" fill-rule="nonzero" group-id="2" node-id="127" stroke="none" target-height="14.699982" target-width="17.100037" target-x="608.3" target-y="506.6"></path><path d="M 301.40 478.40 C 301.40 478.40 297.90 480.80 297.80 488.30 C 297.70 495.80 297.00 503.60 297.00 503.60 L 348.60 492.90 L 301.40 478.40 Z" fill="#fcc3c4" fill-rule="nonzero" group-id="2" node-id="129" stroke="none" target-height="25.200012" target-width="51.600006" target-x="297" target-y="478.4"></path><path d="M 292.20 500.40 C 288.10 506.60 302.90 524.80 306.20 545.10 C 309.50 565.40 320.20 606.00 323.50 610.10 C 326.80 614.20 339.90 627.20 346.50 628.00 C 353.10 628.80 357.20 636.10 361.30 641.80 C 365.40 647.50 374.40 647.50 384.30 655.60 C 394.20 663.70 436.90 697.80 441.80 708.40 C 446.70 719.00 461.50 709.20 470.60 693.80 C 479.60 678.40 483.70 684.10 475.50 668.60 C 467.30 653.10 445.10 636.90 427.80 611.70 C 410.50 586.50 408.10 592.70 405.60 586.50 C 403.10 580.30 404.80 572.70 404.00 569.40 C 403.20 566.20 400.70 561.30 404.00 555.60 C 407.30 549.90 415.80 533.40 430.60 525.80 C 445.40 518.20 451.70 512.10 477.60 478.00 C 503.50 443.90 429.90 408.50 429.90 408.50 C 429.90 408.50 393.70 470.70 353.00 485.00 C 312.40 499.20 296.50 493.80 292.20 500.40 Z" fill="#006a59" fill-rule="nonzero" group-id="2" node-id="131" stroke="none" target-height="310.5" target-width="215.4" target-x="288.1" target-y="408.5"></path><path d="M 245.50 141.30 C 245.50 141.30 250.00 122.20 245.50 118.60 C 241.00 114.90 237.30 118.20 236.90 114.90 C 236.50 111.70 237.30 107.60 232.80 108.00 C 228.30 108.40 217.60 108.80 211.80 108.00 C 206.00 107.20 196.20 111.30 194.50 114.10 C 192.90 116.90 189.60 125.90 194.50 126.30 C 199.40 126.70 201.90 119.30 205.60 124.60 C 209.30 129.90 212.80 137.20 212.20 141.30 C 211.50 145.40 221.20 167.70 231.90 162.40 C 242.60 157.20 245.50 141.30 245.50 141.30 Z" fill="#ffd1d0" fill-rule="nonzero" group-id="2,7" node-id="135" stroke="none" target-height="60.5" target-width="60.399994" target-x="189.6" target-y="107.2"></path><path d="M 205.60 124.60 C 205.60 124.60 210.30 122.00 213.50 125.00 C 216.70 128.00 222.60 127.30 227.30 125.00 C 232.00 122.70 239.60 121.30 241.10 125.30 C 242.70 129.30 243.10 134.30 243.10 134.30 C 243.10 134.30 232.40 132.20 225.30 134.30 C 218.20 136.40 211.50 136.20 211.50 136.20 C 211.50 136.20 210.20 131.30 205.60 124.60 Z" fill="#fcc3c4" fill-rule="nonzero" group-id="2,7" node-id="137" stroke="none" target-height="15.099991" target-width="37.5" target-x="205.6" target-y="121.3"></path><path d="M 212.20 141.30 C 212.20 141.30 221.80 156.90 229.20 156.50 C 236.60 156.10 245.20 142.90 245.20 142.90 C 245.20 142.90 241.90 156.00 238.40 157.90 C 235.00 159.80 225.70 161.80 220.90 156.80 C 216.00 151.70 212.20 141.30 212.20 141.30 Z" fill="#fcc3c4" fill-rule="nonzero" group-id="2,7" node-id="139" stroke="none" target-height="20.5" target-width="33" target-x="212.2" target-y="141.3"></path><path d="M 368.00 256.70 C 368.00 256.70 349.90 253.60 338.80 253.20 C 327.70 252.80 323.60 243.00 307.60 238.60 C 291.60 234.10 278.80 238.60 278.80 238.60 C 278.80 238.60 251.30 185.40 248.80 172.80 C 246.30 160.20 250.90 163.30 250.90 156.00 C 250.90 148.70 246.50 147.90 245.70 143.30 C 244.90 138.70 239.40 160.10 229.50 159.00 C 219.60 157.90 212.20 141.10 212.20 141.10 C 212.20 141.10 200.40 207.70 212.20 227.50 C 224.00 247.30 263.70 292.20 279.30 303.30 C 294.90 314.40 284.50 355.00 285.60 369.90 C 286.70 384.80 291.20 386.40 287.40 412.40 C 283.60 438.40 283.40 439.20 288.60 447.10 C 293.80 455.00 287.10 462.00 287.40 468.80 C 287.70 475.60 291.00 486.10 309.70 489.10 C 328.30 492.10 331.60 491.30 331.60 491.30 C 331.60 491.30 428.30 473.70 464.50 459.10 C 500.70 444.50 442.70 410.40 447.60 391.90 C 452.50 373.40 486.40 341.50 499.00 339.90 C 511.60 338.30 499.00 331.20 518.70 328.00 C 538.40 324.80 619.00 329.20 641.40 324.50 C 663.90 319.80 679.20 313.70 691.30 316.20 C 703.40 318.70 718.30 325.50 723.80 326.10 C 729.30 326.60 736.80 301.30 729.70 294.30 C 722.60 287.30 698.50 293.30 686.40 286.00 C 674.30 278.70 668.90 272.70 650.20 274.90 C 631.60 277.10 581.70 272.80 556.50 277.90 C 531.30 283.00 528.20 277.40 514.10 277.00 C 500.20 276.50 368.00 256.70 368.00 256.70 Z" fill="#00c1ac" fill-rule="nonzero" group-id="2" node-id="142" stroke="none" target-height="353.40002" target-width="536.4" target-x="200.4" target-y="138.7"></path><path d="M 423.30 448.30 C 414.20 463.50 364.80 479.90 335.60 490.80 C 351.20 501.00 381.00 499.40 407.80 485.50 C 434.50 471.60 434.70 429.10 423.30 448.30 Z" fill="#006a59" fill-rule="nonzero" group-id="2" node-id="144" stroke="none" target-height="71.899994" target-width="99.100006" target-x="335.6" target-y="429.1"></path><path d="M 558.50 326.70 C 558.50 326.70 540.90 318.50 523.90 318.70 C 515.20 318.80 506.30 325.60 499.70 332.10 C 490.30 337.60 467.80 351.00 463.20 357.40 C 457.40 365.50 440.50 385.40 440.50 385.40 C 432.00 394.40 424.50 407.50 411.90 431.10 C 391.50 469.40 292.10 477.50 288.90 476.00 C 291.20 480.10 295.30 487.00 306.70 488.80 C 318.20 490.60 398.40 495.90 411.90 478.50 C 425.40 461.10 451.40 402.70 451.40 402.70 C 451.40 402.70 438.20 398.50 459.80 371.40 C 459.80 371.40 476.60 352.70 483.00 348.80 C 489.50 344.90 505.90 336.80 505.90 336.80 L 505.60 335.90 C 511.70 332.90 518.00 330.10 521.80 329.30 C 530.90 327.30 558.50 326.70 558.50 326.70 Z" fill="#00b9a1" fill-rule="nonzero" group-id="2" node-id="146" stroke="none" target-height="177.4" target-width="269.6" target-x="288.9" target-y="318.5"></path><path d="M 404.90 476.30 C 421.20 455.70 441.40 412.90 466.10 382.80 C 490.80 352.70 496.20 324.70 534.30 322.80 C 565.90 321.20 595.20 393.40 614.10 421.80 C 632.90 450.20 641.20 479.10 649.40 487.20 C 657.60 495.30 650.60 496.50 635.40 498.20 C 620.20 499.90 609.50 503.50 610.70 509.60 C 611.90 515.70 612.70 521.80 625.40 520.10 C 618.70 524.30 620.60 526.20 602.10 516.90 C 583.60 507.60 603.30 496.60 590.60 482.40 C 577.90 468.20 561.00 453.60 557.70 446.20 C 554.40 438.90 545.80 418.60 533.90 419.80 C 522.00 421.00 507.20 457.10 496.90 475.90 C 489.10 490.10 467.90 511.10 452.50 517.00 C 439.90 521.80 421.10 525.00 412.00 542.80 C 402.90 560.70 394.40 489.40 404.90 476.30 Z" fill="#006a59" fill-rule="nonzero" group-id="2" node-id="148" stroke="none" target-height="239.5" target-width="263.19998" target-x="394.4" target-y="321.2"></path><path d="M 649.30 487.20 C 646.80 484.30 644.60 480.50 642.90 477.40 C 641.20 474.20 632.70 455.80 629.70 449.60 C 626.70 443.50 618.10 428.20 614.60 422.80 C 611.10 417.40 600.60 398.90 591.90 383.00 C 583.20 367.20 569.60 347.50 569.60 347.50 C 569.60 347.50 557.60 360.70 539.50 371.00 C 521.40 381.30 483.00 359.10 483.00 359.10 L 479.50 364.40 C 479.50 364.40 454.10 397.80 445.30 411.90 C 436.50 426.10 415.70 460.70 414.10 463.10 C 412.50 465.50 404.50 476.40 403.80 478.00 C 403.10 479.60 401.50 485.10 401.50 485.10 C 401.50 485.10 388.40 490.00 374.50 490.10 C 360.50 490.20 334.80 490.90 334.80 490.90 C 334.80 490.90 311.50 496.50 305.80 496.20 C 300.00 495.90 293.70 498.30 292.30 500.60 C 290.90 502.90 292.30 508.00 297.00 518.80 C 301.70 529.60 310.30 565.50 310.30 565.50 C 310.30 565.50 319.20 520.30 350.80 523.40 C 382.40 526.50 412.40 540.30 420.30 533.50 C 428.20 526.70 426.60 526.40 435.40 523.30 C 444.20 520.10 459.00 515.10 466.20 509.30 C 468.10 507.80 471.80 504.90 476.30 500.40 L 476.30 500.40 L 476.30 500.40 C 477.50 499.20 478.70 498.00 479.90 496.60 C 484.30 491.90 491.40 484.20 494.00 480.70 C 497.80 475.40 522.40 428.30 525.60 425.40 C 528.80 422.50 532.80 416.50 541.40 422.10 C 550.00 427.70 556.50 443.80 558.40 447.80 C 560.30 451.80 566.60 457.80 566.60 457.80 C 566.60 457.80 592.00 483.00 594.30 488.60 C 596.60 494.20 594.00 500.10 593.80 504.30 C 593.60 508.50 594.20 511.30 597.50 514.20 C 600.70 517.10 615.70 524.30 618.80 523.90 C 621.90 523.50 625.50 520.40 625.50 520.40 L 623.90 520.60 C 623.90 520.60 620.30 521.50 616.90 520.00 C 613.40 518.50 613.40 518.20 611.60 513.50 C 609.80 508.70 611.00 507.40 612.80 505.10 C 614.50 502.80 618.30 502.10 625.60 500.10 C 632.80 498.10 642.70 497.70 647.70 496.90 C 652.70 496.00 652.70 494.40 653.00 493.10 C 653.10 491.40 651.80 490.10 649.30 487.20 Z" fill="#00604d" fill-rule="nonzero" group-id="2" node-id="150" stroke="none" target-height="218" target-width="362.19998" target-x="290.9" target-y="347.5"></path><path d="M 273.50 298.50 C 273.50 298.50 302.30 305.80 308.80 306.20 C 315.20 306.60 284.60 309.60 284.60 309.60 C 284.60 309.60 282.20 305.90 273.50 298.50 Z" fill="#00b9a1" fill-rule="nonzero" group-id="2" node-id="152" stroke="none" target-height="11.100006" target-width="41.700012" target-x="273.5" target-y="298.5"></path><path d="M 374.90 253.40 C 374.90 253.40 371.60 256.90 367.90 256.90 C 364.20 256.90 356.80 256.90 356.80 256.90 C 356.80 256.90 371.60 294.40 375.70 306.20 C 379.80 318.00 379.40 324.50 398.30 325.30 L 418.40 313.90 L 374.90 253.40 Z" fill="#ffd1d0" fill-rule="nonzero" group-id="2,8" node-id="156" stroke="none" target-height="71.899994" target-width="61.600006" target-x="356.8" target-y="253.4"></path><path d="M 393.00 209.60 C 380.70 220.60 372.60 248.00 375.50 260.20 C 378.40 272.40 413.70 338.40 432.10 330.30 C 449.80 322.50 462.60 304.70 480.20 277.50 C 497.90 250.10 488.60 197.70 459.70 193.80 C 428.30 189.50 409.40 194.90 393.00 209.60 Z" fill="#ffd1d0" fill-rule="nonzero" group-id="2,8" node-id="158" stroke="none" target-height="148.9" target-width="125.29999" target-x="372.6" target-y="189.5"></path><path d="M 395.20 294.50 L 398.30 325.30 C 398.30 325.30 403.50 322.40 404.60 321.80 C 406.20 320.90 410.10 318.70 410.10 318.70 C 410.10 318.70 405.50 311.00 404.10 308.00 C 402.60 304.60 395.20 294.50 395.20 294.50 Z" fill="#fcc3c4" fill-rule="nonzero" group-id="2,8" node-id="160" stroke="none" target-height="30.799988" target-width="14.899994" target-x="395.2" target-y="294.5"></path><path d="M 391.10 265.70 C 391.50 264.60 401.40 255.40 403.70 286.20 C 412.20 268.30 428.40 246.70 430.00 246.70 C 443.10 246.70 470.70 260.50 474.80 271.30 C 478.90 282.10 478.90 282.10 478.90 282.10 C 478.90 282.10 498.40 257.10 486.70 218.50 C 476.00 183.20 457.80 185.70 437.40 181.90 C 416.70 178.10 389.30 193.30 381.50 216.80 C 373.70 240.30 375.70 248.10 374.90 252.10 C 374.10 256.30 391.10 265.70 391.10 265.70 Z" fill="#0a0a0a" fill-rule="nonzero" group-id="2,8" node-id="162" stroke="none" target-height="108.100006" target-width="124.69998" target-x="373.7" target-y="178.1"></path><path d="M 416.40 260.80 C 416.40 260.80 412.60 242.90 405.40 244.60 C 398.30 246.20 392.80 253.80 393.30 260.80 C 393.80 267.80 399.90 278.10 399.90 278.10" fill="#ffd1d0" fill-rule="nonzero" group-id="2,8" node-id="164" stroke="none" target-height="35.200012" target-width="23.600006" target-x="392.8" target-y="242.9"></path><path d="M 440.20 171.80 C 421.60 169.80 404.70 171.50 396.50 184.50 C 388.40 197.40 382.60 208.90 380.70 219.00 C 386.60 226.00 400.00 233.90 416.00 240.80 C 432.00 247.70 436.40 272.80 444.90 278.20 C 453.40 283.60 484.20 296.70 498.40 289.00 C 512.60 281.30 513.30 278.90 514.10 277.20 C 515.20 274.90 509.50 262.80 505.70 259.40 C 501.90 256.00 495.70 251.40 494.90 247.50 C 494.10 243.70 501.70 203.60 477.10 186.80 C 452.50 170.00 440.20 171.80 440.20 171.80 Z" fill="#341312" fill-rule="nonzero" group-id="2,8" node-id="166" stroke="none" target-height="126.90001" target-width="134.5" target-x="380.7" target-y="169.8"></path><path d="M 368.90 256.90 C 368.90 256.90 368.20 257.10 367.20 257.20 C 364.60 257.40 359.80 257.90 360.40 260.00 C 361.20 262.80 378.30 309.30 387.70 314.00 C 397.00 318.70 398.40 317.20 398.40 317.20 L 398.40 325.40 C 398.40 325.40 396.20 326.60 387.00 323.60 C 385.20 323.00 382.70 322.20 380.60 318.80 C 377.50 313.50 374.40 303.30 368.60 287.60 C 358.90 261.40 356.90 257.10 356.90 257.10 C 356.90 257.10 364.80 257.10 367.40 257.10 C 368.00 257.00 368.90 256.90 368.90 256.90 Z" fill="#fcc3c4" fill-rule="nonzero" group-id="2" node-id="169" stroke="none" target-height="69.70001" target-width="41.5" target-x="356.9" target-y="256.9"></path><path d="M 404.60 582.60 C 404.60 582.60 392.00 598.40 387.30 600.60 C 382.60 602.80 410.60 591.50 410.60 591.50 C 410.60 591.50 407.90 589.60 406.60 588.00 C 405.10 586.20 404.60 582.60 404.60 582.60 Z" fill="#00604d" fill-rule="nonzero" group-id="2" node-id="171" stroke="none" target-height="20.200012" target-width="28" target-x="382.6" target-y="582.6"></path><path d="M 525.60 425.10 L 534.90 406.10 L 544.40 424.20 C 544.40 424.20 540.00 419.80 535.30 419.70 C 530.20 419.60 525.60 425.10 525.60 425.10 Z" fill="#005844" fill-rule="nonzero" group-id="2" node-id="173" stroke="none" target-height="19" target-width="18.800049" target-x="525.6" target-y="406.1"></path><path d="M 421.30 243.90 C 421.30 243.90 464.20 261.90 479.00 260.10 C 493.80 258.30 494.90 247.50 494.90 247.50 C 494.90 247.50 489.90 256.30 476.50 256.90 C 464.50 257.40 421.30 243.90 421.30 243.90 Z" fill="#260d0d" fill-rule="nonzero" group-id="2" node-id="175" stroke="none" target-height="18" target-width="73.600006" target-x="421.3" target-y="243.9"></path><path d="M 655.00 680.10 C 655.00 680.10 653.00 685.90 655.00 688.20 C 657.00 690.60 662.30 691.30 662.30 691.30 L 660.70 698.30 C 660.70 698.30 659.50 694.40 654.20 693.80 C 648.90 693.20 643.60 698.30 643.60 698.30 L 655.00 680.10 Z" fill="#001a14" fill-rule="nonzero" group-id="2,9" node-id="179" stroke="none" target-height="18.200012" target-width="18.700012" target-x="643.6" target-y="680.1"></path><path d="M 684.20 698.30 C 684.20 704.93 678.78 710.30 672.10 710.30 C 665.42 710.30 660.00 704.93 660.00 698.30 C 660.00 691.67 665.42 686.30 672.10 686.30 C 678.78 686.30 684.20 691.67 684.20 698.30 Z" fill="#d8a604" fill-rule="nonzero" group-id="2,9" node-id="181" stroke="none" target-height="24" target-width="24.200012" target-x="660" target-y="686.3"></path><path d="M 678.68 693.87 L 679.78 694.53 L 680.62 695.49 L 681.20 696.81 L 681.44 698.26 L 681.37 699.82 L 680.92 701.54 L 680.12 703.13 L 679.15 704.36 L 678.02 705.29 L 676.71 705.90 L 675.45 706.08 L 674.18 705.85 L 673.07 705.19 L 672.24 704.22 L 671.66 702.90 L 671.41 701.46 L 671.49 699.90 L 671.93 698.17 L 672.73 696.58 L 673.70 695.35 L 674.84 694.43 L 676.14 693.82 L 677.40 693.64 L 678.68 693.87 Z" fill="#8a5900" fill-rule="nonzero" group-id="2,9,12" node-id="185" stroke="none" target-height="12.440002" target-width="10.030029" target-x="671.41" target-y="693.64"></path><path d="M 678.39 695.41 L 679.22 695.91 L 679.85 696.63 L 680.28 697.62 L 680.47 699.28 L 680.08 701.17 L 679.13 702.85 L 677.90 703.97 L 676.92 704.43 L 675.97 704.57 L 675.02 704.40 L 674.19 703.90 L 673.56 703.18 L 673.13 702.19 L 672.94 700.53 L 673.33 698.64 L 674.28 696.95 L 675.51 695.83 L 676.49 695.37 L 677.44 695.24 L 678.39 695.41 Z" fill="#785000" fill-rule="nonzero" group-id="2,9,13" node-id="190" stroke="none" target-height="9.330017" target-width="7.5299683" target-x="672.94" target-y="695.24"></path><path d="M 546.70 881.20 C 546.70 881.20 546.00 891.00 547.90 893.20 C 549.80 895.40 552.60 897.40 552.60 897.40 L 547.80 903.00 C 547.80 903.00 543.80 898.50 540.30 899.50 C 536.70 900.40 534.40 904.90 534.40 904.90 L 546.70 881.20 Z" fill="#001a14" fill-rule="nonzero" group-id="2,9" node-id="193" stroke="none" target-height="23.700012" target-width="18.199951" target-x="534.4" target-y="881.2"></path><path d="M 613.80 643.50 C 613.80 643.50 534.90 776.70 523.40 799.50 C 511.90 822.20 488.90 868.60 488.10 876.70 C 487.30 884.80 474.10 896.20 470.00 901.10 C 465.90 906.00 441.80 941.70 452.70 952.00 C 463.70 962.30 481.70 960.10 498.70 946.60 C 515.70 933.10 527.40 917.40 532.20 908.70 C 537.00 900.00 618.60 743.50 624.10 732.70 C 629.60 721.90 648.80 687.70 660.30 672.60 C 671.80 657.40 677.80 598.90 655.90 584.90 C 634.10 570.70 617.60 630.80 613.80 643.50 Z" fill="#004b3a" fill-rule="nonzero" group-id="2,9" node-id="195" stroke="none" target-height="391.59998" target-width="236" target-x="441.8" target-y="570.7"></path><path d="M 575.80 904.80 C 575.80 912.81 569.22 919.30 561.10 919.30 C 552.98 919.30 546.40 912.81 546.40 904.80 C 546.40 896.79 552.98 890.30 561.10 890.30 C 569.22 890.30 575.80 896.79 575.80 904.80 Z" fill="#d8a604" fill-rule="nonzero" group-id="2,9" node-id="197" stroke="none" target-height="29" target-width="29.399963" target-x="546.4" target-y="890.3"></path><path d="M 569.07 899.41 L 570.41 900.21 L 571.43 901.44 L 572.10 902.96 L 572.40 904.79 L 572.30 906.71 L 571.76 908.75 L 570.82 910.65 L 569.63 912.16 L 568.21 913.34 L 566.70 914.05 L 565.12 914.30 L 563.59 914.02 L 562.25 913.22 L 561.22 911.99 L 560.56 910.47 L 560.26 908.64 L 560.36 906.72 L 560.90 904.68 L 561.84 902.78 L 563.02 901.27 L 564.45 900.10 L 565.95 899.38 L 567.53 899.13 L 569.07 899.41 Z" fill="#8a5900" fill-rule="nonzero" group-id="2,9,14" node-id="201" stroke="none" target-height="15.169983" target-width="12.140015" target-x="560.26" target-y="899.13"></path><path d="M 568.66 901.39 L 569.65 901.99 L 570.39 902.86 L 570.91 904.05 L 571.13 905.36 L 571.05 906.77 L 570.65 908.33 L 569.92 909.77 L 569.05 910.89 L 568.03 911.73 L 566.85 912.29 L 565.72 912.45 L 564.58 912.25 L 563.59 911.65 L 562.85 910.79 L 562.33 909.59 L 562.12 908.29 L 562.19 906.87 L 562.60 905.31 L 563.32 903.87 L 564.19 902.75 L 565.22 901.91 L 566.39 901.35 L 567.52 901.19 L 568.66 901.39 Z" fill="#785000" fill-rule="nonzero" group-id="2,9,15" node-id="206" stroke="none" target-height="11.26001" target-width="9.01001" target-x="562.12" target-y="901.19"></path></g></svg>