<?xml version="1.0" standalone="no"?><!DOCTYPE svg PUBLIC "-//W3C//DTD SVG 1.1//EN" "http://www.w3.org/Graphics/SVG/1.1/DTD/svg11.dtd"><svg height="1024" node-id="1" sillyvg="true" template-height="1024" template-width="1024" version="1.1" viewBox="0 0 1024 1024" width="1024" xmlns="http://www.w3.org/2000/svg" xmlns:xlink="http://www.w3.org/1999/xlink"><defs node-id="50"></defs><g node-id="146"><g node-id="148"><g node-id="152"><path d="M 91.80 347.00 C 126.10 272.90 245.10 222.00 288.40 206.50 C 331.70 191.00 422.30 322.70 532.10 357.80 C 641.90 392.90 777.00 330.70 792.10 322.50 C 807.20 314.30 911.80 462.90 912.70 519.30 C 913.60 575.70 792.60 756.70 693.00 766.60 C 593.40 776.50 172.70 767.90 186.20 681.40 C 199.70 594.90 195.30 558.70 101.60 523.30 C 8.10 487.90 91.80 347.00 91.80 347.00 Z" fill="#dffdff" fill-rule="nonzero" group-id="1,3,7" node-id="60" stroke="none" target-height="585.5" target-width="905.5" target-x="8.1" target-y="191"></path><path d="M 926.70 275.40 C 926.70 297.88 908.48 316.10 886.00 316.10 C 863.52 316.10 845.30 297.88 845.30 275.40 C 845.30 252.92 863.52 234.70 886.00 234.70 C 908.48 234.70 926.70 252.92 926.70 275.40 Z" fill="#dffdff" fill-rule="nonzero" group-id="1,3,7" node-id="62" stroke="none" target-height="81.40001" target-width="81.400024" target-x="845.3" target-y="234.7"></path><path d="M 976.20 365.90 C 976.20 376.72 967.42 385.50 956.60 385.50 C 945.78 385.50 937.00 376.72 937.00 365.90 C 937.00 355.08 945.78 346.30 956.60 346.30 C 967.42 346.30 976.20 355.08 976.20 365.90 Z" fill="#dffdff" fill-rule="nonzero" group-id="1,3,7" node-id="64" stroke="none" target-height="39.200012" target-width="39.200012" target-x="937" target-y="346.3"></path></g></g></g><g node-id="147"><path d="M 357.60 489.40 C 357.60 489.40 350.70 496.30 351.50 500.50 C 352.30 504.70 356.50 510.80 359.10 507.20 C 361.80 503.60 364.80 498.90 364.80 498.90 C 364.80 498.90 402.10 511.30 404.50 512.40 C 404.60 514.00 405.60 516.20 407.30 516.40 C 409.60 513.00 418.10 510.70 423.90 511.80 C 429.60 512.90 594.50 551.30 613.20 555.20 C 632.00 559.00 825.00 600.20 825.00 600.20 C 825.00 600.20 825.50 606.50 827.70 609.70 C 830.40 607.80 832.90 603.00 832.90 603.00 C 832.60 603.00 851.10 604.80 857.00 604.40 C 850.10 600.90 837.70 596.90 834.60 595.70 C 834.60 593.00 834.50 591.30 831.50 586.80 C 827.80 589.00 825.80 594.40 825.80 594.40 L 425.30 504.20 C 425.30 504.20 412.40 501.50 410.40 495.60 C 407.50 495.60 406.20 497.80 406.20 497.80 L 357.60 489.40 Z" fill="#101d32" fill-rule="nonzero" group-id="2" node-id="71" stroke="none" target-height="120.30002" target-width="506.3" target-x="350.7" target-y="489.4"></path><g node-id="149"><path d="M 564.60 680.10 C 564.20 678.60 564.20 676.30 565.90 673.00 C 569.00 667.10 571.20 668.30 571.90 661.20 C 572.20 657.90 568.90 654.50 563.20 652.00 C 550.20 659.80 543.00 674.50 543.00 674.50 C 543.00 674.50 543.00 674.50 543.00 674.50 C 541.80 672.90 540.80 671.80 540.80 671.80 L 492.70 690.30 C 492.70 690.30 494.90 693.00 496.10 695.30 C 494.60 695.70 486.40 698.10 484.90 698.50 C 483.10 696.60 480.60 692.70 480.60 692.70 L 434.70 702.00 C 433.30 699.90 432.00 698.10 432.00 698.10 C 432.00 698.10 411.10 702.30 404.00 708.00 C 398.70 712.20 391.50 718.80 388.00 721.90 C 387.30 722.50 387.90 723.50 388.90 723.40 L 410.90 721.30 C 406.00 726.10 405.70 733.80 405.70 733.80 L 415.40 731.70 C 415.40 731.70 414.40 724.90 419.80 721.40 C 425.20 717.90 550.40 687.90 558.50 686.70 C 566.60 685.40 563.50 696.40 566.60 695.60 C 569.70 694.70 575.30 692.90 575.30 692.90 C 575.30 692.90 569.10 683.50 564.60 680.10 Z M 420.80 716.60 C 420.80 714.00 425.00 714.10 426.70 713.00 C 426.70 713.60 426.60 714.20 426.60 714.90 C 424.30 715.60 422.40 716.10 420.80 716.60 Z" fill="#101d32" fill-rule="nonzero" group-id="2,4" node-id="75" stroke="none" target-height="81.79999" target-width="188" target-x="387.3" target-y="652"></path><path d="M 99.70 797.40 C 97.10 795.30 98.30 790.60 101.60 790.70 C 124.30 791.50 147.50 785.60 162.40 782.70 C 227.00 770.10 724.80 652.90 733.10 651.00 C 733.20 651.00 733.20 651.00 733.30 651.00 C 736.50 650.50 812.30 637.70 820.80 631.00 C 829.50 624.10 833.80 650.90 814.30 658.60 C 794.80 666.40 345.90 763.60 332.20 767.50 C 318.50 771.30 142.60 809.80 128.40 809.80 C 117.20 809.70 106.40 802.80 99.70 797.40 Z" fill="#510019" fill-rule="nonzero" group-id="2,4" node-id="77" stroke="none" target-height="185.70001" target-width="736.7" target-x="97.1" target-y="624.1"></path></g><path d="M 510.70 688.40 C 510.70 688.40 504.10 697.60 498.50 700.60 C 492.90 703.70 476.10 711.30 477.60 723.50 C 479.10 735.70 522.40 724.00 534.70 719.90 C 546.90 715.80 589.20 699.50 590.80 695.90 C 592.30 692.30 594.60 683.80 590.60 679.20 C 582.40 670.10 569.40 662.70 549.10 667.30 C 528.50 672.00 510.70 688.40 510.70 688.40 Z" fill="#101d32" fill-rule="nonzero" group-id="2" node-id="80" stroke="none" target-height="73" target-width="118.49997" target-x="476.1" target-y="662.7"></path><path d="M 416.00 415.70 C 416.00 415.70 411.40 438.10 408.90 442.70 C 406.40 447.30 405.30 451.20 401.80 455.90 C 398.20 460.60 392.10 465.90 390.60 468.70 C 389.10 471.50 389.60 478.10 385.50 481.40 C 381.40 484.70 369.40 491.60 365.10 499.20 C 360.80 506.80 367.10 505.60 367.10 505.60 C 367.10 505.60 368.40 507.60 370.40 510.40 C 372.40 513.20 377.00 518.30 379.80 518.00 C 382.60 517.70 387.20 520.50 389.70 519.30 C 392.20 518.00 391.70 517.30 395.00 518.30 C 398.30 519.30 408.00 520.60 410.00 517.80 C 412.00 515.00 418.40 494.10 420.70 490.00 C 423.00 485.90 429.90 476.20 431.80 472.70 C 433.70 469.10 431.80 464.50 431.80 464.50 L 438.00 457.40 C 438.00 457.40 429.80 417.40 425.00 416.90 C 420.30 416.50 416.00 415.70 416.00 415.70 Z" fill="#b7003b" fill-rule="nonzero" group-id="2" node-id="82" stroke="none" target-height="104.89996" target-width="77.20001" target-x="360.8" target-y="415.7"></path><path d="M 444.80 494.00 C 444.80 494.00 391.20 520.70 379.30 542.40 C 367.50 564.20 386.20 578.70 393.10 594.80 C 400.00 610.90 413.00 612.40 414.50 617.70 C 416.00 623.00 416.00 627.60 420.20 630.70 C 424.40 633.80 429.00 638.00 431.70 642.90 C 434.40 647.80 435.90 661.60 439.70 663.90 C 443.50 666.20 447.00 671.50 446.60 674.20 C 446.20 676.90 443.50 683.40 443.50 683.40 C 443.50 683.40 491.30 678.40 498.20 673.80 C 505.10 669.20 524.60 671.50 519.60 647.00 C 514.60 622.50 485.20 561.40 489.40 554.10 C 493.60 546.80 519.00 527.50 519.00 527.50 C 519.00 527.50 549.00 508.60 553.30 501.80 C 557.50 494.90 569.30 480.60 568.40 461.00 C 567.40 441.60 444.80 494.00 444.80 494.00 Z" fill="#33405b" fill-rule="nonzero" group-id="2" node-id="84" stroke="none" target-height="241.80002" target-width="201.79999" target-x="367.5" target-y="441.6"></path><path d="M 438.40 497.30 C 438.40 497.30 419.10 551.50 423.70 570.10 C 428.30 588.70 451.30 621.90 452.00 638.30 C 453.10 666.80 431.70 642.90 431.70 642.90 C 431.70 642.90 434.80 659.00 439.70 663.90 C 444.70 668.80 445.80 668.90 446.60 674.20 C 447.40 679.60 443.50 683.40 443.50 683.40 C 443.50 683.40 482.80 679.00 490.50 676.40 C 498.20 673.80 503.40 671.70 503.40 671.70 C 503.40 671.70 444.00 498.10 444.80 494.00 C 440.50 495.30 438.40 497.30 438.40 497.30 Z" fill="#2d3b53" fill-rule="nonzero" group-id="2" node-id="86" stroke="none" target-height="189.40002" target-width="84.29999" target-x="419.1" target-y="494"></path><path d="M 566.10 477.60 C 566.10 477.60 537.60 500.00 533.40 506.90 C 528.30 515.30 527.60 521.00 519.00 527.60 L 507.60 536.50 C 507.60 536.50 509.00 501.50 525.70 494.00 C 546.70 484.60 566.10 477.60 566.10 477.60 Z" fill="#2d3b53" fill-rule="nonzero" group-id="2" node-id="88" stroke="none" target-height="58.899994" target-width="58.49997" target-x="507.6" target-y="477.6"></path><path d="M 443.60 683.40 C 443.60 683.40 421.60 690.20 418.60 697.50 C 414.00 708.90 414.00 711.00 414.00 711.00 C 414.00 711.00 463.80 700.80 478.90 697.50 C 494.00 694.20 511.10 683.40 511.10 683.40 L 506.90 666.00 L 443.60 683.40 Z" fill="#101d32" fill-rule="nonzero" group-id="2" node-id="90" stroke="none" target-height="45" target-width="97.100006" target-x="414" target-y="666"></path><path d="M 505.40 424.00 C 482.90 434.10 455.00 443.90 452.40 457.10 C 449.90 470.30 429.90 560.50 433.80 570.20 C 437.60 579.90 477.40 620.60 482.00 635.90 C 486.60 651.20 513.80 672.90 510.80 688.20 C 507.70 703.50 525.30 666.40 554.90 671.50 C 584.50 676.60 589.10 668.50 589.10 668.50 C 589.10 668.50 572.80 637.40 559.00 615.50 C 545.20 593.60 537.10 587.00 532.50 587.50 C 527.90 588.00 525.90 573.70 519.30 568.10 C 512.70 562.50 505.50 556.40 505.50 556.40 C 505.50 556.40 512.30 535.80 519.10 527.50 C 523.00 522.80 524.80 518.70 524.80 518.70 C 524.80 518.70 534.20 489.70 543.40 486.30 C 552.60 482.90 565.30 473.20 568.40 461.00 C 571.50 448.80 561.50 417.40 561.50 417.40 C 561.50 417.40 535.60 410.50 505.40 424.00 Z" fill="#33405b" fill-rule="nonzero" group-id="2" node-id="92" stroke="none" target-height="293" target-width="159.19998" target-x="429.9" target-y="410.5"></path><path d="M 248.30 258.40 C 248.30 258.40 247.20 263.00 257.00 262.40 C 266.90 261.80 274.10 257.70 274.10 257.70 L 268.70 234.80 C 268.70 234.80 254.20 239.60 253.20 244.00 C 252.20 248.40 248.30 258.40 248.30 258.40 Z" fill="#2d2d2d" fill-rule="nonzero" group-id="2" node-id="94" stroke="none" target-height="28.199997" target-width="26.90001" target-x="247.2" target-y="234.8"></path><path d="M 448.00 478.50 C 448.00 478.50 519.30 414.80 541.80 421.30 C 564.40 427.90 566.10 435.30 566.10 435.30 L 561.40 417.50 C 561.40 417.50 545.60 407.50 530.30 409.40 C 515.00 411.40 449.30 443.60 448.00 478.50 Z" fill="#2d3b53" fill-rule="nonzero" group-id="2" node-id="96" stroke="none" target-height="71" target-width="118.099976" target-x="448" target-y="407.5"></path><path d="M 271.40 230.50 C 266.80 244.30 268.60 256.40 271.40 260.40 C 274.20 264.50 277.40 266.80 277.40 269.30 C 277.40 271.80 275.10 281.10 278.00 284.40 C 280.90 287.70 297.70 285.80 304.60 284.50 C 311.50 283.20 305.00 259.20 306.00 254.10 C 307.10 249.10 271.40 230.50 271.40 230.50 Z" fill="#ffd1d0" fill-rule="nonzero" group-id="2" node-id="98" stroke="none" target-height="57.200012" target-width="44.700012" target-x="266.8" target-y="230.5"></path><path d="M 276.40 246.00 C 280.90 249.70 291.00 260.50 290.80 263.60 C 290.50 266.70 283.40 270.00 282.40 278.90 C 281.40 287.80 282.00 286.30 282.00 286.30 C 282.00 286.30 292.10 303.30 298.20 306.40 C 304.30 309.50 306.60 310.00 309.40 310.00 C 312.20 310.00 329.80 287.30 333.40 279.90 C 337.00 272.50 346.90 250.90 345.90 245.00 C 344.90 239.10 333.20 218.80 316.10 221.80 C 299.00 224.90 266.90 241.20 266.90 241.20 C 266.90 241.20 274.60 244.50 276.40 246.00 Z" fill="#71253d" fill-rule="nonzero" group-id="2" node-id="100" stroke="none" target-height="91.2" target-width="80" target-x="266.9" target-y="218.8"></path><path d="M 248.30 258.40 C 248.30 258.40 242.30 206.50 266.80 190.20 C 291.30 173.90 311.70 169.50 334.10 179.70 C 356.50 189.90 365.40 215.90 365.40 215.90 C 365.40 215.90 357.00 247.20 334.80 241.10 C 312.60 235.00 320.30 227.60 309.80 228.10 C 299.40 228.60 298.60 247.50 290.20 248.20 C 281.80 249.00 283.80 242.60 276.10 242.90 C 268.60 243.10 248.30 258.40 248.30 258.40 Z" fill="#eaeff5" fill-rule="nonzero" group-id="2" node-id="102" stroke="none" target-height="88.899994" target-width="123.09999" target-x="242.3" target-y="169.5"></path><path d="M 247.30 220.10 C 247.30 220.10 279.70 221.40 299.00 215.50 C 318.40 209.60 331.60 205.60 336.70 204.00 C 341.80 202.50 357.30 195.60 358.90 197.60 C 360.40 199.60 365.50 215.70 365.50 215.70 C 365.50 215.70 343.60 234.80 334.90 233.00 C 326.20 231.20 328.30 226.10 322.20 227.40 C 316.10 228.70 307.60 233.30 290.80 235.80 C 274.00 238.30 248.50 239.10 248.50 239.10 L 247.30 220.10 Z" fill="#2d2d2d" fill-rule="nonzero" group-id="2" node-id="104" stroke="none" target-height="43.5" target-width="118.2" target-x="247.3" target-y="195.6"></path><path d="M 245.20 212.70 C 245.20 212.70 258.70 212.60 262.70 222.20 C 266.70 231.80 266.00 239.80 265.70 242.30 C 265.60 243.30 261.40 256.40 254.10 259.90 C 246.80 263.40 247.40 262.20 247.40 262.20 L 247.20 256.80 L 245.20 212.70 Z" fill="#1c1d28" fill-rule="nonzero" group-id="2,5" node-id="108" stroke="none" target-height="50.799988" target-width="21.500015" target-x="245.2" target-y="212.6"></path><path d="M 245.30 215.60 L 247.20 259.70 C 247.20 259.70 255.20 257.10 259.40 248.10 C 263.50 239.10 264.80 219.10 245.30 215.60 Z" fill="#948237" fill-rule="nonzero" group-id="2,5" node-id="110" stroke="none" target-height="44.100006" target-width="19.499985" target-x="245.3" target-y="215.6"></path><path d="M 414.30 423.50 C 414.30 423.50 419.40 423.50 421.00 425.90 C 422.70 428.30 424.10 445.10 426.10 452.90 C 428.10 460.70 431.90 464.60 431.90 464.60 L 437.20 458.60 C 437.20 458.60 427.50 428.40 425.10 425.50 C 422.70 422.60 415.60 417.40 415.60 417.40 L 414.30 423.50 Z" fill="#a60039" fill-rule="nonzero" group-id="2" node-id="113" stroke="none" target-height="47.200012" target-width="22.900024" target-x="414.3" target-y="417.4"></path><path d="M 238.90 448.00 C 238.90 448.00 232.00 454.90 232.80 459.10 C 233.60 463.30 237.80 469.40 240.40 465.80 C 243.00 462.20 246.10 457.50 246.10 457.50 C 246.10 457.50 283.40 469.90 285.80 471.00 C 285.90 472.60 286.90 474.80 288.60 475.00 C 290.90 471.60 299.40 469.30 305.20 470.40 C 311.00 471.50 475.80 509.90 494.50 513.80 C 513.20 517.60 706.20 558.90 706.20 558.90 C 706.20 558.90 706.70 565.20 708.90 568.40 C 711.60 566.50 714.10 561.70 714.10 561.70 C 713.80 561.70 732.30 563.50 738.20 563.10 C 731.30 559.60 718.90 555.60 715.80 554.40 C 715.80 551.70 715.70 550.00 712.70 545.50 C 709.00 547.70 707.00 553.10 707.00 553.10 L 306.50 462.90 C 306.50 462.90 293.60 460.20 291.60 454.30 C 288.70 454.30 287.40 456.50 287.40 456.50 L 238.90 448.00 Z" fill="#101d32" fill-rule="nonzero" group-id="2" node-id="115" stroke="none" target-height="120.400024" target-width="506.2" target-x="232" target-y="448"></path><path d="M 304.70 309.40 C 304.70 309.40 313.90 299.90 319.20 283.60 C 324.60 267.30 333.00 225.70 350.90 221.50 C 368.90 217.30 376.90 214.20 392.60 231.80 C 408.30 249.40 408.70 270.00 408.70 270.00 C 408.70 270.00 449.20 298.30 463.10 312.20 C 477.10 326.20 483.90 339.10 495.80 346.00 C 507.70 352.90 515.30 357.10 521.40 361.30 C 527.50 365.50 558.40 411.30 561.40 417.40 C 556.30 420.80 548.60 408.90 515.00 424.20 C 477.70 441.30 452.50 466.50 447.90 478.30 C 443.30 478.90 444.80 472.50 444.80 472.50 C 444.80 472.50 447.40 464.80 434.50 457.50 C 421.60 450.20 426.20 428.80 420.40 419.30 C 414.70 409.70 397.10 416.60 388.70 410.10 C 380.30 403.60 357.90 387.70 351.10 371.70 C 344.20 355.60 340.80 327.30 340.80 327.30 L 336.70 332.10 C 336.70 332.10 327.80 330.30 324.00 326.70 C 320.20 323.10 319.20 321.60 315.10 320.10 C 311.10 318.90 304.70 319.60 304.70 309.40 Z" fill="#b7003b" fill-rule="nonzero" group-id="2" node-id="117" stroke="none" target-height="264.7" target-width="256.7" target-x="304.7" target-y="214.2"></path><path d="M 404.20 297.40 L 399.10 294.40 C 399.70 294.90 401.20 296.30 401.80 296.80 C 406.80 301.20 403.00 313.10 402.00 319.60 C 401.00 326.10 397.20 341.40 392.60 344.90 C 388.00 348.40 386.70 352.40 382.30 366.20 C 377.90 380.00 363.50 389.20 363.50 389.20 L 367.40 392.80 C 368.10 393.40 372.00 397.00 373.60 398.40 C 375.40 399.90 380.90 404.30 380.90 404.30 C 380.90 404.30 382.60 401.70 388.00 396.10 C 393.30 390.60 398.50 351.80 398.50 351.40 C 400.00 347.20 401.70 342.40 404.10 336.80 C 413.00 316.40 404.20 297.40 404.20 297.40 Z" fill="#a60039" fill-rule="nonzero" group-id="2,6" node-id="121" stroke="none" target-height="109.899994" target-width="49.5" target-x="363.5" target-y="294.4"></path><path d="M 363.20 272.30 C 363.20 272.30 331.10 281.10 332.20 302.10 C 333.30 323.10 341.40 332.30 342.10 338.40 C 342.90 344.50 292.40 406.00 285.90 409.90 C 279.40 413.70 277.10 416.00 274.80 418.70 C 272.50 421.40 246.90 432.10 244.20 434.80 C 241.50 437.50 244.20 461.60 244.20 461.60 C 244.20 461.60 241.50 461.20 241.00 462.90 C 240.50 464.60 241.60 471.90 244.80 473.00 C 248.00 474.10 251.90 471.90 251.90 471.90 C 251.90 471.90 263.90 470.80 266.80 472.50 C 269.70 474.20 273.70 474.60 273.70 474.60 C 273.70 474.60 275.40 480.50 279.10 480.00 C 282.70 479.40 281.00 467.80 281.00 467.80 C 281.00 467.80 281.00 466.30 282.10 464.60 C 283.20 462.90 282.70 455.20 284.80 450.80 C 286.90 446.40 313.30 438.80 317.10 435.90 C 320.90 433.00 377.50 382.40 381.70 376.30 C 385.90 370.20 385.80 371.00 390.50 363.30 C 395.50 355.10 395.00 347.50 396.80 342.70 C 398.20 338.80 403.50 331.90 405.20 327.90 C 406.90 323.90 410.60 303.30 405.20 296.40" fill="#b7003b" fill-rule="nonzero" group-id="2" node-id="124" stroke="none" target-height="208.20001" target-width="170.1" target-x="240.5" target-y="272.3"></path><path d="M 416.30 415.70 C 416.30 415.70 440.70 400.90 448.00 387.10 C 455.40 373.30 468.10 338.40 471.40 336.90 C 474.70 335.40 489.60 341.70 489.60 341.70 C 489.60 341.70 476.70 336.40 473.40 340.40 C 470.10 344.50 452.00 395.70 441.80 404.20 C 431.70 412.90 416.30 415.70 416.30 415.70 Z" fill="#a60039" fill-rule="nonzero" group-id="2" node-id="126" stroke="none" target-height="80.30002" target-width="73.30002" target-x="416.3" target-y="335.4"></path><path d="M 365.50 288.30 C 365.50 288.30 382.30 277.30 388.40 276.60 C 394.50 275.80 415.60 275.00 415.60 275.00 L 408.70 270.10 C 408.70 270.10 394.00 270.50 383.90 275.60 C 373.80 280.70 365.50 288.30 365.50 288.30 Z" fill="#a60039" fill-rule="nonzero" group-id="2" node-id="128" stroke="none" target-height="18.199982" target-width="50.100006" target-x="365.5" target-y="270.1"></path><path d="M 506.90 552.30 L 494.20 563.20 L 505.40 556.50 Z" fill="#2d3b53" fill-rule="nonzero" group-id="2" node-id="130" stroke="none" target-height="10.900024" target-width="12.699982" target-x="494.2" target-y="552.3"></path><path d="M 616.90 699.10 C 616.50 697.40 616.40 694.70 618.10 690.80 C 621.20 683.90 623.40 685.30 624.00 677.10 C 624.30 673.30 620.90 669.30 615.20 666.50 C 602.20 675.70 595.10 692.80 595.10 692.80 C 595.10 692.80 595.10 692.80 595.10 692.80 C 593.90 691.00 592.90 689.60 592.90 689.60 L 544.80 711.50 C 544.80 711.50 547.00 714.60 548.30 717.30 C 546.80 717.80 538.60 720.70 537.10 721.10 C 535.30 718.90 532.70 714.50 532.70 714.50 L 486.80 725.70 C 485.40 723.30 484.00 721.20 484.00 721.20 C 484.00 721.20 463.10 726.30 456.00 732.90 C 450.70 737.80 443.50 745.50 440.10 749.20 C 439.40 749.90 440.00 751.10 441.00 751.00 L 463.10 748.40 C 458.20 754.00 458.00 763.00 458.00 763.00 L 467.70 760.50 C 467.70 760.50 466.60 752.60 472.00 748.50 C 477.40 744.40 602.70 708.50 610.90 707.00 C 619.10 705.50 616.00 718.20 619.10 717.20 C 622.20 716.20 627.80 714.00 627.80 714.00 C 627.80 714.00 621.40 703.10 616.90 699.10 Z M 473.00 742.80 C 473.00 739.80 477.20 739.80 478.90 738.60 C 478.90 739.30 478.80 740.00 478.80 740.80 C 476.50 741.60 474.60 742.20 473.00 742.80 Z" fill="#101d32" fill-rule="nonzero" group-id="2" node-id="132" stroke="none" target-height="96.5" target-width="188.4" target-x="439.4" target-y="666.5"></path><path d="M 159.10 830.80 C 157.30 829.00 158.60 826.00 161.10 826.10 C 171.80 826.40 193.10 826.20 208.50 821.80 C 268.00 804.80 798.50 660.10 798.50 660.10 C 798.50 660.10 877.60 644.00 886.20 636.00 C 894.80 628.00 899.40 658.90 879.90 668.10 C 860.40 677.30 410.90 794.20 397.20 798.80 C 383.40 803.40 207.40 849.60 193.20 849.80 C 180.20 850.00 166.20 837.90 159.10 830.80 Z" fill="#510019" fill-rule="nonzero" group-id="2" node-id="134" stroke="none" target-height="222" target-width="742.10004" target-x="157.3" target-y="628"></path><path d="M 252.00 471.80 C 252.00 471.80 254.20 465.40 254.00 461.80 C 253.80 458.20 254.00 471.70 254.00 471.70 L 252.00 471.80 Z" fill="#a60039" fill-rule="nonzero" group-id="2" node-id="136" stroke="none" target-height="13.599976" target-width="2.199997" target-x="252" target-y="458.2"></path><path d="M 273.60 473.70 C 273.60 473.70 273.60 473.60 273.60 473.50 C 273.40 471.90 273.40 460.50 273.10 461.30 C 272.60 462.80 271.50 474.20 271.50 474.20 L 273.70 474.60" fill="#a60039" fill-rule="nonzero" group-id="2" node-id="138" stroke="none" target-height="14.100006" target-width="2.2000122" target-x="271.5" target-y="460.5"></path><path d="M 330.90 239.80 C 330.90 239.80 319.70 266.90 317.60 275.30 C 315.50 283.70 300.60 307.50 300.60 307.50 L 304.70 309.40 C 304.70 309.40 314.90 298.60 319.80 281.80 C 324.70 265.00 333.50 240.60 333.50 240.60 L 330.90 239.80 Z" fill="#5e1933" fill-rule="nonzero" group-id="2" node-id="140" stroke="none" target-height="69.59999" target-width="32.899994" target-x="300.6" target-y="239.8"></path><path d="M 372.70 503.90 C 374.00 503.40 376.50 502.10 377.80 498.50 C 379.10 495.00 372.70 503.90 372.70 503.90 Z" fill="#a60039" fill-rule="nonzero" group-id="2" node-id="142" stroke="none" target-height="8.899994" target-width="6.399994" target-x="372.7" target-y="495"></path><path d="M 385.80 492.90 L 406.20 497.80 C 406.20 497.80 404.80 493.30 399.30 492.00 C 393.80 490.70 385.80 492.90 385.80 492.90 Z" fill="#a60039" fill-rule="nonzero" group-id="2" node-id="144" stroke="none" target-height="7.0999756" target-width="20.400024" target-x="385.8" target-y="490.7"></path></g></svg>